<svg xmlns="http://www.w3.org/2000/svg" xmlns:xlink="http://www.w3.org/1999/xlink" width="500" zoomAndPan="magnify" viewBox="0 0 375 374.999991" height="500" preserveAspectRatio="xMidYMid meet" version="1.0"><defs><g/><clipPath id="f3bf3f116a"><path d="M 126.78125 127 L 187 127 L 187 220.539062 L 126.78125 220.539062 Z M 126.78125 127 " clip-rule="nonzero"/></clipPath><clipPath id="d3bdb144c5"><path d="M 186 127 L 248.28125 127 L 248.28125 220.539062 L 186 220.539062 Z M 186 127 " clip-rule="nonzero"/></clipPath></defs><g clip-path="url(#f3bf3f116a)"><path fill="#ffffff" d="M 146.253906 171.488281 C 147.023438 174.792969 147.445312 177.503906 146.980469 179.777344 C 146.921875 180.054688 146.871094 180.34375 146.820312 180.632812 C 146.78125 180.921875 146.746094 181.210938 146.707031 181.488281 C 146.816406 181.71875 146.917969 181.945312 147.019531 182.164062 C 147.066406 182.277344 147.113281 182.386719 147.160156 182.496094 C 147.210938 182.601562 147.257812 182.707031 147.300781 182.808594 C 147.480469 183.230469 147.613281 183.636719 147.671875 184.050781 C 147.808594 184.921875 147.492188 185.066406 147.070312 185.070312 C 147.433594 186.628906 147.835938 188.148438 148.3125 189.671875 C 148.8125 191.1875 149.371094 192.722656 150.117188 194.261719 C 150.152344 193.898438 150.167969 193.523438 150.175781 193.148438 C 150.175781 192.960938 150.179688 192.773438 150.183594 192.582031 C 150.1875 192.390625 150.195312 192.199219 150.199219 192.007812 C 150.210938 191.757812 150.1875 191.503906 150.105469 191.210938 C 150.0625 191.066406 150.003906 190.910156 149.929688 190.742188 C 149.859375 190.566406 149.769531 190.382812 149.65625 190.175781 C 149.082031 189.152344 149.128906 188.46875 149.585938 188.3125 C 149.6875 188.273438 149.8125 188.269531 149.929688 188.25 C 149.8125 187.8125 149.703125 187.394531 149.625 186.980469 C 149.550781 186.5625 149.488281 186.164062 149.441406 185.78125 C 149.355469 185.003906 149.351562 184.273438 149.382812 183.601562 C 149.492188 182.183594 150.082031 181.550781 150.9375 181.273438 C 151.191406 181.785156 151.296875 182.230469 151.371094 182.632812 C 151.449219 183.039062 151.480469 183.410156 151.546875 183.792969 C 151.785156 185.082031 151.875 186.152344 151.78125 187.003906 C 151.671875 187.859375 151.394531 188.496094 150.894531 188.898438 C 151.027344 189.222656 151.160156 189.53125 151.28125 189.816406 C 151.40625 190.097656 151.519531 190.351562 151.582031 190.589844 C 151.8125 191.40625 151.566406 191.753906 151.125 191.804688 C 150.867188 191.832031 150.808594 192.050781 150.804688 192.363281 C 150.769531 193.367188 150.695312 194.34375 150.722656 195.371094 C 150.730469 195.617188 150.839844 195.980469 150.976562 196.3125 C 151.078125 196.558594 151.316406 196.867188 151.429688 197.121094 C 151.945312 198.265625 152.605469 199.414062 153.34375 200.558594 C 153.722656 201.125 154.117188 201.695312 154.535156 202.257812 C 154.957031 202.8125 155.378906 203.386719 155.835938 203.925781 C 156.066406 204.207031 156.296875 204.484375 156.53125 204.765625 C 156.777344 205.035156 157.019531 205.308594 157.265625 205.582031 C 157.753906 206.132812 158.289062 206.640625 158.824219 207.164062 C 159.925781 208.175781 161.113281 209.140625 162.460938 209.96875 C 163.003906 210.328125 163.558594 210.695312 164.109375 211.054688 C 169.804688 214.707031 176.054688 217.449219 182.550781 219.277344 C 183.996094 219.699219 185.453125 220.085938 186.921875 220.441406 L 186.90625 220.539062 C 186.449219 220.453125 185.988281 220.378906 185.53125 220.277344 C 181.164062 219.292969 176.871094 217.917969 172.769531 216.078125 C 171.929688 215.710938 171.140625 215.351562 170.367188 215.070312 C 169.984375 214.921875 169.609375 214.785156 169.234375 214.667969 C 168.859375 214.550781 168.488281 214.449219 168.121094 214.359375 C 167.632812 214.242188 167.035156 214.035156 166.664062 214.015625 C 165.652344 213.96875 164.707031 214 163.769531 213.964844 C 164.128906 214.707031 164.070312 215.09375 163.546875 215.113281 C 163.285156 215.125 162.902344 215.042969 162.402344 214.875 C 161.90625 214.699219 161.300781 214.417969 160.566406 214.050781 C 160.472656 214.09375 160.363281 214.128906 160.28125 214.1875 C 159.9375 214.445312 159.480469 214.597656 158.90625 214.640625 C 158.621094 214.664062 158.300781 214.660156 157.957031 214.625 C 157.613281 214.59375 157.246094 214.523438 156.847656 214.433594 C 155.203125 214.054688 153.382812 213.335938 151.453125 212.308594 C 150.917969 212.015625 150.261719 211.722656 149.859375 211.074219 C 149.46875 210.449219 149.976562 210.5625 150.324219 210.589844 C 151.320312 210.679688 152.324219 210.707031 153.386719 210.839844 C 154.949219 211.007812 156.753906 211.5625 159.097656 212.648438 C 159.199219 212.699219 159.289062 212.707031 159.375 212.730469 C 159.382812 212.269531 159.644531 212.074219 160.132812 212.125 C 160.625 212.175781 161.324219 212.5 162.265625 213.019531 C 162.453125 213.128906 162.714844 213.292969 162.820312 213.304688 C 163.496094 213.367188 164.246094 213.464844 164.648438 213.234375 C 161.738281 212.207031 158.847656 210.960938 156.09375 209.511719 C 155.570312 209.878906 155.078125 209.957031 154.480469 209.671875 C 153.890625 209.375 153.175781 208.730469 152.277344 207.617188 C 152.246094 207.59375 152.195312 207.5625 152.175781 207.554688 C 150.910156 207.355469 149.488281 206.589844 148.015625 205.480469 C 146.546875 204.367188 145.050781 202.890625 143.621094 201.296875 C 143.382812 201.023438 143.0625 200.523438 143.007812 200.308594 C 142.90625 199.914062 143.296875 200.210938 143.597656 200.421875 C 144.460938 201.035156 145.339844 201.582031 146.234375 202.191406 C 147.988281 203.347656 149.753906 204.476562 151.824219 206.339844 C 152.144531 205.980469 152.773438 206.128906 153.828125 206.875 C 154.324219 207.242188 154.769531 207.617188 155.15625 208.019531 C 155.535156 208.421875 155.882812 208.824219 156.199219 209.226562 C 156.4375 209.351562 156.683594 209.484375 156.945312 209.621094 C 157.210938 209.753906 157.484375 209.886719 157.765625 210.027344 C 158.046875 210.164062 158.339844 210.304688 158.632812 210.449219 C 158.933594 210.582031 159.238281 210.71875 159.546875 210.859375 C 160.160156 211.136719 160.796875 211.398438 161.425781 211.652344 C 162.050781 211.914062 162.683594 212.136719 163.28125 212.355469 C 164.484375 212.785156 165.578125 213.132812 166.410156 213.367188 C 167.234375 213.609375 167.800781 213.726562 167.929688 213.730469 C 167.679688 213.59375 167.441406 213.46875 167.203125 213.339844 C 166.972656 213.207031 166.742188 213.074219 166.515625 212.945312 C 162.640625 210.703125 158.984375 208.066406 155.644531 205.0625 C 152.308594 202.0625 149.296875 198.695312 146.695312 195.027344 L 146.019531 194.050781 L 145.683594 193.5625 L 145.359375 193.0625 L 144.71875 192.0625 L 144.105469 191.042969 L 143.800781 190.535156 L 143.507812 190.019531 L 142.929688 188.984375 C 142.566406 188.277344 142.1875 187.578125 141.839844 186.871094 C 140.445312 184.023438 139.273438 181.070312 138.335938 178.039062 C 138.175781 177.554688 138.003906 177.015625 137.804688 176.613281 C 137.652344 176.304688 137.496094 175.992188 137.339844 175.683594 C 137.191406 175.367188 137.046875 175.058594 136.902344 174.75 C 136.753906 174.4375 136.605469 174.125 136.460938 173.816406 C 136.324219 173.503906 136.183594 173.1875 136.046875 172.878906 C 135.878906 172.496094 135.683594 172.089844 135.496094 171.863281 C 135.195312 171.484375 134.894531 171.117188 134.589844 170.753906 C 134.289062 170.390625 133.976562 170.023438 133.6875 169.644531 C 133.550781 170.074219 133.410156 170.332031 133.230469 170.421875 C 133.054688 170.511719 132.84375 170.429688 132.597656 170.167969 C 132.351562 169.894531 132.15625 169.484375 131.996094 168.980469 C 131.914062 168.730469 131.84375 168.457031 131.777344 168.171875 C 131.71875 167.882812 131.667969 167.578125 131.621094 167.261719 C 131.335938 167.148438 131.074219 167.074219 130.8125 166.925781 C 130.382812 166.683594 129.957031 166.296875 129.589844 165.777344 C 129.214844 165.257812 128.859375 164.613281 128.53125 163.871094 C 128.242188 163.117188 127.9375 162.273438 127.683594 161.355469 C 127.441406 160.4375 127.195312 159.449219 127.019531 158.417969 C 126.945312 158 126.890625 157.492188 127.046875 157.011719 C 127.21875 156.492188 127.390625 156.578125 127.546875 156.796875 C 127.921875 157.324219 128.332031 157.851562 128.71875 158.394531 C 129.011719 158.792969 129.285156 159.214844 129.5625 159.671875 C 129.847656 160.132812 130.117188 160.632812 130.371094 161.191406 C 130.613281 161.753906 130.882812 162.375 131.109375 163.070312 C 131.335938 163.769531 131.582031 164.546875 131.796875 165.425781 C 132.199219 165.144531 132.519531 165.203125 132.785156 165.617188 C 133.042969 166.03125 133.285156 166.792969 133.484375 167.929688 C 133.535156 168.175781 133.609375 168.488281 133.691406 168.605469 C 134.0625 169.144531 134.421875 169.621094 134.808594 170.101562 C 134.699219 169.519531 134.589844 169.136719 134.457031 168.773438 C 133.695312 166.597656 133.011719 164.375 132.519531 162.046875 C 132.316406 161.128906 132.148438 160.617188 131.734375 160.625 C 131.441406 160.628906 131.214844 160.238281 131.089844 159.636719 C 130.984375 159.039062 130.988281 158.226562 131.121094 157.402344 C 131.175781 157.109375 131.246094 156.832031 131.320312 156.511719 C 131.082031 156.128906 130.875 155.667969 130.707031 155.128906 C 130.554688 154.585938 130.4375 153.964844 130.355469 153.257812 C 130.128906 151.007812 130.308594 148.449219 130.714844 145.871094 C 130.792969 145.390625 130.921875 144.785156 131.140625 144.671875 C 131.257812 144.605469 131.375 144.894531 131.394531 145.175781 C 131.421875 145.609375 131.457031 146.042969 131.484375 146.472656 C 131.527344 146.90625 131.566406 147.339844 131.609375 147.773438 C 131.652344 148.207031 131.679688 148.640625 131.734375 149.074219 C 131.78125 149.511719 131.828125 149.953125 131.878906 150.394531 C 132.03125 151.839844 132.125 153.4375 132.003906 155.277344 C 132.550781 155.570312 132.816406 156.316406 132.863281 157.289062 C 132.886719 157.777344 132.882812 158.328125 132.820312 158.910156 C 132.75 159.492188 132.667969 160.109375 132.542969 160.738281 C 133.066406 163.152344 133.722656 165.511719 134.511719 167.804688 C 135.316406 170.097656 136.246094 172.320312 137.304688 174.464844 C 137.292969 174.390625 137.261719 174.234375 137.214844 174.003906 C 137.191406 173.890625 137.160156 173.757812 137.128906 173.609375 C 137.097656 173.460938 137.066406 173.292969 137.03125 173.109375 C 136.960938 172.746094 136.878906 172.316406 136.789062 171.839844 C 136.695312 171.363281 136.621094 170.828125 136.523438 170.25 C 136.160156 167.945312 135.847656 164.945312 135.792969 161.9375 C 135.722656 158.929688 135.929688 155.921875 136.191406 153.613281 C 136.261719 153.035156 136.332031 152.503906 136.390625 152.019531 C 136.445312 151.539062 136.527344 151.113281 136.578125 150.75 C 136.6875 150.019531 136.757812 149.542969 136.777344 149.40625 C 136.527344 149.800781 136.332031 150.226562 136.113281 150.519531 C 135.757812 151.007812 135.375 151.457031 135.027344 151.855469 C 134.824219 152.082031 134.660156 151.917969 134.609375 151.445312 C 134.570312 150.976562 134.667969 150.4375 134.855469 150.0625 C 134.96875 149.839844 135.085938 149.644531 135.207031 149.457031 C 135.332031 149.277344 135.457031 149.097656 135.582031 148.917969 C 135.691406 148.757812 135.800781 148.628906 136.035156 148.324219 C 135.792969 148.296875 135.648438 148.335938 135.539062 148.261719 C 135.144531 147.988281 134.734375 147.742188 134.378906 147.34375 C 134.117188 147.0625 134.136719 146.480469 134.316406 145.925781 C 134.539062 145.246094 134.785156 145.058594 135.003906 145.089844 C 135.257812 145.128906 135.484375 145.265625 135.722656 145.367188 C 135.832031 145.410156 135.9375 145.472656 136.152344 145.574219 C 136.003906 143.820312 136.476562 141.992188 137.136719 140.199219 C 137.261719 139.855469 137.371094 139.5 137.515625 139.167969 C 137.785156 138.542969 138.011719 137.921875 138.21875 137.304688 C 138.4375 136.691406 138.621094 136.074219 138.78125 135.460938 C 138.894531 135.042969 139.035156 134.636719 139.183594 134.230469 C 139.335938 133.828125 139.492188 133.425781 139.6875 133.042969 C 140.066406 132.269531 140.484375 131.523438 140.984375 130.84375 C 141.382812 130.289062 141.785156 129.757812 142.214844 129.261719 C 142.425781 129.011719 142.636719 128.765625 142.847656 128.519531 L 143.164062 128.152344 L 143.492188 127.792969 C 143.828125 127.425781 144.289062 126.929688 144.359375 127.285156 C 144.433594 127.648438 143.980469 128.238281 143.679688 128.699219 C 142.433594 130.570312 141.535156 132.550781 140.917969 134.574219 C 140.714844 135.289062 140.449219 135.976562 140.179688 136.671875 C 139.902344 137.363281 139.570312 138.03125 139.214844 138.707031 C 138.933594 139.21875 138.671875 139.804688 138.441406 140.382812 C 138.289062 140.757812 138.164062 141.15625 137.976562 141.691406 C 139.441406 139.910156 139.890625 139.964844 139.898438 141.925781 C 140.855469 139.90625 141.582031 138.0625 141.660156 136.222656 C 141.679688 135.929688 141.714844 135.617188 141.730469 135.328125 C 141.761719 134.527344 142.003906 133.617188 142.363281 132.632812 C 142.53125 132.183594 142.730469 131.746094 142.929688 131.316406 C 143.03125 131.101562 143.132812 130.886719 143.242188 130.679688 C 143.351562 130.472656 143.46875 130.269531 143.589844 130.066406 C 143.828125 129.664062 144.082031 129.273438 144.347656 128.898438 C 144.625 128.53125 144.917969 128.179688 145.222656 127.84375 C 145.441406 127.609375 145.660156 127.507812 145.875 127.34375 C 145.792969 127.636719 145.746094 127.914062 145.625 128.222656 C 145.480469 128.578125 145.328125 128.9375 145.171875 129.300781 C 145.027344 129.664062 144.882812 130.03125 144.753906 130.390625 C 144.125 132.121094 143.925781 133.640625 143.75 135.128906 C 143.667969 135.847656 143.578125 136.597656 143.425781 137.371094 C 143.363281 137.761719 143.285156 138.164062 143.195312 138.570312 C 143.105469 138.980469 143 139.394531 142.902344 139.828125 C 142.742188 140.496094 142.519531 141.125 142.296875 141.738281 C 142.066406 142.351562 141.773438 142.929688 141.480469 143.503906 C 140.871094 144.632812 140.28125 145.402344 139.65625 146.003906 C 139.472656 146.179688 139.292969 146.375 139.121094 146.566406 C 139.34375 146.75 139.578125 146.707031 139.796875 146.757812 C 140.03125 146.808594 140.265625 146.878906 140.460938 147.054688 C 140.640625 147.210938 140.742188 147.589844 140.59375 148.214844 C 140.441406 148.871094 140.199219 149.109375 139.972656 149.144531 C 139.605469 149.203125 139.246094 149.195312 138.894531 149.15625 C 138.613281 149.125 138.347656 149.003906 138.015625 148.90625 C 138.050781 149.429688 138.074219 149.808594 138.097656 150.207031 C 138.121094 150.5 138.160156 150.800781 138.128906 151.121094 C 138.097656 151.464844 138.003906 151.949219 137.90625 152.164062 C 137.796875 152.375 137.59375 152.457031 137.488281 152.355469 C 137.347656 152.210938 137.253906 151.84375 137.164062 151.554688 C 137.109375 151.386719 137.074219 151.175781 137.007812 150.882812 C 136.175781 155.867188 135.96875 160.933594 136.402344 165.941406 C 136.828125 170.945312 137.921875 175.886719 139.625 180.597656 C 141.328125 185.3125 143.625 189.804688 146.445312 193.941406 C 149.265625 198.078125 152.601562 201.863281 156.351562 205.191406 C 156.253906 205.007812 156.246094 204.949219 156.203125 204.902344 C 154.113281 202.476562 152.367188 199.9375 151.03125 197.34375 C 150.78125 196.855469 150.46875 196.574219 150.117188 196.230469 C 147.089844 193.378906 144.65625 189.714844 143.03125 185.621094 C 142.835938 185.109375 142.632812 184.585938 142.535156 184.097656 C 142.40625 183.492188 142.617188 183.40625 142.972656 183.835938 C 143.082031 183.96875 143.191406 184.128906 143.296875 184.296875 C 144.789062 186.644531 146.398438 188.894531 147.976562 191.398438 C 148.261719 191.875 148.570312 192.34375 148.933594 192.90625 C 148.894531 192.722656 148.894531 192.644531 148.863281 192.550781 C 147.988281 190.167969 147.273438 187.757812 146.765625 185.355469 C 146.722656 185.167969 146.664062 185.003906 146.589844 184.839844 C 146.523438 184.671875 146.433594 184.503906 146.324219 184.316406 C 146.097656 183.929688 145.875 183.460938 145.726562 183.027344 C 145.355469 181.867188 145.449219 181.21875 145.804688 180.8125 C 145.710938 180.472656 145.617188 180.140625 145.527344 179.824219 C 145.441406 179.5 145.359375 179.191406 145.300781 178.886719 C 145.175781 178.273438 145.058594 177.707031 144.992188 177.171875 C 144.925781 176.632812 144.882812 176.136719 144.859375 175.675781 C 144.84375 175.210938 144.863281 174.785156 144.890625 174.398438 C 144.941406 173.625 145.117188 172.992188 145.347656 172.511719 C 145.574219 172.03125 145.871094 171.699219 146.253906 171.488281 Z M 141.769531 140.078125 C 141.664062 140.320312 141.558594 140.566406 141.449219 140.808594 C 141.351562 141.058594 141.25 141.308594 141.144531 141.570312 C 140.9375 142.089844 140.710938 142.628906 140.496094 143.238281 C 140.796875 142.914062 140.976562 142.710938 141.175781 142.519531 L 141.199219 142.632812 C 140.890625 143.21875 140.585938 143.816406 140.207031 144.566406 C 141.316406 143.355469 142.066406 141.671875 142.550781 139.746094 C 142.917969 138.230469 143.125 136.882812 143.269531 135.589844 C 143.316406 135.0625 143.398438 134.550781 143.472656 134.015625 C 143.507812 133.75 143.554688 133.484375 143.597656 133.210938 C 143.648438 132.941406 143.710938 132.667969 143.777344 132.390625 C 144.03125 131.277344 144.453125 130.089844 144.875 128.855469 C 144.765625 128.960938 144.644531 129.042969 144.550781 129.183594 C 143.300781 130.941406 142.476562 132.785156 142.214844 134.5625 C 142.15625 134.980469 142.132812 135.378906 142.113281 135.761719 C 142.023438 137.464844 141.429688 139.320312 140.5625 141.324219 C 140.425781 141.632812 140.292969 141.941406 140.160156 142.25 C 140.023438 142.554688 139.902344 142.871094 139.773438 143.179688 L 139.386719 144.109375 C 139.257812 144.417969 139.148438 144.734375 139.027344 145.050781 C 139.484375 144.316406 139.929688 143.460938 140.355469 142.585938 C 140.578125 142.152344 140.808594 141.71875 141.035156 141.296875 C 141.152344 141.085938 141.261719 140.875 141.386719 140.671875 C 141.511719 140.464844 141.640625 140.269531 141.769531 140.078125 Z M 137.40625 141.371094 C 137.386719 141.738281 137.382812 142.074219 137.363281 142.664062 C 137.613281 141.609375 137.957031 140.683594 138.308594 139.804688 C 138.488281 139.367188 138.6875 138.949219 138.878906 138.539062 C 139.074219 138.125 139.269531 137.71875 139.484375 137.320312 C 139.625 137.042969 139.757812 136.730469 139.878906 136.410156 C 139.941406 136.25 139.996094 136.085938 140.050781 135.925781 C 140.109375 135.769531 140.160156 135.613281 140.207031 135.464844 C 140.855469 133.355469 141.625 131.273438 142.9375 129.171875 C 142.65625 129.402344 142.328125 129.726562 142 130.117188 C 141.675781 130.507812 141.339844 130.964844 141.015625 131.445312 C 140.691406 131.925781 140.40625 132.441406 140.148438 132.945312 C 139.886719 133.445312 139.6875 133.941406 139.550781 134.390625 C 138.855469 136.609375 138.050781 138.761719 137.25 141.015625 C 137.082031 141.445312 136.949219 141.898438 136.832031 142.355469 C 136.722656 142.808594 136.628906 143.257812 136.621094 143.710938 C 136.867188 143.359375 136.980469 142.980469 137.066406 142.574219 C 137.152344 142.175781 137.214844 141.761719 137.40625 141.371094 Z M 159.144531 213.054688 C 157.742188 212.386719 155.957031 211.871094 154.382812 211.542969 C 153.988281 211.460938 153.601562 211.398438 153.238281 211.351562 C 152.875 211.300781 152.539062 211.265625 152.226562 211.253906 C 151.605469 211.230469 151.105469 211.289062 150.804688 211.460938 C 151.0625 211.617188 151.296875 211.78125 151.484375 211.871094 C 152.992188 212.566406 154.535156 213.191406 156.019531 213.710938 C 156.773438 213.964844 157.371094 214.023438 157.613281 213.730469 C 157.734375 213.59375 158.050781 213.609375 158.167969 213.4375 C 157.453125 213.296875 156.71875 213.167969 156.003906 213 L 155.859375 212.835938 C 156.300781 212.859375 156.734375 212.886719 157.320312 212.902344 C 156.863281 212.671875 156.601562 212.519531 156.339844 212.375 L 156.253906 212.238281 C 157.152344 212.519531 158.078125 212.765625 159.144531 213.054688 Z M 129.351562 164.269531 C 129.695312 164.816406 130.101562 164.863281 130.503906 164.953125 C 130.183594 164.367188 129.859375 163.773438 129.566406 163.171875 L 129.597656 162.941406 C 129.832031 163.242188 130.0625 163.542969 130.375 163.933594 C 130.28125 163.464844 130.222656 163.164062 130.164062 162.867188 L 130.199219 162.703125 C 130.363281 163.082031 130.53125 163.460938 130.703125 163.859375 C 130.890625 164.246094 131.082031 164.652344 131.292969 165.09375 C 131.21875 164.730469 131.195312 164.484375 131.136719 164.320312 C 131.078125 164.15625 131.023438 163.992188 130.96875 163.832031 C 130.914062 163.675781 130.863281 163.523438 130.804688 163.371094 C 130.695312 163.074219 130.582031 162.789062 130.464844 162.519531 C 130.34375 162.25 130.222656 161.996094 130.101562 161.753906 C 129.980469 161.515625 129.859375 161.285156 129.734375 161.070312 C 129.359375 160.414062 128.960938 159.839844 128.570312 159.320312 C 128.183594 158.800781 127.785156 158.335938 127.371094 157.902344 C 127.480469 158.558594 127.578125 159.191406 127.71875 159.796875 C 127.855469 160.402344 128.007812 160.976562 128.167969 161.515625 C 128.328125 162.058594 128.523438 162.5625 128.71875 163.023438 C 128.917969 163.480469 129.117188 163.898438 129.351562 164.269531 Z M 145.394531 176.121094 L 145.472656 176.160156 C 145.546875 176.605469 145.570312 177.054688 145.695312 177.496094 C 145.757812 177.730469 145.664062 178.234375 146.015625 178.246094 C 146.074219 178.519531 146.113281 178.800781 146.230469 179.265625 C 146.277344 178.84375 146.328125 178.519531 146.386719 178.238281 C 146.4375 178.007812 146.394531 177.632812 146.628906 177.675781 C 146.710938 177.691406 146.738281 177.320312 146.710938 177.078125 C 146.667969 176.675781 146.648438 176.261719 146.609375 175.851562 C 146.570312 175.441406 146.527344 175.027344 146.496094 174.609375 C 146.464844 174.207031 146.417969 173.804688 146.367188 173.390625 C 146.328125 172.976562 146.292969 172.554688 146.257812 172.121094 C 146.050781 172.316406 145.867188 172.628906 145.710938 173.023438 C 145.632812 173.222656 145.558594 173.445312 145.503906 173.679688 C 145.449219 173.914062 145.402344 174.167969 145.367188 174.433594 C 145.289062 174.964844 145.246094 175.550781 145.285156 176.144531 C 145.308594 176.742188 145.371094 177.359375 145.519531 177.941406 C 145.453125 177.339844 145.429688 176.726562 145.394531 176.121094 Z M 146.582031 191.003906 L 146.640625 190.964844 L 147.503906 192.285156 L 148.398438 193.582031 L 148.441406 193.550781 C 148.179688 193.042969 147.914062 192.546875 147.65625 192.039062 C 147.410156 191.527344 147.15625 191.027344 146.917969 190.515625 C 146.816406 190.296875 146.695312 190.054688 146.558594 189.855469 C 146.414062 189.640625 146.265625 189.425781 146.121094 189.210938 C 145.976562 188.992188 145.832031 188.777344 145.691406 188.558594 C 145.40625 188.128906 145.109375 187.707031 144.835938 187.277344 L 143.976562 185.992188 C 143.699219 185.558594 143.421875 185.125 143.132812 184.691406 C 143.214844 185.066406 143.382812 185.582031 143.617188 186.191406 C 143.867188 186.789062 144.191406 187.480469 144.570312 188.21875 C 145.34375 189.679688 146.386719 191.296875 147.507812 192.714844 C 147.121094 192.019531 146.859375 191.503906 146.582031 191.003906 Z M 150.144531 185.105469 C 150.214844 185.304688 150.273438 185.464844 150.375 185.75 C 150.457031 185.488281 150.523438 185.277344 150.589844 185.066406 L 150.683594 185.167969 C 150.699219 185.5625 150.71875 185.957031 150.738281 186.386719 C 151.339844 186.039062 151.394531 185.917969 151.246094 184.78125 C 151.1875 184.339844 151.144531 183.878906 151.074219 183.417969 C 151.039062 183.1875 151.003906 182.957031 150.96875 182.71875 C 150.9375 182.480469 150.90625 182.246094 150.875 182.003906 C 150.558594 182.363281 150.261719 182.753906 150.082031 183.285156 C 149.90625 183.816406 149.828125 184.496094 149.949219 185.4375 C 150.039062 185.289062 150.082031 185.203125 150.144531 185.105469 Z M 131.265625 152.828125 C 131.277344 153.117188 131.316406 153.4375 131.359375 153.964844 C 131.441406 153.496094 131.472656 153.378906 131.484375 153.261719 C 131.621094 152.277344 131.605469 151.433594 131.503906 150.675781 C 131.417969 149.984375 131.335938 149.289062 131.25 148.601562 C 131.179688 147.917969 131.101562 147.238281 131.007812 146.574219 C 130.601562 149.199219 130.460938 151.753906 130.875 153.832031 C 131.023438 153.453125 131.105469 153.207031 131.265625 152.828125 Z M 149.382812 205.304688 C 149.519531 205.382812 149.738281 205.496094 149.984375 205.628906 C 149.902344 205.507812 149.851562 205.402344 149.777344 205.316406 C 149.511719 205.023438 149.246094 204.78125 148.984375 204.554688 C 148.726562 204.328125 148.460938 204.128906 148.183594 203.949219 C 146.851562 203.074219 145.613281 202.277344 144.40625 201.59375 C 146.132812 203.476562 147.949219 205.160156 149.890625 206.210938 C 149.691406 205.855469 149.546875 205.59375 149.382812 205.304688 Z M 137.800781 144.085938 L 137.90625 143.972656 L 137.871094 144.867188 L 137.976562 144.785156 C 138.066406 144.488281 138.15625 144.191406 138.25 143.882812 C 138.355469 143.574219 138.464844 143.25 138.582031 142.894531 C 138.625 143.320312 138.597656 143.753906 138.542969 144.203125 C 138.496094 144.652344 138.40625 145.117188 138.292969 145.601562 C 138.535156 145.113281 138.734375 144.601562 138.902344 144.078125 C 139.085938 143.558594 139.234375 143.027344 139.351562 142.480469 C 139.582031 141.476562 139.375 140.972656 138.851562 141.464844 C 138.457031 141.824219 138.082031 142.425781 137.65625 142.992188 C 137.554688 143.824219 137.511719 144.570312 137.453125 145.308594 L 137.582031 145.195312 Z M 153.445312 207.019531 C 152.894531 206.703125 152.734375 206.738281 152.574219 207.125 C 153 207.460938 153.507812 207.816406 154.011719 208.078125 C 154.511719 208.351562 154.976562 208.558594 155.289062 208.636719 C 154.785156 207.949219 154.148438 207.429688 153.445312 207.019531 Z M 132.484375 157.097656 C 132.386719 156.464844 132.253906 156.363281 131.855469 156.5 C 131.84375 157.429688 132.015625 158.4375 132.363281 159.707031 C 132.472656 159.21875 132.542969 158.765625 132.558594 158.335938 C 132.578125 157.910156 132.539062 157.503906 132.484375 157.097656 Z M 160.785156 213.738281 C 161.597656 214.207031 162.148438 214.457031 162.480469 214.484375 C 162.820312 214.503906 162.933594 214.316406 162.871094 213.910156 C 162.214844 213.859375 161.554688 213.804688 160.785156 213.738281 Z M 154.984375 208.980469 C 154.226562 208.414062 153.574219 208.128906 152.804688 207.675781 C 153.292969 208.367188 153.730469 208.796875 154.089844 209.007812 C 154.453125 209.222656 154.746094 209.207031 154.984375 208.980469 Z M 132.03125 167.277344 C 132.089844 168.121094 132.273438 168.714844 132.484375 169.019531 C 132.699219 169.324219 132.960938 169.332031 133.242188 169.007812 C 133.019531 168.703125 132.816406 168.414062 132.609375 168.132812 C 132.410156 167.847656 132.226562 167.566406 132.03125 167.277344 Z M 131.578125 157.03125 C 131.304688 157.605469 131.265625 158.234375 131.347656 158.867188 C 131.4375 159.523438 131.640625 159.71875 131.980469 159.5 C 131.832031 158.613281 131.6875 157.855469 131.578125 157.03125 Z M 134.769531 146.269531 C 135.113281 147.027344 135.628906 147.207031 136.15625 147.371094 C 135.789062 146.703125 135.398438 146.082031 134.769531 146.269531 Z M 138.332031 148.25 L 139.988281 148.257812 L 140.074219 147.925781 C 139.542969 147.792969 139.003906 147.636719 138.332031 148.25 Z M 146.90625 184.242188 C 147.09375 184.046875 147.171875 183.863281 147.117188 183.554688 C 147.070312 183.242188 146.859375 182.820312 146.550781 182.121094 C 146.578125 182.324219 146.605469 182.507812 146.628906 182.691406 C 146.660156 182.867188 146.691406 183.039062 146.722656 183.210938 C 146.78125 183.550781 146.839844 183.882812 146.90625 184.242188 Z M 137.617188 148.5 L 137.488281 148.644531 C 137.4375 149.179688 137.390625 149.683594 137.414062 150.144531 C 137.4375 150.601562 137.5 151.015625 137.613281 151.355469 L 137.746094 151.195312 L 137.660156 149.851562 Z M 160.304688 213.183594 C 160.898438 213.242188 161.402344 213.273438 162.089844 213.3125 C 161.738281 213.152344 161.453125 213.03125 161.222656 212.949219 C 161 212.859375 160.828125 212.8125 160.695312 212.800781 C 160.433594 212.78125 160.335938 212.910156 160.304688 213.183594 Z M 134.929688 150.925781 C 135.425781 150.746094 135.769531 150.132812 136.125 149.492188 C 135.742188 149.59375 135.386719 149.914062 134.929688 150.925781 Z M 132.699219 167.34375 C 132.804688 167.484375 132.914062 167.578125 133.058594 167.738281 C 132.738281 166.46875 132.597656 166.253906 132.144531 166.535156 C 132.328125 166.808594 132.515625 167.09375 132.699219 167.34375 Z M 146.234375 182.046875 C 146.054688 182.160156 145.976562 182.316406 146.007812 182.601562 C 146.035156 182.886719 146.195312 183.28125 146.484375 183.859375 C 146.433594 183.53125 146.382812 183.226562 146.339844 182.933594 C 146.300781 182.640625 146.269531 182.347656 146.234375 182.046875 Z M 150.195312 189.210938 C 149.730469 189.148438 149.722656 189.164062 150.164062 190.226562 C 150.171875 189.898438 150.183594 189.570312 150.195312 189.210938 Z M 150.992188 190.023438 C 150.683594 190.058594 150.765625 190.355469 150.976562 190.757812 C 150.980469 190.5625 150.984375 190.363281 150.992188 190.023438 Z M 150.992188 190.023438 " fill-opacity="1" fill-rule="nonzero"/></g><g clip-path="url(#d3bdb144c5)"><path fill="#ffffff" d="M 226.609375 171.277344 C 225.84375 174.507812 225.5 177.179688 226.117188 179.480469 C 226.191406 179.761719 226.261719 180.054688 226.328125 180.347656 C 226.382812 180.636719 226.4375 180.929688 226.492188 181.210938 C 226.078125 182.128906 225.648438 182.917969 225.558594 183.75 C 225.457031 184.625 225.8125 184.789062 226.273438 184.816406 C 225.964844 186.386719 225.554688 187.882812 225.164062 189.445312 C 224.9375 190.210938 224.671875 190.964844 224.40625 191.742188 C 224.269531 192.128906 224.136719 192.527344 223.980469 192.914062 C 223.816406 193.296875 223.644531 193.679688 223.464844 194.066406 C 223.410156 193.695312 223.375 193.308594 223.347656 192.917969 C 223.335938 192.726562 223.324219 192.53125 223.3125 192.335938 C 223.292969 192.136719 223.273438 191.9375 223.253906 191.738281 C 223.199219 191.21875 223.269531 190.6875 223.722656 189.878906 C 224.308594 188.871094 224.191406 188.15625 223.695312 187.972656 C 223.578125 187.925781 223.445312 187.917969 223.316406 187.890625 C 223.511719 187.003906 223.640625 186.175781 223.707031 185.402344 C 223.765625 184.625 223.726562 183.882812 223.65625 183.203125 C 223.460938 181.765625 222.777344 181.101562 221.828125 180.78125 C 221.578125 181.28125 221.484375 181.714844 221.429688 182.121094 C 221.367188 182.519531 221.355469 182.894531 221.300781 183.277344 C 221.226562 183.929688 221.136719 184.5 221.128906 185.039062 C 221.113281 185.578125 221.148438 186.070312 221.234375 186.507812 C 221.417969 187.398438 221.746094 188.054688 222.308594 188.496094 C 222.058594 189.136719 221.769531 189.707031 221.664062 190.1875 C 221.480469 191.019531 221.769531 191.398438 222.246094 191.472656 C 222.519531 191.511719 222.601562 191.746094 222.625 192.066406 C 222.710938 193.097656 222.839844 194.105469 222.886719 195.1875 C 222.898438 195.4375 222.804688 195.816406 222.675781 196.15625 C 222.582031 196.402344 222.339844 196.707031 222.230469 196.964844 C 221.984375 197.542969 221.707031 198.125 221.410156 198.71875 C 221.335938 198.863281 221.265625 199.015625 221.179688 199.160156 C 221.097656 199.300781 221.011719 199.445312 220.925781 199.589844 C 220.746094 199.875 220.570312 200.164062 220.390625 200.453125 C 220.023438 201.027344 219.65625 201.625 219.246094 202.191406 C 218.828125 202.75 218.398438 203.308594 217.964844 203.871094 C 217.742188 204.160156 217.515625 204.449219 217.289062 204.734375 C 217.046875 205.003906 216.804688 205.277344 216.558594 205.550781 C 216.0625 206.089844 215.550781 206.628906 215.023438 207.160156 C 214.472656 207.667969 213.894531 208.148438 213.292969 208.628906 C 212.992188 208.863281 212.6875 209.097656 212.375 209.332031 C 212.058594 209.558594 211.71875 209.753906 211.382812 209.960938 C 210.824219 210.296875 210.285156 210.6875 209.738281 211.054688 C 209.390625 211.296875 209.023438 211.503906 208.660156 211.71875 L 207.570312 212.367188 L 206.476562 213.015625 C 206.109375 213.21875 205.730469 213.410156 205.359375 213.609375 C 204.609375 213.996094 203.867188 214.402344 203.109375 214.773438 L 200.238281 216.101562 C 200.042969 216.183594 199.847656 216.261719 199.652344 216.339844 L 198.476562 216.808594 C 197.691406 217.125 196.914062 217.453125 196.109375 217.710938 L 193.71875 218.535156 L 191.292969 219.246094 C 190.929688 219.351562 190.570312 219.464844 190.207031 219.566406 L 189.113281 219.847656 L 186.925781 220.425781 L 186.9375 220.535156 C 187.398438 220.445312 187.859375 220.367188 188.3125 220.265625 C 192.683594 219.289062 196.984375 217.929688 201.085938 216.097656 C 201.917969 215.710938 202.71875 215.375 203.5 215.109375 C 204.269531 214.8125 205.015625 214.574219 205.769531 214.429688 C 206.269531 214.328125 206.878906 214.144531 207.261719 214.140625 C 208.296875 214.132812 209.265625 214.203125 210.246094 214.226562 C 209.910156 215.003906 209.988281 215.425781 210.535156 215.484375 C 210.8125 215.507812 211.203125 215.445312 211.71875 215.292969 C 212.226562 215.132812 212.839844 214.847656 213.582031 214.472656 C 213.675781 214.527344 213.796875 214.570312 213.882812 214.640625 C 214.257812 214.9375 214.746094 215.128906 215.351562 215.210938 C 215.65625 215.253906 215.984375 215.269531 216.351562 215.253906 C 216.710938 215.238281 217.089844 215.175781 217.5 215.09375 C 218.347656 214.921875 219.242188 214.667969 220.1875 214.347656 C 220.667969 214.195312 221.125 213.984375 221.609375 213.773438 C 222.085938 213.558594 222.578125 213.328125 223.074219 213.078125 C 223.632812 212.796875 224.328125 212.527344 224.710938 211.839844 C 225.089844 211.183594 224.554688 211.285156 224.191406 211.300781 C 223.929688 211.308594 223.667969 211.320312 223.402344 211.328125 C 223.136719 211.332031 222.867188 211.335938 222.597656 211.339844 C 222.058594 211.347656 221.511719 211.359375 220.949219 211.398438 C 220.542969 211.421875 220.117188 211.472656 219.675781 211.554688 C 219.457031 211.59375 219.230469 211.640625 219 211.695312 C 218.886719 211.726562 218.769531 211.753906 218.652344 211.785156 C 218.53125 211.8125 218.410156 211.84375 218.285156 211.875 C 217.300781 212.125 216.230469 212.503906 215.050781 213.050781 C 214.945312 213.101562 214.851562 213.109375 214.765625 213.128906 C 214.703125 212.136719 213.632812 212.207031 211.761719 213.28125 C 211.570312 213.390625 211.308594 213.558594 211.199219 213.5625 C 210.855469 213.589844 210.480469 213.601562 210.148438 213.589844 C 209.808594 213.574219 209.511719 213.519531 209.296875 213.382812 L 210.414062 213.027344 C 210.785156 212.894531 211.144531 212.753906 211.511719 212.617188 C 212.25 212.335938 212.988281 212.058594 213.722656 211.78125 C 214.449219 211.484375 215.160156 211.152344 215.882812 210.835938 C 216.601562 210.507812 217.339844 210.203125 218.027344 209.828125 C 218.601562 210.253906 219.121094 210.359375 219.730469 210.082031 C 220.339844 209.796875 221.078125 209.171875 221.953125 208.007812 C 221.988281 207.984375 222.035156 207.953125 222.054688 207.949219 C 222.714844 207.871094 223.417969 207.648438 224.152344 207.320312 C 224.523438 207.164062 224.882812 206.957031 225.25 206.722656 C 225.617188 206.492188 225.992188 206.238281 226.367188 205.964844 C 226.746094 205.6875 227.128906 205.390625 227.515625 205.078125 C 227.613281 205 227.707031 204.921875 227.804688 204.84375 C 227.898438 204.757812 227.988281 204.675781 228.085938 204.585938 C 228.269531 204.414062 228.453125 204.238281 228.640625 204.0625 C 229.015625 203.703125 229.390625 203.332031 229.765625 202.957031 C 229.953125 202.765625 230.140625 202.574219 230.332031 202.382812 L 230.613281 202.089844 L 230.878906 201.785156 C 231.117188 201.511719 231.429688 200.996094 231.476562 200.769531 C 231.5625 200.359375 231.15625 200.652344 230.847656 200.859375 C 230.625 201.011719 230.402344 201.15625 230.179688 201.304688 L 229.84375 201.523438 L 229.496094 201.730469 C 229.027344 202.007812 228.5625 202.285156 228.097656 202.578125 C 227.644531 202.863281 227.191406 203.144531 226.742188 203.441406 C 226.628906 203.519531 226.515625 203.59375 226.402344 203.667969 C 226.285156 203.738281 226.167969 203.8125 226.050781 203.886719 C 225.8125 204.035156 225.574219 204.1875 225.335938 204.347656 C 224.859375 204.667969 224.378906 205.015625 223.890625 205.40625 C 223.644531 205.597656 223.414062 205.816406 223.148438 206.015625 C 222.890625 206.222656 222.628906 206.4375 222.363281 206.671875 C 222 206.269531 221.328125 206.378906 220.273438 207.132812 C 219.777344 207.503906 219.320312 207.871094 218.933594 208.277344 C 218.546875 208.675781 218.210938 209.097656 217.902344 209.515625 C 217.664062 209.640625 217.410156 209.769531 217.148438 209.90625 C 216.875 210.03125 216.59375 210.160156 216.300781 210.289062 C 215.722656 210.542969 215.105469 210.8125 214.480469 211.085938 C 214.164062 211.214844 213.855469 211.363281 213.53125 211.480469 C 213.207031 211.597656 212.882812 211.71875 212.558594 211.835938 C 211.917969 212.066406 211.285156 212.289062 210.675781 212.507812 C 208.210938 213.285156 206.21875 213.789062 205.941406 213.753906 C 206.191406 213.621094 206.433594 213.5 206.667969 213.371094 C 206.898438 213.234375 207.128906 213.101562 207.351562 212.96875 C 211.238281 210.730469 214.902344 208.097656 218.242188 205.097656 C 221.585938 202.097656 224.609375 198.730469 227.21875 195.0625 L 229.199219 192.097656 L 229.800781 191.070312 L 230.996094 189.015625 C 231.359375 188.308594 231.738281 187.613281 232.089844 186.898438 C 233.488281 184.050781 234.667969 181.09375 235.605469 178.058594 C 235.769531 177.574219 235.941406 177.035156 236.152344 176.636719 C 236.316406 176.324219 236.480469 176.015625 236.640625 175.707031 C 236.796875 175.394531 236.953125 175.085938 237.105469 174.773438 C 237.261719 174.464844 237.417969 174.15625 237.574219 173.847656 C 237.71875 173.53125 237.867188 173.21875 238.015625 172.910156 C 238.191406 172.527344 238.402344 172.121094 238.605469 171.898438 C 239.257812 171.140625 239.941406 170.449219 240.589844 169.691406 C 240.898438 170.5625 241.269531 170.753906 241.8125 170.238281 C 242.085938 169.96875 242.296875 169.554688 242.46875 169.050781 C 242.558594 168.796875 242.632812 168.523438 242.703125 168.230469 C 242.765625 167.9375 242.820312 167.632812 242.871094 167.3125 C 243.183594 167.199219 243.476562 167.128906 243.769531 166.980469 C 244.742188 166.503906 245.570312 165.40625 246.300781 163.898438 C 246.640625 163.144531 246.980469 162.285156 247.265625 161.355469 C 247.539062 160.421875 247.8125 159.417969 248.015625 158.367188 C 248.101562 157.941406 248.167969 157.421875 247.996094 156.933594 C 247.808594 156.410156 247.613281 156.5 247.4375 156.71875 C 247.011719 157.257812 246.550781 157.796875 246.113281 158.347656 C 245.785156 158.757812 245.472656 159.183594 245.164062 159.652344 C 244.847656 160.117188 244.542969 160.625 244.261719 161.191406 C 243.984375 161.761719 243.6875 162.386719 243.429688 163.09375 C 243.183594 163.796875 242.910156 164.582031 242.675781 165.46875 C 242.222656 165.179688 241.863281 165.242188 241.570312 165.65625 C 241.28125 166.070312 241.023438 166.835938 240.8125 167.980469 C 240.757812 168.230469 240.679688 168.539062 240.589844 168.660156 C 240.183594 169.199219 239.785156 169.671875 239.359375 170.152344 C 239.476562 169.566406 239.589844 169.183594 239.734375 168.824219 C 240.554688 166.640625 241.300781 164.410156 241.851562 162.0625 C 242.078125 161.136719 242.265625 160.617188 242.730469 160.625 C 243.0625 160.628906 243.3125 160.238281 243.449219 159.628906 C 243.578125 159.023438 243.574219 158.203125 243.429688 157.371094 C 243.367188 157.074219 243.289062 156.796875 243.214844 156.46875 C 243.484375 156.078125 243.71875 155.613281 243.910156 155.0625 C 244.089844 154.515625 244.230469 153.882812 244.328125 153.164062 C 244.613281 150.878906 244.453125 148.28125 244.0625 145.664062 C 243.988281 145.175781 243.859375 144.566406 243.617188 144.453125 C 243.488281 144.386719 243.351562 144.683594 243.324219 144.972656 C 243.277344 145.410156 243.234375 145.855469 243.191406 146.292969 C 243.136719 146.730469 243.082031 147.175781 243.027344 147.617188 C 242.925781 148.496094 242.792969 149.386719 242.671875 150.285156 C 242.476562 151.75 242.351562 153.367188 242.464844 155.222656 C 241.847656 155.527344 241.542969 156.277344 241.484375 157.261719 C 241.453125 157.753906 241.457031 158.304688 241.523438 158.894531 C 241.597656 159.480469 241.691406 160.101562 241.828125 160.734375 C 241.242188 163.167969 240.519531 165.542969 239.660156 167.839844 C 238.792969 170.136719 237.792969 172.359375 236.671875 174.492188 C 236.679688 174.414062 236.710938 174.257812 236.761719 174.03125 C 236.785156 173.917969 236.8125 173.785156 236.847656 173.636719 C 236.875 173.484375 236.90625 173.320312 236.941406 173.136719 C 237.011719 172.773438 237.09375 172.34375 237.183594 171.863281 C 237.277344 171.382812 237.351562 170.847656 237.449219 170.269531 C 237.816406 167.964844 238.128906 164.957031 238.1875 161.945312 C 238.261719 158.929688 238.058594 155.917969 237.796875 153.605469 C 237.726562 153.027344 237.65625 152.492188 237.597656 152.007812 C 237.542969 151.527344 237.460938 151.097656 237.410156 150.734375 C 237.304688 150.003906 237.234375 149.527344 237.214844 149.386719 C 237.488281 149.777344 237.695312 150.203125 237.9375 150.496094 C 238.328125 150.980469 238.742188 151.425781 239.125 151.820312 C 239.347656 152.042969 239.53125 151.875 239.601562 151.398438 C 239.652344 150.925781 239.550781 150.382812 239.347656 150.007812 C 239.226562 149.785156 239.101562 149.589844 238.972656 149.40625 C 238.835938 149.226562 238.703125 149.050781 238.566406 148.871094 C 238.449219 148.710938 238.328125 148.582031 238.070312 148.28125 C 238.34375 148.25 238.5 148.289062 238.625 148.210938 C 239.074219 147.925781 239.53125 147.667969 239.941406 147.257812 C 240.234375 146.964844 240.234375 146.375 240.046875 145.816406 C 239.816406 145.136719 239.546875 144.949219 239.304688 144.988281 C 239.019531 145.035156 238.761719 145.179688 238.492188 145.285156 C 238.371094 145.335938 238.253906 145.398438 238.015625 145.511719 C 238.226562 143.730469 237.753906 141.890625 237.089844 140.089844 C 236.960938 139.742188 236.851562 139.386719 236.707031 139.050781 C 236.429688 138.425781 236.203125 137.800781 236 137.175781 C 235.785156 136.558594 235.601562 135.9375 235.453125 135.316406 C 235.226562 134.476562 234.9375 133.652344 234.5625 132.875 C 234.179688 132.101562 233.753906 131.351562 233.238281 130.675781 C 232.824219 130.125 232.414062 129.597656 231.972656 129.101562 C 231.53125 128.605469 231.109375 128.113281 230.648438 127.652344 C 230.300781 127.285156 229.828125 126.796875 229.730469 127.171875 C 229.628906 127.546875 230.089844 128.136719 230.394531 128.597656 C 231.660156 130.464844 232.550781 132.460938 233.140625 134.503906 C 233.335938 135.226562 233.59375 135.917969 233.859375 136.613281 C 234.136719 137.304688 234.476562 137.976562 234.847656 138.648438 C 235.136719 139.160156 235.402344 139.746094 235.632812 140.324219 C 235.789062 140.699219 235.914062 141.097656 236.105469 141.632812 C 234.546875 139.878906 234.046875 139.957031 233.964844 141.9375 C 232.980469 139.929688 232.257812 138.089844 232.246094 136.214844 C 232.242188 135.917969 232.214844 135.601562 232.210938 135.304688 C 232.214844 134.488281 231.988281 133.5625 231.640625 132.570312 C 231.472656 132.121094 231.28125 131.679688 231.082031 131.246094 C 230.984375 131.03125 230.878906 130.816406 230.773438 130.609375 C 230.664062 130.398438 230.542969 130.195312 230.425781 129.996094 C 230.183594 129.59375 229.925781 129.203125 229.65625 128.832031 C 229.375 128.464844 229.074219 128.117188 228.757812 127.789062 C 228.535156 127.554688 228.300781 127.464844 228.070312 127.304688 C 228.144531 127.601562 228.179688 127.886719 228.296875 128.195312 C 228.433594 128.558594 228.582031 128.921875 228.734375 129.285156 C 228.875 129.65625 229.011719 130.023438 229.136719 130.386719 C 229.730469 132.136719 229.878906 133.679688 230 135.195312 C 230.050781 135.925781 230.121094 136.683594 230.253906 137.464844 C 230.304688 137.859375 230.371094 138.261719 230.453125 138.671875 C 230.535156 139.082031 230.632812 139.5 230.726562 139.933594 C 230.875 140.601562 231.089844 141.226562 231.316406 141.839844 C 231.550781 142.449219 231.847656 143.023438 232.152344 143.589844 C 232.789062 144.703125 233.421875 145.457031 234.101562 146.046875 C 234.296875 146.214844 234.492188 146.410156 234.675781 146.59375 C 234.425781 146.785156 234.164062 146.75 233.917969 146.808594 C 233.65625 146.863281 233.394531 146.941406 233.171875 147.125 C 232.964844 147.289062 232.84375 147.671875 232.988281 148.292969 C 233.140625 148.941406 233.40625 149.175781 233.660156 149.207031 C 234.070312 149.253906 234.46875 149.242188 234.863281 149.195312 C 235.175781 149.15625 235.472656 149.027344 235.84375 148.917969 C 235.796875 149.445312 235.761719 149.828125 235.722656 150.226562 C 235.695312 150.523438 235.640625 150.828125 235.671875 151.144531 C 235.699219 151.488281 235.792969 151.976562 235.902344 152.183594 C 236.015625 152.394531 236.25 152.472656 236.367188 152.367188 C 236.527344 152.222656 236.636719 151.855469 236.742188 151.558594 C 236.804688 151.386719 236.851562 151.179688 236.933594 150.882812 C 237.757812 155.867188 237.964844 160.945312 237.527344 165.957031 C 237.09375 170.964844 235.996094 175.910156 234.289062 180.625 C 233.433594 182.980469 232.429688 185.28125 231.289062 187.511719 L 230.84375 188.339844 L 230.625 188.757812 L 230.390625 189.164062 L 229.445312 190.789062 C 228.84375 191.886719 228.117188 192.910156 227.429688 193.960938 C 224.605469 198.097656 221.277344 201.890625 217.519531 205.214844 C 217.613281 205.027344 217.617188 204.964844 217.65625 204.914062 C 218.164062 204.285156 218.652344 203.660156 219.125 203.039062 C 219.363281 202.726562 219.609375 202.429688 219.820312 202.101562 C 220.035156 201.777344 220.25 201.453125 220.460938 201.128906 C 220.875 200.484375 221.289062 199.855469 221.660156 199.203125 C 222.015625 198.542969 222.359375 197.882812 222.6875 197.234375 C 222.929688 196.738281 223.261719 196.476562 223.605469 196.132812 C 224.351562 195.414062 225.097656 194.671875 225.800781 193.882812 C 226.464844 193.066406 227.109375 192.21875 227.730469 191.34375 C 228.3125 190.449219 228.851562 189.511719 229.378906 188.5625 C 229.445312 188.445312 229.511719 188.324219 229.570312 188.207031 L 229.75 187.835938 C 229.863281 187.589844 229.980469 187.339844 230.09375 187.09375 C 230.207031 186.847656 230.316406 186.597656 230.433594 186.347656 C 230.535156 186.089844 230.632812 185.835938 230.734375 185.582031 C 230.929688 185.070312 231.125 184.542969 231.210938 184.054688 C 231.328125 183.441406 231.089844 183.347656 230.71875 183.769531 C 230.601562 183.898438 230.488281 184.054688 230.378906 184.21875 C 229.992188 184.792969 229.601562 185.367188 229.214844 185.949219 C 228.804688 186.515625 228.425781 187.097656 228.019531 187.671875 C 227.605469 188.242188 227.203125 188.820312 226.816406 189.417969 C 226.617188 189.71875 226.429688 190.023438 226.238281 190.332031 C 226.03125 190.628906 225.828125 190.933594 225.628906 191.242188 C 225.328125 191.707031 225.039062 192.183594 224.6875 192.75 C 224.714844 192.558594 224.710938 192.476562 224.738281 192.382812 L 225.3125 190.570312 C 225.402344 190.269531 225.511719 189.980469 225.582031 189.671875 L 225.8125 188.753906 L 226.261719 186.941406 C 226.296875 186.792969 226.335938 186.644531 226.367188 186.492188 L 226.457031 186.039062 L 226.632812 185.132812 C 226.667969 184.941406 226.722656 184.773438 226.796875 184.613281 C 226.863281 184.445312 226.949219 184.28125 227.0625 184.097656 C 227.292969 183.71875 227.511719 183.253906 227.65625 182.824219 C 228.011719 181.667969 227.875 181.007812 227.464844 180.582031 C 228.234375 177.894531 228.433594 175.753906 228.222656 174.207031 C 228.140625 173.4375 227.925781 172.804688 227.65625 172.324219 C 227.382812 171.832031 227.039062 171.492188 226.609375 171.277344 Z M 231.957031 140.128906 C 232.066406 140.371094 232.175781 140.609375 232.28125 140.855469 C 232.382812 141.101562 232.484375 141.351562 232.589844 141.609375 C 232.796875 142.125 233.027344 142.667969 233.246094 143.273438 C 232.921875 142.953125 232.730469 142.757812 232.519531 142.570312 L 232.488281 142.683594 C 232.8125 143.269531 233.125 143.855469 233.523438 144.601562 C 232.335938 143.414062 231.558594 141.753906 231.105469 139.820312 C 230.765625 138.296875 230.597656 136.941406 230.496094 135.625 C 230.46875 135.089844 230.40625 134.570312 230.351562 134.027344 C 230.316406 133.757812 230.285156 133.488281 230.246094 133.210938 C 230.207031 132.933594 230.152344 132.660156 230.09375 132.378906 C 229.871094 131.246094 229.46875 130.046875 229.074219 128.796875 C 229.1875 128.898438 229.316406 128.980469 229.410156 129.113281 C 230.683594 130.867188 231.5 132.722656 231.703125 134.527344 C 231.746094 134.949219 231.757812 135.355469 231.761719 135.746094 C 231.78125 137.476562 232.359375 139.335938 233.242188 141.332031 C 233.382812 141.640625 233.519531 141.949219 233.65625 142.253906 C 233.796875 142.5625 233.917969 142.871094 234.050781 143.179688 L 234.449219 144.105469 C 234.582031 144.414062 234.695312 144.726562 234.820312 145.039062 C 234.335938 144.3125 233.867188 143.46875 233.425781 142.601562 C 233.195312 142.171875 232.957031 141.738281 232.71875 141.316406 C 232.488281 140.902344 232.230469 140.5 231.957031 140.128906 Z M 236.738281 141.273438 C 236.75 141.644531 236.742188 141.988281 236.742188 142.582031 C 236.5 141.523438 236.152344 140.59375 235.800781 139.714844 C 235.613281 139.277344 235.410156 138.859375 235.214844 138.449219 C 235.015625 138.035156 234.816406 137.628906 234.597656 137.230469 C 234.453125 136.953125 234.316406 136.640625 234.199219 136.316406 C 234.136719 136.15625 234.082031 135.992188 234.03125 135.832031 C 233.972656 135.671875 233.921875 135.515625 233.878906 135.367188 C 233.253906 133.238281 232.507812 131.132812 231.175781 129.027344 C 231.472656 129.25 231.8125 129.566406 232.15625 129.957031 C 232.492188 130.34375 232.839844 130.800781 233.171875 131.277344 C 233.503906 131.757812 233.792969 132.277344 234.050781 132.78125 C 234.316406 133.28125 234.515625 133.785156 234.644531 134.234375 C 235.316406 136.480469 236.117188 138.644531 236.929688 140.90625 C 237.09375 141.339844 237.234375 141.796875 237.34375 142.253906 C 237.453125 142.707031 237.539062 143.164062 237.535156 143.621094 C 236.988281 142.9375 237.125 142.058594 236.738281 141.273438 Z M 215.035156 213.492188 C 215.75 213.167969 216.554688 212.875 217.40625 212.648438 C 218.253906 212.421875 219.144531 212.257812 219.957031 212.109375 C 221.59375 211.835938 223.085938 211.820312 223.746094 212.21875 C 223.476562 212.371094 223.234375 212.53125 223.039062 212.609375 C 222.25 212.933594 221.460938 213.253906 220.6875 213.558594 C 220.304688 213.714844 219.902344 213.847656 219.507812 213.972656 C 219.117188 214.105469 218.722656 214.226562 218.339844 214.347656 C 217.5625 214.585938 216.945312 214.625 216.671875 214.296875 C 216.542969 214.136719 216.207031 214.140625 216.074219 213.949219 C 216.816406 213.835938 217.566406 213.714844 218.320312 213.582031 L 218.464844 213.414062 C 218.003906 213.410156 217.542969 213.410156 216.929688 213.40625 C 217.390625 213.171875 217.664062 213.03125 217.9375 212.894531 L 218.019531 212.75 C 217.070312 212.996094 216.140625 213.242188 215.035156 213.492188 Z M 245.398438 164.308594 C 245.015625 164.859375 244.558594 164.90625 244.109375 164.996094 C 244.46875 164.402344 244.824219 163.804688 245.152344 163.195312 L 245.117188 162.960938 C 244.855469 163.265625 244.597656 163.570312 244.25 163.964844 C 244.351562 163.492188 244.417969 163.1875 244.484375 162.886719 L 244.445312 162.722656 C 244.261719 163.105469 244.074219 163.488281 243.882812 163.886719 C 243.675781 164.28125 243.464844 164.6875 243.230469 165.132812 C 243.308594 164.765625 243.339844 164.519531 243.398438 164.351562 C 243.527344 164.015625 243.648438 163.699219 243.765625 163.394531 C 243.886719 163.09375 244.015625 162.804688 244.144531 162.53125 C 244.277344 162.261719 244.414062 162.003906 244.554688 161.757812 C 244.6875 161.515625 244.824219 161.28125 244.960938 161.0625 C 245.382812 160.398438 245.832031 159.816406 246.269531 159.285156 C 246.703125 158.757812 247.152344 158.285156 247.613281 157.839844 C 247.488281 158.507812 247.375 159.152344 247.21875 159.765625 C 247.0625 160.382812 246.894531 160.964844 246.714844 161.515625 C 246.53125 162.0625 246.316406 162.574219 246.101562 163.039062 C 245.882812 163.511719 245.660156 163.933594 245.398438 164.308594 Z M 227.714844 175.894531 L 227.632812 175.929688 C 227.566406 176.371094 227.554688 176.816406 227.4375 177.257812 C 227.375 177.484375 227.503906 177.992188 227.113281 177.992188 C 227.0625 178.261719 227.027344 178.539062 226.921875 179 C 226.847656 178.578125 226.78125 178.253906 226.703125 177.96875 C 226.636719 177.738281 226.675781 177.363281 226.414062 177.394531 C 226.324219 177.410156 226.277344 177.039062 226.296875 176.796875 C 226.324219 176.398438 226.335938 175.988281 226.363281 175.582031 C 226.386719 175.175781 226.417969 174.769531 226.4375 174.351562 C 226.464844 173.960938 226.5 173.558594 226.539062 173.152344 C 226.566406 172.746094 226.59375 172.328125 226.625 171.898438 C 226.859375 172.101562 227.074219 172.414062 227.257812 172.808594 C 227.351562 173.007812 227.441406 173.230469 227.511719 173.464844 C 227.582031 173.699219 227.644531 173.953125 227.691406 174.21875 C 227.792969 174.75 227.863281 175.332031 227.84375 175.925781 C 227.835938 176.519531 227.792969 177.132812 227.652344 177.707031 C 227.695312 177.105469 227.703125 176.492188 227.714844 175.894531 Z M 227.128906 190.910156 L 227.058594 190.863281 L 225.300781 193.46875 L 225.25 193.433594 C 225.746094 192.410156 226.253906 191.402344 226.730469 190.386719 C 226.828125 190.164062 226.941406 189.921875 227.074219 189.722656 C 227.359375 189.285156 227.652344 188.859375 227.949219 188.4375 C 228.246094 188.019531 228.554688 187.605469 228.832031 187.175781 L 229.707031 185.90625 C 229.988281 185.476562 230.277344 185.046875 230.574219 184.617188 C 230.5 185 230.339844 185.515625 230.113281 186.125 C 229.867188 186.726562 229.546875 187.417969 229.167969 188.152344 C 228.765625 188.871094 228.304688 189.636719 227.820312 190.40625 C 227.695312 190.597656 227.574219 190.789062 227.453125 190.984375 C 227.320312 191.167969 227.179688 191.351562 227.039062 191.535156 C 226.765625 191.902344 226.484375 192.261719 226.199219 192.613281 C 226.578125 191.917969 226.851562 191.414062 227.128906 190.910156 Z M 222.921875 184.679688 C 222.851562 184.882812 222.800781 185.035156 222.699219 185.320312 C 222.597656 185.050781 222.519531 184.835938 222.4375 184.621094 L 222.339844 184.714844 C 222.335938 185.113281 222.335938 185.511719 222.332031 185.9375 C 221.660156 185.550781 221.59375 185.425781 221.703125 184.292969 C 221.746094 183.851562 221.765625 183.386719 221.816406 182.925781 C 221.839844 182.695312 221.867188 182.464844 221.890625 182.230469 C 221.914062 181.996094 221.933594 181.757812 221.953125 181.519531 C 222.316406 181.894531 222.660156 182.304688 222.890625 182.851562 C 223.113281 183.394531 223.242188 184.085938 223.152344 185.03125 C 223.050781 184.875 222.992188 184.789062 222.921875 184.679688 Z M 243.304688 152.734375 C 243.285156 153.027344 243.246094 153.351562 243.1875 153.882812 C 243.097656 153.410156 243.070312 153.296875 243.054688 153.175781 C 242.914062 152.175781 242.945312 151.324219 243.074219 150.554688 C 243.183594 149.851562 243.289062 149.144531 243.394531 148.445312 C 243.488281 147.75 243.589844 147.054688 243.707031 146.378906 C 244.101562 149.039062 244.21875 151.632812 243.730469 153.742188 C 243.570312 153.363281 243.480469 153.113281 243.304688 152.734375 Z M 224.914062 205.71875 C 224.769531 205.789062 224.550781 205.902344 224.292969 206.03125 C 224.375 205.90625 224.421875 205.800781 224.5 205.710938 C 225.023438 205.113281 225.546875 204.695312 226.125 204.347656 C 226.835938 203.941406 227.472656 203.507812 228.128906 203.128906 C 228.777344 202.742188 229.421875 202.386719 230.0625 202.066406 C 229.15625 202.992188 228.265625 203.898438 227.339844 204.695312 C 226.382812 205.457031 225.417969 206.132812 224.429688 206.660156 C 224.621094 206.289062 224.761719 206.015625 224.914062 205.71875 Z M 236.214844 144.039062 L 236.101562 143.925781 L 236.113281 144.832031 L 236 144.753906 C 235.90625 144.457031 235.820312 144.160156 235.722656 143.851562 C 235.617188 143.542969 235.507812 143.214844 235.382812 142.859375 C 235.324219 143.296875 235.339844 143.730469 235.382812 144.183594 C 235.425781 144.636719 235.511719 145.101562 235.621094 145.589844 C 235.367188 145.101562 235.160156 144.597656 234.988281 144.070312 C 234.804688 143.554688 234.65625 143.015625 234.546875 142.46875 C 234.328125 141.464844 234.578125 140.945312 235.136719 141.425781 C 235.558594 141.777344 235.957031 142.371094 236.414062 142.933594 C 236.496094 143.773438 236.519531 144.527344 236.566406 145.269531 L 236.425781 145.160156 Z M 220.691406 207.316406 C 221.25 207.003906 221.425781 207.046875 221.617188 207.472656 C 221.402344 207.644531 221.167969 207.816406 220.921875 207.980469 C 220.675781 208.144531 220.421875 208.300781 220.160156 208.421875 C 219.640625 208.679688 219.15625 208.871094 218.828125 208.933594 C 219.328125 208.234375 219.984375 207.730469 220.691406 207.316406 Z M 241.898438 157.0625 C 242.015625 156.421875 242.160156 156.316406 242.609375 156.453125 C 242.609375 157.394531 242.410156 158.414062 242.019531 159.691406 C 241.898438 159.199219 241.824219 158.746094 241.804688 158.3125 C 241.789062 157.882812 241.832031 157.46875 241.898438 157.0625 Z M 213.34375 214.132812 C 212.53125 214.605469 211.976562 214.859375 211.628906 214.871094 C 211.277344 214.875 211.148438 214.660156 211.195312 214.226562 C 211.871094 214.207031 212.550781 214.171875 213.34375 214.132812 Z M 219.171875 209.320312 C 219.945312 208.761719 220.632812 208.511719 221.410156 208.054688 C 220.941406 208.777344 220.492188 209.203125 220.121094 209.40625 C 219.75 209.609375 219.4375 209.578125 219.171875 209.320312 Z M 242.425781 167.332031 C 242.367188 168.183594 242.171875 168.785156 241.9375 169.089844 C 241.699219 169.390625 241.410156 169.398438 241.089844 169.0625 C 241.332031 168.757812 241.5625 168.46875 241.785156 168.1875 C 242.003906 167.902344 242.207031 167.625 242.425781 167.332031 Z M 242.914062 156.988281 C 243.214844 157.5625 243.257812 158.199219 243.164062 158.839844 C 243.0625 159.503906 242.832031 159.703125 242.453125 159.480469 C 242.621094 158.585938 242.78125 157.824219 242.914062 156.988281 Z M 239.527344 146.164062 C 239.125 146.941406 238.542969 147.132812 237.953125 147.3125 C 238.378906 146.628906 238.828125 145.988281 239.527344 146.164062 Z M 235.503906 148.253906 L 233.65625 148.304688 L 233.570312 147.976562 C 234.164062 147.824219 234.769531 147.652344 235.503906 148.253906 Z M 226.414062 183.980469 C 226.199219 183.777344 226.105469 183.582031 226.148438 183.273438 C 226.1875 182.960938 226.390625 182.546875 226.699219 181.855469 C 226.675781 182.058594 226.65625 182.246094 226.636719 182.425781 C 226.613281 182.605469 226.589844 182.777344 226.566406 182.949219 C 226.515625 183.289062 226.46875 183.621094 226.414062 183.980469 Z M 236.296875 148.488281 L 236.4375 148.632812 C 236.480469 149.167969 236.519531 149.671875 236.480469 150.132812 C 236.449219 150.59375 236.375 151.007812 236.238281 151.355469 L 236.09375 151.199219 L 236.214844 149.847656 Z M 213.824219 213.5625 C 213.199219 213.582031 212.679688 213.597656 211.972656 213.613281 C 213.390625 212.976562 213.726562 212.96875 213.824219 213.5625 Z M 239.238281 150.871094 C 238.691406 150.699219 238.316406 150.089844 237.933594 149.449219 C 238.359375 149.546875 238.753906 149.859375 239.238281 150.871094 Z M 241.675781 167.390625 C 241.5625 167.53125 241.441406 167.625 241.28125 167.78125 C 241.621094 166.503906 241.777344 166.289062 242.289062 166.582031 C 242.085938 166.855469 241.878906 167.136719 241.675781 167.390625 Z M 227.042969 181.796875 C 227.441406 182.03125 227.441406 182.472656 226.859375 183.617188 C 226.898438 183.285156 226.933594 182.984375 226.96875 182.6875 C 226.992188 182.390625 227.019531 182.101562 227.042969 181.796875 Z M 223.101562 188.859375 C 223.605469 188.824219 223.613281 188.839844 223.1875 189.898438 C 223.160156 189.5625 223.132812 189.226562 223.101562 188.859375 Z M 222.273438 189.636719 C 222.605469 189.691406 222.53125 189.988281 222.339844 190.398438 C 222.324219 190.195312 222.304688 189.988281 222.273438 189.636719 Z M 222.273438 189.636719 " fill-opacity="1" fill-rule="nonzero"/></g><g fill="#ffffff" fill-opacity="1"><g transform="translate(179.756459, 166.42664)"><g><path d="M 13.15625 -15.640625 C 13.15625 -15.960938 13.0625 -16.242188 12.875 -16.484375 C 12.695312 -16.722656 12.421875 -16.875 12.046875 -16.9375 L 16.171875 -16.9375 C 15.960938 -16.90625 15.675781 -16.71875 15.3125 -16.375 C 14.957031 -16.03125 14.582031 -15.390625 14.1875 -14.453125 L 7.953125 0.59375 L 1.625 -14.53125 C 1.257812 -15.394531 0.898438 -15.992188 0.546875 -16.328125 C 0.203125 -16.671875 -0.0820312 -16.875 -0.3125 -16.9375 L 3.796875 -16.9375 C 3.347656 -16.820312 3.125 -16.535156 3.125 -16.078125 C 3.125 -15.828125 3.179688 -15.5625 3.296875 -15.28125 C 3.410156 -15.007812 3.476562 -14.847656 3.5 -14.796875 L 8.28125 -3.109375 L 12.90625 -14.484375 C 13.070312 -14.859375 13.15625 -15.242188 13.15625 -15.640625 Z M 13.15625 -15.640625 "/></g></g></g><g fill="#ffffff" fill-opacity="1"><g transform="translate(176.566112, 194.14368)"><g><path d="M 16.34375 0 C 16.539062 -0.03125 16.753906 -0.207031 16.984375 -0.53125 C 17.222656 -0.851562 17.34375 -1.445312 17.34375 -2.3125 L 17.34375 -14.625 L 10.890625 0.265625 L 4.328125 -14.609375 L 4.328125 -2.4375 C 4.328125 -1.550781 4.472656 -0.929688 4.765625 -0.578125 C 5.054688 -0.222656 5.316406 -0.03125 5.546875 0 L 1.890625 0 C 2.140625 -0.03125 2.410156 -0.210938 2.703125 -0.546875 C 3.003906 -0.890625 3.15625 -1.519531 3.15625 -2.4375 L 3.15625 -14.78125 C 3.15625 -15.5625 3.015625 -16.097656 2.734375 -16.390625 C 2.453125 -16.691406 2.171875 -16.875 1.890625 -16.9375 L 5.21875 -16.9375 L 11.25 -3.171875 L 17.1875 -16.9375 L 20.171875 -16.9375 C 19.953125 -16.90625 19.71875 -16.734375 19.46875 -16.421875 C 19.226562 -16.109375 19.109375 -15.535156 19.109375 -14.703125 L 19.109375 -2.21875 C 19.109375 -1.394531 19.226562 -0.828125 19.46875 -0.515625 C 19.71875 -0.203125 19.953125 -0.03125 20.171875 0 Z M 16.34375 0 "/></g></g></g><g fill="#ffffff" fill-opacity="1"><g transform="translate(149.931245, 243.525302)"><g><path d="M 0.671875 -4.515625 C 0.671875 -5.546875 0.796875 -6.457031 1.046875 -7.25 C 1.296875 -8.039062 1.640625 -8.648438 2.078125 -9.078125 C 2.515625 -9.503906 3.007812 -9.71875 3.5625 -9.71875 C 4.113281 -9.71875 4.601562 -9.53125 5.03125 -9.15625 C 5.46875 -8.789062 5.8125 -8.253906 6.0625 -7.546875 C 6.3125 -6.847656 6.4375 -6.007812 6.4375 -5.03125 C 6.4375 -4 6.3125 -3.085938 6.0625 -2.296875 C 5.8125 -1.503906 5.46875 -0.894531 5.03125 -0.46875 C 4.59375 -0.0390625 4.09375 0.171875 3.53125 0.171875 C 2.988281 0.171875 2.5 -0.0078125 2.0625 -0.375 C 1.632812 -0.75 1.296875 -1.285156 1.046875 -1.984375 C 0.796875 -2.691406 0.671875 -3.535156 0.671875 -4.515625 Z M 5.4375 -4.359375 C 5.4375 -5.378906 5.347656 -6.253906 5.171875 -6.984375 C 4.992188 -7.710938 4.753906 -8.265625 4.453125 -8.640625 C 4.148438 -9.015625 3.804688 -9.207031 3.421875 -9.21875 C 3.078125 -9.21875 2.769531 -9.050781 2.5 -8.71875 C 2.238281 -8.382812 2.035156 -7.910156 1.890625 -7.296875 C 1.742188 -6.691406 1.671875 -5.988281 1.671875 -5.1875 C 1.671875 -4.164062 1.753906 -3.289062 1.921875 -2.5625 C 2.097656 -1.832031 2.335938 -1.273438 2.640625 -0.890625 C 2.953125 -0.515625 3.296875 -0.328125 3.671875 -0.328125 C 4.015625 -0.328125 4.320312 -0.492188 4.59375 -0.828125 C 4.863281 -1.160156 5.070312 -1.628906 5.21875 -2.234375 C 5.363281 -2.847656 5.4375 -3.554688 5.4375 -4.359375 Z M 5.4375 -4.359375 "/></g></g></g><g fill="#ffffff" fill-opacity="1"><g transform="translate(161.202986, 243.525302)"><g><path d="M 6.265625 -3.28125 L 6.265625 -2.609375 L 5.109375 -2.609375 L 5.109375 -1.296875 C 5.109375 -0.617188 5.242188 -0.1875 5.515625 0 L 3.8125 0 C 3.882812 -0.0195312 3.96875 -0.125 4.0625 -0.3125 C 4.164062 -0.5 4.21875 -0.828125 4.21875 -1.296875 L 4.21875 -2.609375 L 0.03125 -2.609375 L 5.109375 -9.84375 L 5.109375 -3.28125 Z M 4.21875 -7.640625 L 1.171875 -3.28125 L 4.21875 -3.28125 Z M 4.21875 -7.640625 "/></g></g></g><g fill="#ffffff" fill-opacity="1"><g transform="translate(172.363673, 243.525302)"><g><path d="M 1.78125 0.140625 C 1.59375 0.140625 1.425781 0.078125 1.28125 -0.046875 C 1.132812 -0.171875 1.0625 -0.34375 1.0625 -0.5625 C 1.0625 -0.789062 1.128906 -0.960938 1.265625 -1.078125 C 1.410156 -1.203125 1.582031 -1.265625 1.78125 -1.265625 C 1.96875 -1.265625 2.128906 -1.203125 2.265625 -1.078125 C 2.410156 -0.960938 2.484375 -0.789062 2.484375 -0.5625 C 2.484375 -0.34375 2.410156 -0.171875 2.265625 -0.046875 C 2.117188 0.078125 1.957031 0.140625 1.78125 0.140625 Z M 1.78125 0.140625 "/></g></g></g><g fill="#ffffff" fill-opacity="1"><g transform="translate(180.08181, 243.525302)"><g><path d="M 0.671875 -4.515625 C 0.671875 -5.546875 0.796875 -6.457031 1.046875 -7.25 C 1.296875 -8.039062 1.640625 -8.648438 2.078125 -9.078125 C 2.515625 -9.503906 3.007812 -9.71875 3.5625 -9.71875 C 4.113281 -9.71875 4.601562 -9.53125 5.03125 -9.15625 C 5.46875 -8.789062 5.8125 -8.253906 6.0625 -7.546875 C 6.3125 -6.847656 6.4375 -6.007812 6.4375 -5.03125 C 6.4375 -4 6.3125 -3.085938 6.0625 -2.296875 C 5.8125 -1.503906 5.46875 -0.894531 5.03125 -0.46875 C 4.59375 -0.0390625 4.09375 0.171875 3.53125 0.171875 C 2.988281 0.171875 2.5 -0.0078125 2.0625 -0.375 C 1.632812 -0.75 1.296875 -1.285156 1.046875 -1.984375 C 0.796875 -2.691406 0.671875 -3.535156 0.671875 -4.515625 Z M 5.4375 -4.359375 C 5.4375 -5.378906 5.347656 -6.253906 5.171875 -6.984375 C 4.992188 -7.710938 4.753906 -8.265625 4.453125 -8.640625 C 4.148438 -9.015625 3.804688 -9.207031 3.421875 -9.21875 C 3.078125 -9.21875 2.769531 -9.050781 2.5 -8.71875 C 2.238281 -8.382812 2.035156 -7.910156 1.890625 -7.296875 C 1.742188 -6.691406 1.671875 -5.988281 1.671875 -5.1875 C 1.671875 -4.164062 1.753906 -3.289062 1.921875 -2.5625 C 2.097656 -1.832031 2.335938 -1.273438 2.640625 -0.890625 C 2.953125 -0.515625 3.296875 -0.328125 3.671875 -0.328125 C 4.015625 -0.328125 4.320312 -0.492188 4.59375 -0.828125 C 4.863281 -1.160156 5.070312 -1.628906 5.21875 -2.234375 C 5.363281 -2.847656 5.4375 -3.554688 5.4375 -4.359375 Z M 5.4375 -4.359375 "/></g></g></g><g fill="#ffffff" fill-opacity="1"><g transform="translate(191.35355, 243.525302)"><g><path d="M 1.125 0 C 1.25 -0.0390625 1.378906 -0.160156 1.515625 -0.359375 C 1.648438 -0.554688 1.71875 -0.921875 1.71875 -1.453125 L 1.71875 -8.59375 L 0.484375 -8.53125 L 0.484375 -8.734375 L 2.609375 -9.71875 L 2.609375 -1.453125 C 2.609375 -0.921875 2.675781 -0.554688 2.8125 -0.359375 C 2.957031 -0.160156 3.09375 -0.0390625 3.21875 0 Z M 1.125 0 "/></g></g></g><g fill="#ffffff" fill-opacity="1"><g transform="translate(199.84903, 243.525302)"><g><path d="M 1.78125 0.140625 C 1.59375 0.140625 1.425781 0.078125 1.28125 -0.046875 C 1.132812 -0.171875 1.0625 -0.34375 1.0625 -0.5625 C 1.0625 -0.789062 1.128906 -0.960938 1.265625 -1.078125 C 1.410156 -1.203125 1.582031 -1.265625 1.78125 -1.265625 C 1.96875 -1.265625 2.128906 -1.203125 2.265625 -1.078125 C 2.410156 -0.960938 2.484375 -0.789062 2.484375 -0.5625 C 2.484375 -0.34375 2.410156 -0.171875 2.265625 -0.046875 C 2.117188 0.078125 1.957031 0.140625 1.78125 0.140625 Z M 1.78125 0.140625 "/></g></g></g><g fill="#ffffff" fill-opacity="1"><g transform="translate(207.567165, 243.525302)"><g><path d="M 1.421875 -1.296875 C 2.210938 -2.242188 2.78125 -2.929688 3.125 -3.359375 C 3.476562 -3.796875 3.765625 -4.203125 3.984375 -4.578125 C 4.222656 -4.984375 4.394531 -5.375 4.5 -5.75 C 4.601562 -6.125 4.65625 -6.503906 4.65625 -6.890625 C 4.65625 -7.304688 4.570312 -7.664062 4.40625 -7.96875 C 4.238281 -8.269531 4.019531 -8.5 3.75 -8.65625 C 3.476562 -8.8125 3.1875 -8.890625 2.875 -8.890625 C 2.289062 -8.890625 1.816406 -8.675781 1.453125 -8.25 C 1.097656 -7.832031 0.921875 -7.296875 0.921875 -6.640625 C 0.765625 -6.878906 0.6875 -7.1875 0.6875 -7.5625 C 0.6875 -7.914062 0.773438 -8.257812 0.953125 -8.59375 C 1.128906 -8.925781 1.394531 -9.195312 1.75 -9.40625 C 2.113281 -9.613281 2.550781 -9.71875 3.0625 -9.71875 C 3.539062 -9.71875 3.972656 -9.601562 4.359375 -9.375 C 4.753906 -9.15625 5.066406 -8.84375 5.296875 -8.4375 C 5.535156 -8.03125 5.65625 -7.554688 5.65625 -7.015625 C 5.65625 -6.148438 5.3125 -5.25 4.625 -4.3125 C 3.976562 -3.425781 3.15625 -2.421875 2.15625 -1.296875 L 1.734375 -0.828125 L 4.546875 -0.828125 C 5.023438 -0.828125 5.382812 -0.898438 5.625 -1.046875 C 5.875 -1.191406 6.039062 -1.332031 6.125 -1.46875 L 5.859375 0 L 0.328125 0 Z M 1.421875 -1.296875 "/></g></g></g><g fill="#ffffff" fill-opacity="1"><g transform="translate(218.39471, 243.525302)"><g><path d="M 3.6875 -5.40625 C 4.40625 -5.226562 4.953125 -4.898438 5.328125 -4.421875 C 5.703125 -3.953125 5.890625 -3.421875 5.890625 -2.828125 C 5.890625 -2.304688 5.765625 -1.816406 5.515625 -1.359375 C 5.265625 -0.898438 4.90625 -0.53125 4.4375 -0.25 C 3.976562 0.03125 3.429688 0.171875 2.796875 0.171875 C 2.304688 0.171875 1.890625 0.109375 1.546875 -0.015625 C 1.210938 -0.148438 0.875 -0.332031 0.53125 -0.5625 L 0.53125 -1.671875 C 0.6875 -1.328125 0.972656 -1.023438 1.390625 -0.765625 C 1.804688 -0.503906 2.269531 -0.375 2.78125 -0.375 C 3.445312 -0.375 3.960938 -0.578125 4.328125 -0.984375 C 4.703125 -1.398438 4.890625 -1.914062 4.890625 -2.53125 C 4.890625 -3.25 4.664062 -3.800781 4.21875 -4.1875 C 3.769531 -4.570312 3.210938 -4.765625 2.546875 -4.765625 L 2.28125 -4.765625 L 2.28125 -5 C 2.882812 -5.207031 3.375 -5.507812 3.75 -5.90625 C 4.132812 -6.300781 4.328125 -6.753906 4.328125 -7.265625 C 4.328125 -7.742188 4.191406 -8.128906 3.921875 -8.421875 C 3.648438 -8.722656 3.269531 -8.875 2.78125 -8.875 C 2.488281 -8.875 2.210938 -8.800781 1.953125 -8.65625 C 1.691406 -8.507812 1.476562 -8.296875 1.3125 -8.015625 C 1.15625 -7.734375 1.078125 -7.394531 1.078125 -7 C 0.910156 -7.226562 0.828125 -7.515625 0.828125 -7.859375 C 0.828125 -8.421875 1.035156 -8.867188 1.453125 -9.203125 C 1.867188 -9.546875 2.367188 -9.71875 2.953125 -9.71875 C 3.585938 -9.71875 4.125 -9.53125 4.5625 -9.15625 C 5 -8.789062 5.21875 -8.289062 5.21875 -7.65625 C 5.21875 -7.25 5.078125 -6.835938 4.796875 -6.421875 C 4.523438 -6.003906 4.15625 -5.664062 3.6875 -5.40625 Z M 3.6875 -5.40625 "/></g></g></g></svg>