<svg xmlns="http://www.w3.org/2000/svg" xmlns:xlink="http://www.w3.org/1999/xlink" width="500" zoomAndPan="magnify" viewBox="0 0 375 374.999991" height="500" preserveAspectRatio="xMidYMid meet" version="1.0"><defs><g/><clipPath id="e5d195cbb3"><path d="M 133.492188 51 L 217 51 L 217 279.816406 L 133.492188 279.816406 Z M 133.492188 51 " clip-rule="nonzero"/></clipPath><clipPath id="390ddec4a1"><path d="M 185 41.316406 L 241.492188 41.316406 L 241.492188 275 L 185 275 Z M 185 41.316406 " clip-rule="nonzero"/></clipPath></defs><g fill="#ffffff" fill-opacity="1"><g transform="translate(32.496784, 251.16643)"><g><path d="M 129.609375 -135.5 L 67.75 6.265625 L 5.890625 -135.5 L 37.921875 -135.5 L 68.84375 -59.09375 L 97.9375 -135.5 Z M 129.609375 -135.5 "/></g></g></g><g fill="#ffffff" fill-opacity="1"><g transform="translate(167.978215, 251.16643)"><g><path d="M 157.03125 -141.015625 L 157.03125 0 L 130.34375 0 L 130.34375 -64.609375 L 86.15625 -1.84375 L 85.78125 -1.84375 L 43.265625 -60.5625 L 43.265625 0 L 17.484375 0 L 17.484375 -141.015625 L 17.671875 -141.015625 L 86.34375 -43.625 L 156.65625 -141.015625 Z M 157.03125 -141.015625 "/></g></g></g><g clip-path="url(#e5d195cbb3)"><path fill="#d9d9d9" d="M 155.125 90.015625 C 155.109375 89.902344 155.09375 89.789062 155.082031 89.671875 C 154.726562 89.761719 154.367188 89.851562 154.011719 89.9375 C 154.035156 90.035156 154.058594 90.132812 154.078125 90.230469 C 154.429688 90.160156 154.777344 90.089844 155.125 90.015625 Z M 145.558594 92.9375 C 145.585938 92.921875 145.613281 92.90625 145.640625 92.886719 C 145.640625 92.378906 145.640625 91.871094 145.640625 91.363281 C 145.613281 91.367188 145.585938 91.367188 145.558594 91.367188 C 145.558594 91.890625 145.558594 92.417969 145.558594 92.9375 Z M 152.035156 92.976562 C 152.117188 93.027344 152.199219 93.074219 152.28125 93.125 C 152.652344 92.492188 153.019531 91.863281 153.390625 91.230469 C 153.308594 91.183594 153.226562 91.136719 153.144531 91.089844 C 152.773438 91.71875 152.402344 92.347656 152.035156 92.976562 Z M 149.832031 83.273438 C 149.832031 82.378906 149.832031 81.730469 149.832031 80.882812 C 149.039062 81.964844 149.039062 81.964844 149.832031 83.273438 Z M 153.71875 69.765625 C 153.082031 71.078125 152.449219 72.394531 151.777344 73.78125 C 152.972656 73.089844 153.574219 71.933594 153.71875 69.765625 Z M 149.371094 75.640625 C 149.839844 75.835938 150.207031 75.988281 150.613281 76.15625 C 150.648438 75.59375 150.683594 75.0625 150.722656 74.449219 C 150.269531 74.308594 149.871094 74.1875 149.371094 74.035156 C 149.371094 74.667969 149.371094 75.148438 149.371094 75.640625 Z M 155.003906 85.074219 C 154.917969 85.054688 154.832031 85.035156 154.75 85.019531 C 154.507812 85.523438 154.269531 86.03125 154.03125 86.535156 C 154.980469 86.820312 153.855469 87.652344 154.457031 88.054688 C 155.171875 87.917969 155.554688 87.546875 155.363281 86.738281 C 155.230469 86.1875 155.121094 85.628906 155.003906 85.074219 Z M 148.261719 81.191406 C 149.917969 80.367188 150.355469 78.6875 149.519531 77.066406 C 149.015625 77.304688 149.054688 77.71875 149.050781 78.199219 C 149.042969 78.847656 148.917969 79.503906 148.765625 80.140625 C 148.675781 80.511719 148.433594 80.84375 148.261719 81.191406 Z M 150.523438 73.355469 C 150.601562 72.875 150.554688 72.464844 150.726562 72.203125 C 151.523438 71 151.320312 70.273438 149.886719 69.652344 C 149.460938 70.988281 149.210938 72.261719 150.523438 73.355469 Z M 156.273438 71.925781 C 157.222656 70.941406 157.394531 69 156.730469 66.628906 C 155.230469 68.332031 155.558594 70.09375 156.273438 71.925781 Z M 157.472656 72.21875 C 159.472656 71.734375 160.910156 70.734375 162.203125 69.140625 C 160.507812 69.011719 159.265625 69.621094 158.074219 70.359375 C 157.621094 70.640625 157.113281 70.972656 157.863281 71.519531 C 157.882812 71.53125 157.671875 71.867188 157.472656 72.21875 Z M 152.332031 77.433594 C 152.425781 77.464844 152.519531 77.496094 152.613281 77.527344 C 153.441406 76.183594 154.292969 74.855469 155.089844 73.492188 C 155.277344 73.167969 155.414062 72.699219 155.328125 72.359375 C 155.1875 71.800781 154.847656 71.292969 154.539062 70.664062 C 154.136719 71.597656 153.960938 72.519531 153.4375 73.136719 C 152.328125 74.445312 152.386719 75.929688 152.332031 77.433594 Z M 144.261719 73.125 C 144.359375 73.210938 144.460938 73.296875 144.558594 73.382812 C 144.4375 72.8125 144.234375 72.246094 144.210938 71.671875 C 144.167969 70.511719 143.597656 69.753906 142.671875 69.136719 C 141.570312 68.402344 141.027344 68.578125 140.882812 69.890625 C 140.660156 71.847656 141.378906 73.503906 142.65625 74.949219 C 142.695312 74.992188 142.820312 74.96875 142.796875 74.964844 C 143.3125 74.316406 143.789062 73.71875 144.261719 73.125 Z M 156.207031 87.40625 C 156.296875 87.445312 156.382812 87.484375 156.46875 87.523438 C 157.070312 86.476562 157.699219 85.445312 158.257812 84.375 C 159.171875 82.621094 159.695312 80.75 159.648438 78.75 C 159.628906 78.039062 159.472656 77.40625 158.675781 77.210938 C 157.582031 78.195312 156.816406 79.457031 156.492188 80.8125 C 156.214844 81.960938 155.945312 83.113281 155.703125 84.265625 C 155.570312 84.902344 155.523438 85.542969 155.976562 86.199219 C 156.210938 85.714844 156.378906 85.371094 156.546875 85.019531 C 156.609375 85.050781 156.671875 85.078125 156.738281 85.105469 C 156.5625 85.871094 156.382812 86.640625 156.207031 87.40625 Z M 149.070312 96.722656 C 149.160156 96.699219 149.246094 96.671875 149.332031 96.644531 C 149.480469 94.296875 149.628906 91.945312 149.777344 89.59375 C 149.785156 89.457031 149.789062 89.320312 149.78125 89.183594 C 149.734375 88.375 149.832031 87.523438 149.597656 86.769531 C 149.140625 85.300781 148.5 83.890625 147.933594 82.457031 C 147.734375 81.949219 147.398438 81.921875 146.816406 82.257812 C 146.738281 83.484375 146.640625 84.789062 146.585938 86.097656 C 146.574219 86.394531 146.613281 86.871094 146.792969 86.972656 C 148.230469 87.804688 148.183594 89.308594 148.554688 90.628906 C 148.847656 91.667969 148.652344 92.667969 148.066406 93.492188 C 147.535156 94.242188 147.609375 94.789062 148.132812 95.433594 C 148.46875 95.84375 148.761719 96.292969 149.070312 96.722656 Z M 152.679688 68.863281 C 153.824219 68.492188 153.8125 68.484375 154.21875 67.816406 C 154.964844 66.574219 155.742188 65.351562 156.480469 64.101562 C 156.679688 63.761719 156.878906 63.371094 156.90625 62.988281 C 157.023438 61.429688 157.070312 59.863281 157.148438 58.210938 C 157.066406 58.183594 156.847656 58.039062 156.648438 58.0625 C 155.667969 58.183594 154.828125 58.589844 154.261719 59.4375 C 152.140625 62.621094 151.660156 66.246094 151.417969 69.933594 C 151.410156 70.042969 151.542969 70.160156 151.71875 70.445312 C 152.078125 69.3125 152.367188 68.40625 152.652344 67.5 C 152.726562 67.523438 152.796875 67.550781 152.871094 67.574219 C 152.808594 67.988281 152.75 68.402344 152.679688 68.863281 Z M 143.988281 89.695312 C 143.613281 89 143.289062 88.429688 142.988281 87.84375 C 142.890625 87.652344 142.742188 87.363281 142.8125 87.230469 C 143.234375 86.472656 142.742188 85.824219 142.628906 85.132812 C 142.398438 83.707031 142.164062 82.277344 141.9375 80.847656 C 141.90625 80.671875 141.988281 80.449219 141.910156 80.3125 C 141.117188 78.9375 140.296875 77.578125 138.964844 76.640625 C 138.273438 76.15625 137.730469 76.367188 137.59375 77.1875 C 137.511719 77.671875 137.515625 78.183594 137.542969 78.679688 C 137.746094 82.316406 139.136719 85.4375 141.636719 88.074219 C 142.28125 88.75 142.929688 89.414062 143.988281 89.695312 Z M 145.910156 88.292969 C 146 87.867188 146.078125 87.703125 146.0625 87.550781 C 145.773438 84.890625 146.347656 82.304688 146.71875 79.703125 C 146.933594 78.195312 146.910156 76.695312 146.339844 75.277344 C 146.160156 74.824219 145.746094 74.320312 145.316406 74.152344 C 144.734375 73.925781 144.105469 74.285156 143.839844 74.855469 C 143.414062 75.789062 142.953125 76.753906 142.78125 77.753906 C 142.039062 82.09375 143.21875 86.101562 145.050781 90.050781 C 146.054688 88.601562 144.542969 87.445312 144.730469 86.046875 C 145.113281 86.777344 145.453125 87.421875 145.910156 88.292969 Z M 150.679688 69.164062 C 150.761719 68.679688 150.851562 68.242188 150.914062 67.804688 C 151.300781 65.101562 151.730469 62.417969 153.167969 60.015625 C 153.339844 59.730469 153.410156 59.328125 153.382812 58.996094 C 153.222656 57.234375 153.050781 55.472656 152.808594 53.71875 C 152.738281 53.203125 152.511719 52.664062 152.210938 52.234375 C 151.710938 51.515625 150.933594 51.414062 150.339844 52.035156 C 148.761719 53.683594 147.789062 55.621094 147.757812 57.984375 C 148.9375 58.359375 149.488281 59.199219 149.902344 60.207031 C 150.675781 62.09375 150.566406 64.023438 150.28125 65.96875 C 150.160156 66.820312 150.023438 67.667969 149.902344 68.519531 C 149.835938 68.972656 150.011719 69.222656 150.679688 69.164062 Z M 147.90625 77.625 C 148.660156 77.242188 148.710938 76.746094 148.753906 76.160156 C 148.960938 73.488281 149.234375 70.824219 149.472656 68.15625 C 149.628906 66.390625 149.800781 64.625 149.902344 62.855469 C 149.972656 61.640625 149.542969 60.511719 148.960938 59.476562 C 148.355469 58.40625 147.3125 58.386719 146.5625 59.375 C 145.644531 60.585938 144.898438 61.945312 144.710938 63.429688 C 144.367188 66.132812 144.152344 68.867188 144.742188 71.578125 C 144.882812 72.238281 144.996094 72.945312 145.667969 73.632812 C 145.738281 72.210938 145.800781 71.023438 145.859375 69.835938 C 146.167969 71.820312 145.699219 73.972656 147.335938 75.671875 C 147.261719 74.699219 147.191406 73.765625 147.121094 72.828125 C 147.183594 72.824219 147.25 72.816406 147.3125 72.8125 C 147.503906 74.367188 147.695312 75.921875 147.90625 77.625 Z M 157.652344 87.734375 C 158.710938 87.019531 159.734375 86.425781 160.640625 85.691406 C 162.511719 84.175781 164.359375 82.628906 166.144531 81.007812 C 167.691406 79.601562 168.757812 77.875 169.054688 75.742188 C 169.253906 74.277344 168.625 73.5 167.195312 73.332031 C 166.152344 73.207031 165.339844 73.667969 164.558594 74.226562 C 163.824219 74.757812 163.117188 75.328125 162.425781 75.914062 C 161.199219 76.945312 159.984375 77.988281 160.171875 79.84375 C 160.195312 80.105469 160.097656 80.382812 160.027344 80.644531 C 159.410156 82.9375 159.183594 85.367188 157.65625 87.339844 C 157.617188 87.390625 157.652344 87.503906 157.652344 87.734375 Z M 160.519531 68.433594 C 160.847656 68.308594 161.242188 68.070312 161.324219 68.148438 C 161.667969 68.476562 161.867188 68.300781 162.128906 68.078125 C 164.859375 65.753906 167.640625 63.480469 170.320312 61.097656 C 171.976562 59.628906 173.132812 57.777344 173.800781 55.644531 C 174.054688 54.828125 173.90625 54.09375 173.296875 53.511719 C 172.742188 52.988281 172.070312 53.023438 171.382812 53.265625 C 169.445312 53.949219 167.550781 54.730469 166.078125 56.21875 C 165.089844 57.214844 164.207031 58.3125 163.242188 59.332031 C 162.714844 59.890625 162.515625 60.53125 162.40625 61.28125 C 162.253906 62.355469 162.007812 63.421875 161.726562 64.472656 C 161.375 65.773438 160.941406 67.054688 160.519531 68.433594 Z M 158.730469 66.40625 C 158.773438 67.277344 158.820312 68.148438 158.863281 69.023438 C 158.957031 69.050781 159.046875 69.078125 159.140625 69.109375 C 159.410156 68.773438 159.78125 68.476562 159.933594 68.09375 C 161.121094 65.085938 162.171875 62.039062 161.8125 58.71875 C 161.761719 58.234375 161.613281 57.734375 161.390625 57.300781 C 160.972656 56.484375 160.03125 56.246094 159.328125 56.839844 C 158.824219 57.261719 158.390625 57.824219 158.078125 58.410156 C 157.121094 60.199219 157.394531 62.117188 157.675781 64.011719 C 157.878906 65.363281 158.027344 66.703125 157.707031 68.058594 C 157.601562 68.496094 157.613281 68.953125 157.585938 69.402344 C 157.582031 69.472656 157.660156 69.546875 157.746094 69.695312 C 157.96875 69.601562 158.203125 69.5 158.421875 69.410156 C 158.394531 68.816406 158.304688 68.273438 158.367188 67.746094 C 158.417969 67.296875 158.125 66.714844 158.730469 66.40625 Z M 146.976562 89.460938 C 146.972656 90.484375 146.429688 91.507812 146.933594 92.714844 C 147.25 92.132812 147.488281 91.691406 147.726562 91.257812 C 147.679688 91.796875 147.628906 92.339844 147.554688 93.191406 C 147.953125 92.09375 147.953125 92.09375 147.703125 91.285156 C 147.734375 90.890625 147.839844 90.484375 147.773438 90.105469 C 147.691406 89.636719 147.824219 88.996094 147.097656 88.855469 C 147.097656 88.644531 147.097656 88.433594 147.097656 88.039062 C 146.632812 88.539062 146.476562 88.949219 146.636719 89.453125 C 146.644531 89.488281 146.859375 89.457031 146.976562 89.460938 Z M 143.945312 92.179688 C 143.957031 93.023438 143.957031 93.023438 144.722656 93.394531 C 144.601562 93.128906 144.464844 92.832031 144.328125 92.53125 C 145.15625 92.171875 144.542969 91.421875 144.867188 90.929688 C 144.234375 90.4375 143.652344 90.105469 142.796875 90.066406 C 143.230469 90.863281 143.585938 91.519531 143.945312 92.179688 Z M 157.53125 88.886719 C 157.804688 88.65625 157.824219 88.472656 157.464844 88.304688 C 156.503906 87.855469 155.160156 88.285156 154.128906 89.550781 C 155.207031 89.269531 156.046875 89.03125 156.898438 88.835938 C 157.105469 88.789062 157.34375 88.890625 157.566406 88.921875 C 156.71875 89.441406 155.871094 89.964844 155.019531 90.484375 C 156.222656 90.472656 157.058594 89.9375 157.53125 88.886719 Z M 154.851562 67.640625 C 155.636719 67.421875 155.84375 67.152344 155.96875 66.164062 C 155.597656 66.65625 155.226562 67.148438 154.855469 67.640625 C 154.757812 68.082031 154.664062 68.523438 154.566406 68.964844 C 154.660156 68.96875 154.757812 68.976562 154.851562 68.984375 C 154.851562 68.535156 154.851562 68.089844 154.851562 67.640625 Z M 152.890625 78.511719 C 152.640625 78.59375 152.394531 78.671875 152.121094 78.761719 C 151.222656 77.464844 152.117188 76.007812 151.523438 74.660156 C 151.429688 74.972656 151.304688 75.28125 151.25 75.601562 C 151.128906 76.316406 151.101562 77.050781 150.9375 77.757812 C 150.550781 79.402344 150.5 81.070312 150.445312 82.746094 C 150.425781 83.414062 150.292969 84.082031 150.140625 84.734375 C 150.089844 84.945312 149.816406 85.101562 149.570312 85.359375 C 150.605469 86.917969 150.386719 88.679688 150.269531 90.453125 C 150.136719 92.496094 150.117188 94.546875 150.074219 96.59375 C 150.0625 97.148438 150.101562 97.6875 149.4375 98.152344 C 148.832031 97.363281 148.222656 96.570312 147.613281 95.78125 C 147.539062 95.828125 147.464844 95.882812 147.390625 95.933594 C 148.03125 96.894531 148.628906 97.886719 149.332031 98.800781 C 149.695312 99.269531 149.835938 99.726562 149.839844 100.292969 C 149.847656 102.339844 149.917969 104.390625 149.898438 106.4375 C 149.863281 110.644531 150.523438 114.777344 151.128906 118.917969 C 151.480469 121.300781 151.933594 123.667969 152.265625 126.050781 C 152.351562 126.683594 152.167969 127.355469 152.105469 128.070312 C 151.195312 127.980469 150.757812 127.410156 150.351562 126.820312 C 148.648438 124.351562 146.863281 121.933594 145.285156 119.390625 C 143.558594 116.613281 141.320312 114.296875 139.042969 112.011719 C 138.566406 111.53125 137.820312 111.238281 137.148438 111.058594 C 136.355469 110.851562 135.992188 111.230469 135.933594 112.078125 C 135.851562 113.304688 136.25 114.421875 136.785156 115.480469 C 137.902344 117.707031 139.539062 119.527344 141.296875 121.261719 C 143.644531 123.570312 146.34375 125.429688 149.003906 127.335938 C 149.996094 128.050781 150.949219 128.824219 151.871094 129.625 C 152.109375 129.828125 152.207031 130.230469 152.289062 130.5625 C 153.074219 133.691406 153.644531 136.886719 154.65625 139.9375 C 156.316406 144.9375 158.070312 149.914062 160.253906 154.722656 C 161.8125 158.15625 163.269531 161.640625 164.941406 165.015625 C 166.453125 168.066406 168.199219 171.003906 169.835938 173.992188 C 170.050781 174.382812 170.222656 174.792969 170.464844 175.300781 C 169.546875 175.5625 168.800781 175.617188 167.945312 175.269531 C 165.296875 174.183594 162.574219 173.28125 159.949219 172.148438 C 157.664062 171.160156 155.460938 169.976562 153.242188 168.839844 C 149.925781 167.140625 146.65625 165.351562 143.308594 163.714844 C 141.597656 162.875 139.714844 162.457031 137.800781 162.269531 C 136.816406 162.171875 135.898438 162.359375 135.078125 162.925781 C 134.308594 163.460938 134.1875 163.972656 134.679688 164.792969 C 134.910156 165.179688 135.210938 165.523438 135.503906 165.871094 C 138.160156 169 141.425781 171.226562 145.328125 172.503906 C 147.480469 173.210938 149.613281 174.019531 151.808594 174.566406 C 156.242188 175.671875 160.777344 175.976562 165.335938 176.042969 C 166.609375 176.0625 167.878906 176.175781 169.148438 176.25 C 169.804688 176.289062 170.371094 176.503906 170.835938 177.019531 C 171.246094 177.476562 171.734375 177.863281 172.269531 178.355469 C 172.03125 178.453125 171.886719 178.554688 171.730469 178.574219 C 169.066406 178.941406 166.707031 180.148438 164.316406 181.253906 C 161.597656 182.511719 158.828125 183.6875 156.207031 185.132812 C 151.90625 187.5 148.171875 190.613281 145.039062 194.414062 C 144.007812 195.664062 143.308594 197.082031 143.230469 198.746094 C 143.214844 199.105469 143.214844 199.472656 143.257812 199.832031 C 143.445312 201.339844 143.882812 201.636719 145.328125 201.242188 C 148.167969 200.46875 150.53125 198.839844 152.644531 196.890625 C 156.820312 193.035156 160.902344 189.074219 165.035156 185.171875 C 167.25 183.085938 169.5 181.035156 171.839844 178.875 C 172.285156 179.261719 172.707031 179.484375 172.914062 179.839844 C 174.164062 181.953125 175.363281 184.097656 176.570312 186.234375 C 176.628906 186.34375 176.613281 186.496094 176.65625 186.773438 C 175.980469 186.957031 175.273438 187.078125 174.617188 187.339844 C 171.992188 188.378906 169.460938 189.574219 167.183594 191.3125 C 164.679688 193.222656 162.25 195.1875 160.296875 197.6875 C 158.574219 199.886719 156.984375 202.152344 156.554688 205.007812 C 156.488281 205.445312 156.46875 205.929688 156.582031 206.347656 C 156.847656 207.304688 157.496094 207.566406 158.472656 207.3125 C 160.773438 206.71875 162.34375 205.109375 163.722656 203.359375 C 165.292969 201.363281 166.667969 199.210938 168.125 197.121094 C 170.289062 194.011719 172.640625 191.070312 175.667969 188.738281 C 176.058594 188.433594 176.417969 188.089844 176.890625 187.675781 C 177.164062 187.949219 177.441406 188.167969 177.644531 188.4375 C 181.933594 194.183594 185.582031 200.296875 188.136719 207.023438 C 188.269531 207.375 188.324219 207.820312 188.242188 208.183594 C 187.574219 211.292969 186.820312 214.382812 186.191406 217.496094 C 185.839844 219.230469 185.628906 220.992188 185.441406 222.753906 C 185.046875 226.457031 184.648438 230.167969 184.375 233.882812 C 184.164062 236.730469 184.117188 239.59375 184.039062 242.453125 C 184 243.90625 184.027344 245.363281 184.066406 246.820312 C 184.128906 249.359375 184.082031 251.914062 184.34375 254.4375 C 184.660156 257.503906 185.25 260.539062 185.726562 263.589844 C 185.761719 263.8125 185.828125 264.03125 185.878906 264.253906 C 186.410156 266.597656 186.863281 268.964844 187.492188 271.285156 C 188.179688 273.820312 189.027344 276.3125 189.808594 278.820312 C 189.90625 279.140625 190.246094 279.472656 189.621094 279.8125 C 189.503906 279.609375 189.347656 279.414062 189.277344 279.191406 C 188.652344 277.152344 187.992188 275.117188 187.433594 273.058594 C 186.761719 270.566406 185.917969 268.121094 185.574219 265.539062 C 185.320312 263.601562 184.78125 261.703125 184.546875 259.765625 C 184.277344 257.570312 183.574219 255.417969 183.828125 253.160156 C 183.871094 252.765625 183.734375 252.351562 183.679688 251.945312 C 183.59375 251.269531 183.445312 250.59375 183.441406 249.917969 C 183.414062 246.414062 183.332031 242.90625 183.457031 239.410156 C 183.570312 236.328125 183.914062 233.253906 184.191406 230.179688 C 184.480469 226.972656 184.804688 223.765625 185.125 220.5625 C 185.398438 217.792969 185.941406 215.078125 186.671875 212.398438 C 187.054688 210.996094 187.398438 209.582031 187.691406 208.160156 C 187.769531 207.796875 187.667969 207.351562 187.527344 206.988281 C 185.65625 202.140625 183.296875 197.535156 180.417969 193.210938 C 179.363281 191.625 178.160156 190.140625 176.984375 188.550781 C 175.832031 189.0625 174.972656 189.941406 174.089844 190.765625 C 171.402344 193.261719 169.308594 196.238281 167.261719 199.253906 C 165.957031 201.167969 164.554688 203.015625 163.140625 204.851562 C 162.027344 206.292969 160.519531 207.226562 158.8125 207.832031 C 157.226562 208.394531 155.808594 207.375 155.957031 205.671875 C 156.046875 204.644531 156.339844 203.609375 156.703125 202.640625 C 157.789062 199.722656 159.734375 197.355469 161.890625 195.195312 C 165.316406 191.761719 169.1875 188.917969 173.710938 187.054688 C 174.414062 186.765625 175.148438 186.5625 176.035156 186.261719 C 174.777344 184.09375 173.550781 181.984375 172.230469 179.714844 C 171.53125 180.164062 170.921875 180.460938 170.429688 180.886719 C 168.78125 182.316406 167.15625 183.773438 165.558594 185.261719 C 163.398438 187.28125 161.269531 189.328125 159.128906 191.371094 C 156.992188 193.410156 154.894531 195.488281 152.726562 197.492188 C 150.558594 199.488281 148.082031 201 145.230469 201.824219 C 143.816406 202.238281 143.039062 201.769531 142.75 200.328125 C 142.355469 198.378906 142.933594 196.601562 144.042969 195.046875 C 144.964844 193.761719 146.015625 192.546875 147.136719 191.429688 C 151.652344 186.9375 157.039062 183.777344 162.871094 181.320312 C 164.375 180.683594 165.835938 179.941406 167.34375 179.308594 C 168.425781 178.855469 169.546875 178.496094 170.855469 178.023438 C 170.558594 177.699219 170.382812 177.355469 170.117188 177.253906 C 169.53125 177.027344 168.90625 176.832031 168.285156 176.785156 C 164.839844 176.527344 161.386719 176.34375 157.941406 176.070312 C 156.722656 175.972656 155.519531 175.695312 154.308594 175.5 C 149.597656 174.746094 145.171875 173.160156 140.941406 170.988281 C 138.503906 169.738281 136.609375 167.847656 134.835938 165.820312 C 134.234375 165.136719 133.527344 164.390625 134 163.402344 C 134.464844 162.433594 135.429688 161.96875 136.445312 161.894531 C 137.519531 161.816406 138.628906 161.863281 139.6875 162.050781 C 142.445312 162.542969 144.964844 163.703125 147.410156 165.035156 C 150.839844 166.910156 154.230469 168.855469 157.707031 170.625 C 159.441406 171.507812 161.332031 172.082031 163.15625 172.78125 C 164.683594 173.363281 166.210938 173.933594 167.753906 174.476562 C 168.285156 174.664062 168.855469 174.75 169.726562 174.953125 C 169.042969 173.707031 168.542969 172.75 168.003906 171.816406 C 164.578125 165.855469 161.625 159.664062 159.078125 153.277344 C 158.097656 150.832031 157.167969 148.363281 156.191406 145.914062 C 154.503906 141.6875 153.242188 137.332031 152.304688 132.886719 C 151.859375 130.777344 150.761719 129.328125 149.015625 128.140625 C 145.78125 125.9375 142.636719 123.597656 139.9375 120.730469 C 138.242188 118.929688 136.722656 116.992188 135.851562 114.652344 C 135.527344 113.785156 135.410156 112.804688 135.382812 111.867188 C 135.351562 110.867188 135.957031 110.40625 136.964844 110.433594 C 138.089844 110.460938 138.945312 111.019531 139.707031 111.785156 C 142.5 114.601562 144.988281 117.644531 147.03125 121.078125 C 148.230469 123.09375 149.792969 124.890625 151.191406 126.785156 C 151.285156 126.761719 151.378906 126.738281 151.472656 126.714844 C 151.507812 126.359375 151.621094 125.988281 151.570312 125.644531 C 151.269531 123.527344 150.953125 121.414062 150.605469 119.304688 C 149.695312 113.816406 149.210938 108.296875 149.339844 102.730469 C 149.351562 102.277344 149.328125 101.820312 149.308594 101.367188 C 149.257812 100.222656 149.117188 99.125 148.265625 98.226562 C 147.925781 97.871094 147.675781 97.414062 147.460938 96.964844 C 146.871094 95.753906 146.136719 94.761719 144.769531 94.289062 C 143.484375 93.84375 142.960938 92.640625 142.636719 91.449219 C 142.273438 90.105469 141.660156 88.988281 140.75 87.90625 C 138.347656 85.046875 136.902344 81.757812 136.96875 77.933594 C 136.980469 77.226562 136.832031 76.417969 137.6875 76.023438 C 138.601562 75.605469 139.269531 76.125 139.867188 76.707031 C 140.546875 77.363281 141.167969 78.078125 141.835938 78.796875 C 142.0625 77.980469 142.335938 77.21875 142.457031 76.429688 C 142.507812 76.09375 142.332031 75.621094 142.097656 75.351562 C 141.054688 74.136719 140.496094 72.695312 140.226562 71.164062 C 140.105469 70.492188 140.246094 69.714844 140.476562 69.054688 C 140.8125 68.085938 141.511719 67.875 142.449219 68.324219 C 142.851562 68.515625 143.21875 68.777344 143.746094 69.097656 C 143.773438 68.660156 143.804688 68.328125 143.816406 67.996094 C 143.882812 65.816406 143.847656 63.621094 144.675781 61.546875 C 145.167969 60.316406 145.792969 59.175781 146.777344 58.242188 C 147.023438 58.007812 147.121094 57.546875 147.164062 57.175781 C 147.398438 55.105469 148.273438 53.339844 149.6875 51.847656 C 150.703125 50.773438 151.816406 50.8125 152.695312 51.988281 C 153.058594 52.476562 153.304688 53.117188 153.402344 53.71875 C 153.648438 55.242188 153.78125 56.78125 153.976562 58.441406 C 155.214844 57.898438 156.304688 57.078125 157.671875 57.714844 C 158.359375 56.597656 159.210938 55.761719 160.574219 56.089844 C 162.035156 56.441406 162.21875 57.746094 162.519531 59.136719 C 162.828125 58.824219 163.097656 58.621094 163.277344 58.359375 C 165.082031 55.683594 167.703125 54.101562 170.589844 52.867188 C 170.796875 52.78125 171.023438 52.738281 171.246094 52.683594 C 173.371094 52.167969 174.867188 53.722656 174.273438 55.824219 C 173.742188 57.703125 172.816406 59.363281 171.398438 60.699219 C 169.742188 62.25 168.027344 63.738281 166.324219 65.242188 C 165.503906 65.960938 164.65625 66.652344 163.820312 67.355469 C 163.300781 67.796875 162.726562 68.183594 162.898438 69.035156 C 162.9375 69.238281 162.730469 69.558594 162.550781 69.726562 C 161.082031 71.085938 159.640625 72.488281 157.535156 72.855469 C 157.203125 72.914062 156.839844 73.253906 156.640625 73.5625 C 155.191406 75.8125 153.761719 78.082031 152.367188 80.371094 C 152.117188 80.78125 151.960938 81.296875 151.925781 81.777344 C 151.683594 85.082031 151.484375 88.390625 151.277344 91.699219 C 151.253906 92.039062 151.273438 92.378906 151.464844 92.785156 C 151.960938 92 152.507812 91.238281 152.933594 90.414062 C 153.105469 90.089844 153.113281 89.605469 153.027344 89.234375 C 152.785156 88.152344 153.007812 87.164062 153.441406 86.191406 C 153.792969 85.402344 153.96875 84.414062 154.554688 83.882812 C 155.785156 82.769531 155.605469 81.214844 156.171875 79.914062 C 156.550781 79.042969 157.027344 78.207031 157.542969 77.40625 C 158.136719 76.488281 158.546875 76.429688 159.46875 76.984375 C 159.65625 77.097656 159.8125 77.265625 159.90625 77.34375 C 161.34375 76.171875 162.734375 75.027344 164.132812 73.898438 C 165.1875 73.046875 166.363281 72.722656 167.710938 73.023438 C 169.019531 73.316406 169.679688 74.085938 169.617188 75.433594 C 169.539062 77.082031 168.917969 78.578125 167.847656 79.777344 C 165.605469 82.296875 163.140625 84.585938 160.320312 86.46875 C 159.832031 86.796875 159.351562 87.144531 158.902344 87.523438 C 158.699219 87.691406 158.421875 87.980469 158.449219 88.175781 C 158.625 89.429688 157.617188 89.820312 156.910156 90.460938 C 156.113281 91.1875 155.253906 91.5625 154.148438 91.1875 C 152.945312 92.804688 152.035156 94.515625 151.339844 96.351562 C 151.261719 96.558594 151.207031 96.792969 151.210938 97.015625 C 151.261719 100.425781 151.320312 103.835938 151.386719 107.242188 C 151.398438 107.746094 151.484375 108.242188 151.480469 108.742188 C 151.453125 112.671875 152.117188 116.53125 152.554688 120.414062 C 153.011719 124.484375 153.691406 128.511719 154.550781 132.507812 C 154.824219 133.785156 155.195312 135.042969 155.738281 136.269531 C 155.652344 135.152344 155.5625 134.03125 155.480469 132.914062 C 155.222656 129.359375 155.324219 125.804688 156.183594 122.339844 C 156.761719 120.007812 157.578125 117.726562 158.957031 115.695312 C 159.667969 114.652344 160.554688 113.96875 161.855469 113.949219 C 162.945312 113.933594 163.621094 114.414062 163.757812 115.496094 C 163.917969 116.753906 164.023438 118.035156 163.972656 119.300781 C 163.859375 122.238281 163.074219 125.03125 162.019531 127.769531 C 161.339844 129.546875 160.742188 131.363281 160.21875 133.195312 C 159.53125 135.59375 158.957031 138.023438 158.328125 140.433594 C 158.285156 140.601562 158.21875 140.792969 158.101562 140.914062 C 157.441406 141.625 157.605469 142.394531 157.867188 143.199219 C 158.285156 144.492188 158.640625 145.804688 159.089844 147.085938 C 159.875 149.3125 160.628906 151.5625 161.550781 153.730469 C 162.78125 156.617188 164.070312 159.480469 165.492188 162.273438 C 167.246094 165.714844 169.160156 169.078125 171.011719 172.472656 C 171.109375 172.648438 171.28125 172.785156 171.542969 173.082031 C 171.703125 171.46875 171.820312 170.039062 171.992188 168.617188 C 172.410156 165.21875 173.207031 161.90625 174.460938 158.71875 C 175.164062 156.921875 176.191406 155.347656 177.617188 153.996094 C 178.703125 152.96875 180.125 153.460938 180.621094 154.429688 C 180.984375 155.136719 181.25 155.960938 181.292969 156.746094 C 181.429688 159.417969 180.976562 161.984375 179.90625 164.46875 C 178.105469 168.644531 176.441406 172.878906 174.644531 177.050781 C 174.171875 178.144531 174.304688 179.050781 174.847656 180.011719 C 175.230469 180.683594 175.554688 181.386719 175.929688 182.0625 C 176.113281 182.394531 176.351562 182.703125 176.640625 183.132812 C 177.019531 181.1875 177.34375 179.421875 177.707031 177.664062 C 178.683594 172.933594 180.828125 168.765625 183.871094 165.042969 C 184.6875 164.039062 185.636719 163.207031 186.796875 162.632812 C 187.902344 162.082031 188.554688 162.265625 189.171875 163.335938 C 189.921875 164.640625 189.898438 166.058594 189.613281 167.453125 C 189.105469 169.894531 187.941406 172.074219 186.585938 174.128906 C 184.882812 176.707031 183.039062 179.191406 181.289062 181.738281 C 180.464844 182.9375 179.710938 184.183594 178.9375 185.414062 C 178.617188 185.921875 178.65625 186.390625 179.019531 186.914062 C 182.515625 191.964844 185.707031 197.199219 188.554688 202.640625 C 188.636719 202.792969 188.75 202.925781 188.957031 203.214844 C 189.101562 202.800781 189.210938 202.535156 189.28125 202.253906 C 190.171875 198.730469 190.960938 195.179688 191.96875 191.691406 C 193.125 187.671875 194.449219 183.703125 195.742188 179.730469 C 197.089844 175.578125 198.476562 171.4375 199.867188 167.300781 C 200.605469 165.105469 201.457031 162.941406 202.128906 160.726562 C 202.71875 158.769531 203.132812 156.761719 203.609375 154.773438 C 203.722656 154.304688 203.578125 154 203.160156 153.632812 C 200.734375 151.496094 197.742188 150.335938 194.964844 148.8125 C 191.902344 147.125 189.257812 144.945312 186.992188 142.289062 C 185.542969 140.589844 185.128906 138.46875 184.703125 136.378906 C 184.511719 135.449219 185 134.617188 185.925781 134.328125 C 186.769531 134.0625 187.707031 133.847656 188.570312 133.9375 C 190.757812 134.164062 192.609375 135.226562 194.285156 136.625 C 196.625 138.574219 198.410156 140.953125 199.9375 143.570312 C 201.214844 145.765625 202.589844 147.910156 203.902344 150.089844 C 204.265625 150.691406 204.554688 151.335938 205.027344 152.242188 C 205.566406 150.929688 205.980469 149.894531 206.417969 148.867188 C 206.808594 147.941406 206.964844 147.109375 206.582031 146.039062 C 205.109375 141.878906 203.511719 137.773438 201.6875 133.757812 C 199.996094 130.027344 198.199219 126.363281 196.113281 122.832031 C 192.609375 116.890625 188.523438 111.398438 183.863281 106.324219 C 182.457031 104.796875 180.625 103.9375 178.78125 103.253906 C 175.976562 102.207031 173.058594 101.472656 170.191406 100.605469 C 166.757812 99.570312 164.09375 97.613281 162.699219 94.207031 C 161.914062 92.285156 163.023438 90.453125 165.082031 90.253906 C 167.046875 90.066406 168.855469 90.652344 170.609375 91.457031 C 173.15625 92.628906 175.273438 94.445312 177.433594 96.167969 C 180.46875 98.585938 183.226562 101.277344 185.214844 104.671875 C 185.554688 105.246094 186.070312 105.714844 186.730469 106.113281 C 186.480469 105.507812 186.261719 104.894531 185.984375 104.300781 C 184.539062 101.214844 183.042969 98.148438 181.632812 95.042969 C 180.722656 93.03125 180.238281 90.90625 180.457031 88.671875 C 180.507812 88.179688 180.578125 87.667969 180.769531 87.21875 C 181.589844 85.292969 183.582031 84.972656 185.070312 86.449219 C 186.796875 88.164062 187.511719 90.351562 188.078125 92.617188 C 189.34375 97.667969 190.019531 102.816406 190.011719 108.003906 C 190.007812 109.8125 190.292969 111.261719 191.433594 112.605469 C 191.835938 113.078125 192.121094 113.652344 192.613281 114.109375 C 192.277344 112.261719 192.019531 110.398438 191.59375 108.574219 C 190.996094 106.039062 191.148438 103.523438 191.515625 100.988281 C 191.726562 99.554688 191.71875 98.0625 192.519531 96.78125 C 192.875 96.210938 193.277344 95.628906 193.78125 95.191406 C 194.75 94.347656 195.648438 94.457031 196.527344 95.394531 C 197.910156 96.871094 198.359375 98.722656 198.484375 100.652344 C 198.652344 103.167969 198.046875 105.621094 197.761719 108.105469 C 197.40625 111.230469 196.738281 114.285156 195.859375 117.300781 C 195.800781 117.503906 195.75 117.777344 195.839844 117.9375 C 196.453125 119.03125 197.105469 120.105469 197.921875 121.480469 C 198.132812 119.574219 198.351562 118.015625 198.476562 116.445312 C 198.757812 112.882812 199.410156 109.417969 200.945312 106.15625 C 201.746094 104.449219 202.734375 102.886719 204.25 101.707031 C 205.3125 100.882812 206.425781 100.859375 207.5625 101.503906 C 208.550781 102.066406 208.894531 103.078125 208.800781 104.074219 C 208.636719 105.828125 208.351562 107.585938 207.925781 109.296875 C 207.394531 111.433594 206.230469 113.304688 205.089844 115.171875 C 203.199219 118.277344 201.339844 121.398438 199.433594 124.5625 C 199.835938 125.285156 200.246094 126.015625 200.792969 127.003906 C 201.121094 126.246094 201.332031 125.761719 201.539062 125.277344 C 202.929688 121.953125 204.5625 118.765625 206.648438 115.8125 C 208.335938 113.425781 210.703125 112.226562 213.453125 111.648438 C 215.171875 111.292969 216.425781 112.328125 216.476562 114.066406 C 216.539062 116.308594 215.714844 118.257812 214.378906 119.988281 C 212.917969 121.878906 211.097656 123.40625 209.105469 124.699219 C 206.816406 126.175781 204.480469 127.574219 202.15625 128.988281 C 202.035156 129.0625 201.816406 128.976562 201.644531 128.964844 L 201.675781 128.988281 C 201.523438 128.671875 201.476562 128.394531 201.871094 128.195312 C 202.394531 127.921875 202.886719 127.59375 203.414062 127.332031 C 206.648438 125.734375 209.695312 123.859375 212.339844 121.371094 C 213.972656 119.835938 215.085938 117.992188 215.6875 115.84375 C 215.832031 115.324219 215.875 114.765625 215.882812 114.222656 C 215.890625 112.773438 215.050781 112.035156 213.605469 112.273438 C 210.835938 112.738281 208.59375 114.058594 206.957031 116.394531 C 204.957031 119.242188 203.503906 122.371094 202.089844 125.523438 C 201.714844 126.363281 201.769531 127.40625 200.777344 128.128906 C 199.964844 126.949219 199.230469 125.753906 199.074219 124.289062 C 199.042969 124.007812 199.15625 123.660156 199.308594 123.410156 C 201.140625 120.429688 202.964844 117.445312 204.84375 114.492188 C 206.328125 112.160156 207.367188 109.652344 207.90625 106.953125 C 208.132812 105.804688 208.375 104.664062 208.15625 103.441406 C 207.847656 101.707031 206.230469 101.160156 204.835938 102.078125 C 203.550781 102.921875 202.65625 104.140625 201.96875 105.488281 C 200.441406 108.472656 199.507812 111.628906 199.269531 114.996094 C 199.128906 116.992188 198.871094 118.980469 198.660156 120.96875 C 198.625 121.285156 198.617188 121.617188 198.503906 121.90625 C 198.417969 122.121094 198.210938 122.351562 198.003906 122.429688 C 197.878906 122.476562 197.566406 122.292969 197.476562 122.136719 C 196.734375 120.78125 195.972656 119.429688 195.324219 118.03125 C 195.140625 117.628906 195.1875 117.023438 195.339844 116.585938 C 196.875 112.164062 197.265625 107.53125 197.871094 102.941406 C 198.085938 101.316406 197.972656 99.652344 197.335938 98.105469 C 197.015625 97.320312 196.582031 96.554688 196.074219 95.871094 C 195.414062 94.984375 194.828125 94.980469 194.039062 95.742188 C 193.199219 96.558594 192.683594 97.582031 192.449219 98.707031 C 192.210938 99.863281 192.15625 101.054688 191.945312 102.214844 C 191.425781 105.117188 192.066406 107.921875 192.636719 110.726562 C 192.929688 112.191406 193.34375 113.636719 193.695312 115.09375 C 193.777344 115.429688 193.824219 115.777344 193.886719 116.113281 C 193.199219 116.320312 192.945312 115.859375 192.695312 115.527344 C 192.203125 114.875 191.78125 114.171875 191.328125 113.488281 C 190.851562 112.773438 190.425781 112.015625 189.890625 111.351562 C 189.214844 110.519531 189.167969 109.65625 189.226562 108.613281 C 189.34375 106.582031 189.308594 104.527344 189.132812 102.5 C 188.832031 99.011719 188.292969 95.550781 187.34375 92.167969 C 186.824219 90.3125 186.117188 88.550781 184.808594 87.089844 C 184.230469 86.441406 183.570312 85.953125 182.667969 86.199219 C 181.722656 86.460938 181.253906 87.21875 181.203125 88.140625 C 181.136719 89.3125 181.050781 90.515625 181.25 91.65625 C 181.648438 93.960938 182.746094 96.015625 183.765625 98.105469 C 185.261719 101.167969 186.613281 104.296875 188.015625 107.402344 C 188.066406 107.515625 188.023438 107.667969 188.023438 107.839844 C 187.539062 108.238281 187.140625 108.136719 186.78125 107.652344 C 185.667969 106.164062 184.542969 104.683594 183.445312 103.1875 C 181.214844 100.152344 178.40625 97.710938 175.445312 95.425781 C 174.6875 94.84375 173.921875 94.273438 173.167969 93.683594 C 171.105469 92.074219 168.734375 91.210938 166.171875 90.847656 C 164.492188 90.609375 163.316406 91.351562 163.132812 92.800781 C 163.074219 93.261719 163.199219 93.792969 163.378906 94.234375 C 164.351562 96.59375 166.222656 98.074219 168.402344 99.226562 C 168.839844 99.457031 169.308594 99.644531 169.785156 99.78125 C 172.230469 100.476562 174.734375 101 177.117188 101.867188 C 179.238281 102.636719 181.234375 103.761719 183.265625 104.773438 C 183.660156 104.96875 184.015625 105.308594 184.292969 105.65625 C 187.148438 109.253906 190.203125 112.714844 192.765625 116.511719 C 195.480469 120.53125 198.167969 124.605469 200.101562 129.113281 C 201.441406 132.246094 202.972656 135.300781 204.304688 138.4375 C 205.28125 140.734375 205.941406 143.171875 206.984375 145.4375 C 207.753906 147.105469 207.636719 148.484375 206.65625 149.953125 C 206.316406 150.464844 206.21875 151.140625 206.003906 151.738281 C 205.832031 152.214844 205.648438 152.742188 205.058594 152.78125 C 204.382812 152.828125 204.207031 152.230469 203.96875 151.742188 C 201.933594 147.5625 199.5625 143.566406 196.71875 139.894531 C 194.742188 137.34375 192.261719 135.324219 189 134.582031 C 188.273438 134.414062 187.453125 134.421875 186.722656 134.574219 C 185.480469 134.839844 185.125 135.511719 185.367188 136.804688 C 185.933594 139.8125 187.390625 142.253906 189.667969 144.351562 C 192.878906 147.300781 196.75 149.082031 200.535156 151.0625 C 201.683594 151.664062 202.734375 152.480469 203.75 153.300781 C 204.203125 153.660156 204.34375 154.257812 204.203125 154.917969 C 203.339844 159.019531 202.117188 163.003906 200.625 166.929688 C 199.339844 170.324219 198.289062 173.808594 197.128906 177.253906 C 196.160156 180.132812 195.160156 183 194.214844 185.886719 C 193.746094 187.308594 193.347656 188.753906 192.964844 190.199219 C 192.046875 193.660156 191.144531 197.128906 190.261719 200.597656 C 190.046875 201.433594 189.890625 202.285156 189.769531 203.140625 C 189.683594 203.746094 189.359375 204.121094 188.785156 204.460938 C 188.269531 203.375 187.84375 202.273438 187.25 201.277344 C 184.644531 196.902344 182.074219 192.503906 179.324219 188.222656 C 177.484375 185.359375 177.617188 186.285156 179.390625 183.597656 C 181.34375 180.636719 183.5625 177.855469 185.515625 174.894531 C 186.683594 173.117188 187.609375 171.171875 188.542969 169.257812 C 189.148438 168.019531 189.367188 166.65625 189.257812 165.261719 C 189.226562 164.902344 189.203125 164.527344 189.097656 164.1875 C 188.660156 162.800781 187.820312 162.410156 186.628906 163.234375 C 185.636719 163.921875 184.734375 164.792969 183.9375 165.710938 C 181.230469 168.820312 179.527344 172.46875 178.550781 176.441406 C 178.019531 178.597656 177.664062 180.800781 177.273438 182.992188 C 177.1875 183.46875 177.308594 183.984375 177.308594 184.484375 C 177.308594 184.726562 177.234375 184.964844 177.152344 185.484375 C 176.875 185.046875 176.730469 184.855469 176.621094 184.644531 C 175.734375 182.902344 174.875 181.148438 173.957031 179.421875 C 173.609375 178.765625 173.519531 178.171875 173.820312 177.476562 C 174.457031 176.019531 175.03125 174.53125 175.648438 173.066406 C 176.992188 169.886719 178.390625 166.726562 179.683594 163.523438 C 180.597656 161.253906 180.84375 158.855469 180.75 156.417969 C 180.738281 156.148438 180.695312 155.871094 180.617188 155.613281 C 180.078125 153.867188 178.890625 153.570312 177.585938 154.851562 C 175.816406 156.59375 174.761719 158.765625 174.09375 161.101562 C 173.203125 164.207031 172.472656 167.359375 172.296875 170.601562 C 172.21875 172.101562 172.273438 173.605469 172.261719 175.105469 C 172.257812 175.304688 172.234375 175.503906 172.222656 175.632812 C 171.460938 174.328125 170.65625 173.039062 169.941406 171.699219 C 167.824219 167.730469 165.640625 163.792969 163.683594 159.746094 C 162.0625 156.394531 160.714844 152.910156 159.28125 149.472656 C 158.949219 148.679688 158.773438 147.828125 158.507812 147.007812 C 158.042969 145.582031 157.585938 144.15625 157.078125 142.746094 C 156.84375 142.097656 156.933594 141.519531 157.148438 140.894531 C 157.878906 138.746094 158.582031 136.589844 159.28125 134.429688 C 160.222656 131.535156 161.097656 128.617188 162.09375 125.738281 C 163.1875 122.585938 163.515625 119.359375 163.246094 116.058594 C 163.128906 114.613281 162.152344 114.101562 160.835938 114.742188 C 160.519531 114.894531 160.160156 115.109375 159.984375 115.394531 C 159.179688 116.703125 158.429688 118.042969 157.671875 119.378906 C 157.582031 119.53125 157.570312 119.730469 157.496094 119.894531 C 156.113281 122.910156 155.988281 126.128906 155.886719 129.367188 C 155.796875 132.292969 155.898438 135.179688 156.703125 138.015625 C 156.738281 138.136719 156.714844 138.285156 156.683594 138.414062 C 156.65625 138.539062 156.582031 138.65625 156.5 138.847656 C 155.949219 138.730469 155.691406 138.367188 155.542969 137.867188 C 154.957031 135.910156 154.234375 133.984375 153.808594 131.992188 C 153.199219 129.152344 152.742188 126.28125 152.339844 123.402344 C 151.886719 120.164062 151.53125 116.90625 151.195312 113.652344 C 150.621094 108.128906 150.605469 102.582031 150.570312 97.035156 C 150.566406 96.191406 151.390625 95.511719 150.726562 94.460938 C 150.316406 93.820312 150.636719 92.6875 150.691406 91.78125 C 150.863281 89.011719 151.066406 86.246094 151.257812 83.480469 C 151.277344 83.160156 151.316406 82.839844 151.292969 82.523438 C 151.214844 81.386719 151.457031 80.382812 152.292969 79.542969 C 152.5625 79.269531 152.675781 78.84375 152.859375 78.488281 C 153.144531 78.042969 153.429688 77.59375 153.714844 77.148438 C 154.261719 76.828125 154.492188 76.320312 154.433594 75.640625 C 154.179688 76.128906 153.925781 76.621094 153.671875 77.113281 C 153.410156 77.578125 153.152344 78.046875 152.890625 78.511719 " fill-opacity="1" fill-rule="nonzero"/></g><g clip-path="url(#390ddec4a1)"><path fill="#d9d9d9" d="M 222.796875 81.253906 C 222.882812 81.246094 222.964844 81.242188 223.046875 81.234375 C 222.984375 80.953125 222.9375 80.664062 222.847656 80.390625 C 222.824219 80.324219 222.648438 80.3125 222.394531 80.21875 C 222.5625 80.652344 222.679688 80.953125 222.796875 81.253906 Z M 227.3125 88.558594 C 226.671875 89.179688 226.027344 89.796875 225.386719 90.410156 C 226.589844 90.378906 227.035156 89.566406 227.3125 88.558594 Z M 221.980469 75.832031 C 221.703125 77.167969 221.726562 77.25 222.546875 78.054688 C 222.273438 77.398438 222.824219 76.582031 221.980469 75.832031 Z M 216.472656 70.109375 C 216.367188 70.144531 216.265625 70.183594 216.160156 70.222656 C 216.382812 70.832031 216.550781 71.46875 216.839844 72.046875 C 217.109375 72.589844 216.898438 73.523438 218.125 73.683594 C 217.71875 72.953125 217.386719 72.433594 217.132812 71.878906 C 216.871094 71.304688 216.691406 70.699219 216.472656 70.109375 Z M 215.148438 94.546875 C 215.96875 95.972656 216.6875 97.261719 218.453125 97.355469 C 217.390625 96.453125 216.347656 95.566406 215.148438 94.546875 Z M 223.492188 85.28125 C 223.441406 85.285156 223.390625 85.289062 223.335938 85.292969 C 223.4375 86.609375 223.535156 87.925781 223.652344 89.425781 C 224.1875 88.980469 224.597656 88.722656 224.394531 88.101562 C 224.089844 87.164062 223.792969 86.222656 223.492188 85.28125 Z M 224.824219 89.640625 C 226.425781 89.515625 226.675781 88.175781 227.472656 86.9375 C 226.011719 87.554688 225.492188 88.667969 224.824219 89.640625 Z M 228.191406 72.367188 C 229.175781 71.265625 229.398438 70.175781 229.164062 68.65625 C 228.472656 69.914062 227.554688 70.792969 228.191406 72.367188 Z M 226.90625 99.5 C 225.882812 98.433594 226.496094 97.199219 226.542969 95.789062 C 225.824219 96.839844 225.683594 97.832031 225.550781 98.800781 C 225.453125 99.527344 225.855469 99.734375 226.90625 99.5 Z M 218.324219 96.160156 C 217.535156 95.421875 216.804688 94.746094 216.074219 94.066406 C 216.136719 93.992188 216.199219 93.921875 216.257812 93.847656 C 216.902344 94.097656 217.226562 94.949219 218.105469 95.015625 C 217.335938 93.800781 216.386719 93.246094 215.042969 93.164062 C 217.292969 96.046875 217.292969 96.046875 218.324219 96.160156 Z M 219.101562 96.214844 C 219.457031 94.535156 219.753906 92.871094 219.273438 91.195312 C 218.605469 92.855469 218.410156 94.53125 219.101562 96.214844 Z M 224.863281 87.875 C 225.9375 87.035156 226.007812 86.929688 225.527344 86.054688 C 225.128906 85.328125 224.613281 84.667969 224.144531 83.976562 C 224.066406 84.023438 223.984375 84.066406 223.902344 84.113281 C 224.15625 85.347656 224.132812 86.644531 224.863281 87.875 Z M 219.839844 74.519531 C 220.214844 73.164062 220.25 73.128906 219.820312 72.714844 C 219.113281 72.03125 218.351562 71.402344 217.617188 70.75 C 217.804688 72.378906 218.710938 73.480469 219.839844 74.519531 Z M 219.800781 97.527344 C 221.234375 95.539062 221.222656 92.972656 220.089844 91.277344 C 220.003906 93.136719 219.910156 95.183594 219.800781 97.527344 Z M 231.761719 97.789062 C 230.449219 97.558594 230.242188 97.601562 228.121094 98.847656 C 227.78125 99.046875 227.578125 99.484375 227.3125 99.804688 C 229.082031 99.675781 230.582031 99.148438 231.761719 97.789062 Z M 222.050781 69.863281 C 224.226562 69.402344 224.621094 67.929688 223.230469 65.746094 C 222.824219 67.152344 222.453125 68.457031 222.050781 69.863281 Z M 227.0625 98.847656 C 228.390625 97.722656 228.941406 95.050781 228.175781 93.347656 C 227.75 95.21875 226.292969 96.765625 227.0625 98.847656 Z M 203.707031 163.328125 C 203.808594 163.367188 203.910156 163.410156 204.015625 163.453125 C 206.4375 159.703125 208.628906 155.796875 211.554688 152.347656 C 210.988281 152.355469 210.519531 152.484375 210.058594 152.625 C 209.539062 152.78125 209.03125 153.039062 208.503906 153.089844 C 207.601562 153.175781 207.074219 153.722656 206.785156 154.445312 C 205.820312 156.839844 204.910156 159.253906 204.019531 161.675781 C 203.828125 162.195312 203.804688 162.773438 203.707031 163.328125 Z M 226.59375 68.820312 C 226.789062 65.769531 227.371094 62.773438 227.183594 59.722656 C 227.15625 59.273438 227.050781 58.816406 226.898438 58.394531 C 226.59375 57.539062 226.191406 57.441406 225.476562 57.953125 C 224.464844 58.675781 224.121094 59.75 223.914062 60.886719 C 223.546875 62.945312 223.925781 64.929688 224.503906 66.910156 C 224.816406 67.972656 225.351562 68.664062 226.59375 68.820312 Z M 217.054688 69.90625 C 217.136719 69.820312 217.21875 69.734375 217.300781 69.648438 C 217.042969 68.929688 216.769531 68.214844 216.527344 67.492188 C 216.414062 67.152344 216.210938 66.726562 216.320312 66.445312 C 216.777344 65.238281 216.378906 64.019531 216.496094 62.820312 C 216.636719 61.394531 215.855469 60.425781 215.015625 59.472656 C 214.660156 59.070312 214.210938 58.746094 213.777344 58.414062 C 212.820312 57.679688 212.039062 57.984375 211.890625 59.207031 C 211.734375 60.523438 211.726562 61.851562 212.421875 63.050781 C 213.53125 64.96875 214.648438 66.886719 215.820312 68.761719 C 216.109375 69.21875 216.636719 69.527344 217.054688 69.90625 Z M 225.222656 78.503906 C 225.285156 78.515625 225.347656 78.523438 225.410156 78.535156 C 225.960938 77.363281 226.496094 76.183594 227.0625 75.019531 C 227.871094 73.371094 227.589844 71.746094 226.875 70.191406 C 226.503906 69.378906 225.730469 68.804688 224.785156 68.949219 C 223.894531 69.082031 223.476562 69.847656 223.234375 70.667969 C 223.171875 70.882812 223.136719 71.109375 223.09375 71.332031 C 222.855469 72.632812 222.972656 73.917969 223.019531 75.230469 C 223.109375 77.695312 223.527344 80.09375 223.910156 82.507812 C 223.945312 82.730469 224.078125 82.941406 224.199219 83.234375 C 225.171875 80.8125 224.855469 78.375 225.222656 75.996094 C 225.222656 76.832031 225.222656 77.667969 225.222656 78.503906 Z M 221.683594 100.0625 C 221.792969 100.019531 221.902344 99.976562 222.011719 99.9375 C 222.269531 96.5 222.53125 93.0625 222.785156 89.628906 C 222.796875 89.449219 222.785156 89.261719 222.742188 89.085938 C 222.238281 87.113281 222.5 85.117188 222.609375 83.128906 C 222.628906 82.71875 222.613281 82.421875 222.429688 82.015625 C 221.613281 80.207031 220.5 78.503906 220.238281 76.472656 C 220.226562 76.410156 220.054688 76.367188 219.945312 76.308594 C 219.90625 76.445312 219.847656 76.535156 219.863281 76.617188 C 220.273438 79.46875 220.246094 82.304688 219.664062 85.140625 C 219.421875 86.328125 219.347656 87.550781 219.207031 88.679688 C 219.511719 88.867188 219.675781 88.949219 219.816406 89.0625 C 219.921875 89.144531 220.027344 89.25 220.078125 89.367188 C 221.179688 91.945312 222.183594 94.523438 220.761719 97.335938 C 220.585938 97.683594 220.621094 98.234375 220.765625 98.613281 C 220.96875 99.136719 221.367188 99.582031 221.683594 100.0625 Z M 230.007812 96.320312 C 230.105469 96.390625 230.199219 96.464844 230.292969 96.539062 C 230.511719 96.257812 230.683594 95.890625 230.96875 95.726562 C 231.222656 95.582031 231.683594 95.78125 231.921875 95.621094 C 234.6875 93.804688 237.441406 91.949219 239.511719 89.304688 C 239.953125 88.746094 240.300781 88.074219 240.523438 87.398438 C 240.898438 86.269531 240.296875 85.441406 239.113281 85.265625 C 238.078125 85.109375 237.167969 85.460938 236.253906 85.898438 C 235.863281 86.082031 235.601562 86.265625 235.433594 86.671875 C 234.117188 89.863281 232.527344 92.90625 230.4375 95.667969 C 230.28125 95.878906 230.152344 96.105469 230.007812 96.320312 Z M 224.144531 57.996094 C 225.160156 57.753906 225.355469 57.164062 225.5 56.527344 C 226.019531 54.269531 226.609375 52.023438 227.035156 49.742188 C 227.308594 48.273438 227.425781 46.761719 227.457031 45.265625 C 227.492188 43.691406 226.355469 43.101562 224.972656 43.871094 C 223.722656 44.566406 222.640625 46.8125 222.84375 48.195312 C 223.042969 49.542969 223.210938 50.898438 223.351562 52.25 C 223.421875 52.957031 223.25 53.730469 223.484375 54.367188 C 223.675781 54.886719 223.550781 55.683594 224.328125 55.914062 C 224.269531 56.5625 224.214844 57.207031 224.144531 57.996094 Z M 204.785156 134.722656 C 205.117188 136.742188 207.742188 143.464844 208.464844 144.265625 C 209.699219 141.890625 211.949219 135.589844 212.257812 133.582031 C 209.710938 133.605469 207.222656 133.753906 204.785156 134.722656 Z M 222.742188 53.035156 C 222.742188 52.449219 222.789062 51.992188 222.734375 51.546875 C 222.550781 50.0625 222.394531 48.566406 222.097656 47.101562 C 221.785156 45.546875 221.382812 43.996094 220.339844 42.71875 C 219.699219 41.929688 219.191406 41.855469 218.609375 42.660156 C 218.171875 43.273438 217.871094 44.011719 217.644531 44.734375 C 217.082031 46.507812 217.292969 48.351562 217.46875 50.144531 C 217.589844 51.410156 218.113281 52.636719 218.484375 53.980469 C 219.230469 53.460938 219.808594 53.058594 220.390625 52.652344 C 220.285156 51.71875 220.179688 50.835938 220.078125 49.957031 C 220.101562 49.957031 220.125 49.957031 220.148438 49.957031 C 220.417969 50.847656 220.683594 51.734375 220.933594 52.566406 C 221.585938 52.734375 222.109375 52.871094 222.742188 53.035156 Z M 228.558594 97.246094 C 228.652344 97.304688 228.742188 97.363281 228.832031 97.417969 C 229.035156 97.226562 229.4375 96.980469 229.40625 96.847656 C 229.21875 96.125 229.691406 95.703125 230.0625 95.289062 C 231.699219 93.46875 232.734375 91.289062 233.84375 89.15625 C 234.386719 88.109375 234.902344 87.035156 235.285156 85.925781 C 235.824219 84.367188 236.066406 82.738281 235.859375 81.085938 C 235.707031 79.867188 235.15625 79.632812 234.097656 80.246094 C 232.835938 80.980469 232.183594 82.175781 231.757812 83.476562 C 230.765625 86.492188 229.855469 89.539062 228.917969 92.570312 C 228.742188 93.144531 228.804688 93.679688 229.257812 94.234375 C 229.699219 93.378906 230.097656 92.613281 230.496094 91.847656 C 230.566406 91.882812 230.636719 91.914062 230.707031 91.949219 C 229.992188 93.714844 229.273438 95.480469 228.558594 97.246094 Z M 214.253906 89.039062 C 213.9375 87.53125 213.46875 86.042969 213.351562 84.53125 C 213.265625 83.390625 212.851562 82.457031 212.363281 81.5 C 211.890625 80.570312 211.421875 79.632812 210.898438 78.734375 C 210.484375 78.035156 210 77.378906 209.519531 76.722656 C 209.152344 76.226562 208.621094 76.070312 208.066406 76.316406 C 207.542969 76.546875 207.21875 76.988281 207.234375 77.605469 C 207.253906 78.285156 207.226562 78.972656 207.316406 79.640625 C 207.652344 82.097656 208.5 84.398438 209.769531 86.515625 C 211.09375 88.734375 212.675781 90.761719 214.992188 92.207031 C 214.574219 91.179688 214.152344 90.15625 213.695312 89.039062 C 213.925781 89.039062 214.066406 89.039062 214.253906 89.039062 Z M 228.519531 67.964844 C 228.628906 68.027344 228.738281 68.089844 228.851562 68.148438 C 229.089844 67.855469 229.351562 67.574219 229.558594 67.261719 C 230.425781 65.929688 231.261719 64.582031 232.136719 63.253906 C 233.277344 61.523438 233.988281 59.609375 234.429688 57.613281 C 234.621094 56.761719 234.570312 55.792969 234.378906 54.929688 C 234.09375 53.640625 233.058594 53.179688 231.878906 53.777344 C 231.167969 54.136719 230.484375 54.636719 229.9375 55.214844 C 228.535156 56.6875 227.464844 58.292969 227.742188 60.53125 C 227.882812 61.683594 227.671875 62.878906 227.605469 64.058594 C 227.527344 65.417969 227.429688 66.777344 227.363281 68.136719 C 227.347656 68.410156 227.425781 68.691406 227.460938 68.96875 C 227.546875 68.976562 227.632812 68.980469 227.722656 68.988281 C 228.03125 67.882812 228.34375 66.78125 228.652344 65.679688 C 228.714844 65.695312 228.773438 65.710938 228.828125 65.726562 C 228.726562 66.472656 228.621094 67.21875 228.519531 67.964844 Z M 226.960938 80.921875 C 227.042969 82.769531 226.242188 84.550781 226.3125 86.765625 C 226.835938 86.339844 227.199219 86.152344 227.402344 85.855469 C 228.710938 83.957031 229.917969 81.984375 231.285156 80.128906 C 232.78125 78.097656 234.003906 75.945312 234.707031 73.527344 C 234.929688 72.753906 235.046875 71.914062 235.019531 71.113281 C 234.980469 69.609375 233.316406 68.78125 232.3125 69.730469 C 232.085938 69.945312 231.804688 70.101562 231.558594 70.300781 C 228.546875 72.730469 226.796875 75.941406 225.816406 79.617188 C 225.5 80.796875 225.210938 81.992188 225.019531 83.195312 C 224.855469 84.226562 225.019531 84.457031 225.914062 85.144531 C 226.273438 83.707031 226.617188 82.3125 226.960938 80.921875 Z M 218.273438 74.171875 C 217.316406 74.363281 216.433594 74.433594 215.800781 75.253906 C 214.5 76.933594 213.851562 78.796875 213.804688 80.921875 C 213.753906 83.394531 214.078125 85.808594 214.695312 88.191406 C 215.144531 89.929688 215.867188 91.542969 216.792969 93.066406 C 216.894531 93.042969 216.996094 93.015625 217.09375 92.992188 C 216.90625 91.933594 216.71875 90.871094 216.527344 89.8125 C 216.867188 90.363281 217.113281 90.933594 217.3125 91.515625 C 217.515625 92.097656 217.664062 92.695312 217.835938 93.285156 C 218.289062 92.035156 218.558594 90.84375 218.726562 89.640625 C 218.917969 88.253906 218.953125 86.839844 219.183594 85.457031 C 219.648438 82.664062 219.847656 79.871094 219.484375 77.058594 C 219.351562 76.019531 219.167969 74.988281 218.273438 74.171875 Z M 220.15625 72.125 C 220.265625 72.164062 220.375 72.203125 220.484375 72.242188 C 220.984375 71.726562 221.222656 71.0625 221.40625 70.367188 C 221.917969 68.441406 222.433594 66.511719 222.933594 64.582031 C 223.015625 64.277344 223.042969 63.957031 223.078125 63.644531 C 223.21875 62.390625 223.332031 61.128906 223.480469 59.875 C 223.726562 57.847656 223.546875 55.886719 222.597656 54.046875 C 222.09375 53.066406 221.257812 52.789062 220.347656 53.375 C 219.832031 53.707031 219.3125 54.160156 219.019531 54.683594 C 218.539062 55.546875 218.179688 56.492188 217.878906 57.441406 C 216.777344 60.914062 217.011719 64.4375 217.640625 67.953125 C 217.789062 68.789062 218.101562 69.613281 218.441406 70.402344 C 218.585938 70.746094 218.984375 70.984375 219.429688 71.429688 C 219.429688 69.175781 219.429688 67.230469 219.429688 65.285156 C 219.457031 65.28125 219.488281 65.277344 219.519531 65.273438 C 219.730469 67.558594 219.941406 69.84375 220.15625 72.125 Z M 199.875 220.863281 C 200.160156 220.847656 200.390625 220.882812 200.582031 220.8125 C 202.195312 220.203125 203.84375 219.667969 205.402344 218.941406 C 208.625 217.433594 211.308594 215.191406 213.585938 212.476562 C 214.964844 210.835938 216.15625 209.0625 216.597656 206.894531 C 216.789062 205.941406 216.558594 205.125 215.957031 204.359375 C 215.5 203.773438 214.976562 203.527344 214.308594 203.878906 C 213.464844 204.316406 212.601562 204.746094 211.851562 205.316406 C 210.066406 206.679688 208.625 208.390625 207.332031 210.21875 C 205.628906 212.632812 203.953125 215.070312 202.261719 217.492188 C 201.492188 218.59375 200.707031 219.683594 199.875 220.863281 Z M 212.332031 215.03125 C 213.425781 214.492188 214.4375 214.011719 215.4375 213.507812 C 219.226562 211.582031 222.460938 208.992188 224.847656 205.4375 C 226.203125 203.414062 227.195312 201.234375 227.1875 198.730469 C 227.183594 197.316406 226.574219 196.773438 225.164062 196.773438 C 223.421875 196.773438 222.039062 197.609375 220.746094 198.652344 C 219.273438 199.839844 218.289062 201.429688 217.21875 202.953125 C 216.753906 203.617188 216.621094 204.1875 216.976562 204.953125 C 217.488281 206.035156 217.425781 207.15625 216.882812 208.238281 C 216.558594 208.886719 216.324219 209.597656 215.914062 210.183594 C 214.800781 211.769531 213.613281 213.308594 212.332031 215.03125 Z M 223.183594 95.871094 C 223.085938 96.152344 222.925781 96.425781 222.894531 96.714844 C 222.765625 97.976562 222.667969 99.242188 222.554688 100.550781 C 222.09375 100.761719 221.671875 100.953125 221.183594 101.175781 C 221.328125 101.445312 221.484375 101.761719 221.660156 102.070312 C 221.992188 102.648438 222.070312 103.242188 221.9375 103.90625 C 220.796875 109.664062 219.285156 115.320312 217.371094 120.867188 C 217.050781 121.796875 216.789062 122.746094 216.5 123.6875 C 216.828125 123.535156 217 123.324219 217.089844 123.082031 C 217.664062 121.550781 218.324219 120.042969 218.765625 118.472656 C 219.59375 115.550781 220.222656 112.570312 221.070312 109.652344 C 221.796875 107.167969 222 104.496094 223.632812 102.242188 C 222.765625 101.875 222.636719 101.261719 222.914062 100.453125 C 223.042969 100.074219 223.019531 99.644531 223.035156 99.234375 C 223.089844 98.105469 223.128906 96.976562 223.164062 95.832031 C 223.308594 94.597656 223.222656 93.308594 224.171875 92.203125 C 223.75 92.203125 223.5 92.203125 223.183594 92.203125 C 223.183594 93.453125 223.183594 94.660156 223.183594 95.871094 Z M 221.75 74.332031 C 221.496094 74.722656 221.238281 75.109375 220.890625 75.644531 C 221.351562 75.550781 221.699219 75.5625 221.945312 75.410156 C 222.121094 75.300781 222.230469 74.988281 222.257812 74.75 C 222.308594 74.339844 221.957031 74.40625 221.703125 74.382812 C 222.230469 73.253906 222.464844 72.070312 222.445312 70.742188 C 221.363281 71.726562 220.84375 72.96875 220.773438 74.640625 C 221.105469 74.535156 221.425781 74.433594 221.75 74.332031 Z M 201.644531 128.964844 C 202.277344 130.363281 202.90625 131.761719 203.589844 133.28125 C 204.070312 132.632812 204.519531 132.035156 204.957031 131.433594 C 206.757812 128.945312 209.0625 127.074219 211.84375 125.792969 C 212.835938 125.335938 213.832031 124.875 214.863281 124.523438 C 215.464844 124.316406 215.742188 123.9375 215.921875 123.394531 C 217.652344 118.128906 219.371094 112.863281 220.523438 107.433594 C 220.796875 106.140625 221.050781 104.847656 221.261719 103.542969 C 221.316406 103.21875 221.25 102.824219 221.109375 102.523438 C 220.507812 101.25 219.882812 99.984375 219.21875 98.746094 C 219.070312 98.46875 218.742188 98.183594 218.445312 98.109375 C 216.628906 97.664062 215.488281 96.503906 214.640625 94.886719 C 214.160156 93.976562 213.441406 93.195312 212.742188 92.242188 C 212.765625 92.199219 212.878906 92.023438 213.050781 91.742188 C 212.339844 90.871094 211.609375 89.964844 210.867188 89.066406 C 208.324219 85.984375 206.984375 82.425781 206.707031 78.457031 C 206.675781 77.96875 206.734375 77.445312 206.886719 76.984375 C 207.265625 75.84375 208.535156 75.449219 209.546875 76.09375 C 210.5625 76.742188 210.996094 77.816406 211.542969 78.808594 C 211.996094 79.636719 212.433594 80.476562 213.042969 81.613281 C 213.226562 80.382812 213.257812 79.453125 213.523438 78.59375 C 213.816406 77.652344 214.234375 76.71875 214.769531 75.890625 C 215.273438 75.113281 215.996094 74.476562 216.714844 73.675781 C 215.8125 71.296875 215.214844 68.640625 213.519531 66.398438 C 212.65625 65.257812 212.128906 63.84375 211.546875 62.511719 C 211 61.257812 211.171875 59.902344 211.390625 58.609375 C 211.554688 57.652344 212.851562 57.207031 213.6875 57.789062 C 214.648438 58.457031 215.53125 59.238281 216.523438 60.027344 C 216.605469 59.746094 216.699219 59.421875 216.792969 59.101562 C 217.101562 58.054688 217.335938 56.980469 217.738281 55.972656 C 218.027344 55.257812 218.113281 54.644531 217.832031 53.902344 C 217.113281 51.96875 216.828125 49.9375 216.746094 47.882812 C 216.683594 46.363281 216.890625 44.875 217.492188 43.476562 C 217.699219 42.992188 218.035156 42.527344 218.421875 42.171875 C 219.339844 41.316406 220.082031 41.359375 220.796875 42.414062 C 221.453125 43.382812 221.933594 44.46875 222.539062 45.59375 C 222.902344 45.496094 222.972656 44.980469 223.269531 44.691406 C 223.785156 44.191406 224.261719 43.617188 224.855469 43.238281 C 225.984375 42.523438 227.972656 43.144531 227.976562 44.996094 C 227.980469 47.101562 227.757812 49.164062 227.285156 51.210938 C 226.957031 52.625 226.746094 54.078125 226.320312 55.464844 C 225.972656 56.601562 226.261719 57.269531 227.21875 57.613281 C 228.226562 56.453125 229.1875 55.316406 230.195312 54.222656 C 230.492188 53.894531 230.902344 53.648438 231.300781 53.433594 C 233.082031 52.484375 234.855469 53.417969 235.070312 55.449219 C 235.195312 56.636719 234.992188 57.78125 234.628906 58.9375 C 233.863281 61.359375 232.539062 63.476562 231.191406 65.582031 C 230.199219 67.132812 229.722656 68.777344 229.9375 70.78125 C 230.625 70.292969 231.222656 69.847656 231.84375 69.433594 C 233.539062 68.304688 235.21875 69.144531 235.386719 71.21875 C 235.539062 73.054688 234.839844 74.703125 234.140625 76.332031 C 233.214844 78.484375 231.703125 80.269531 230.363281 82.160156 C 229.761719 83.011719 229.203125 83.894531 228.664062 84.703125 C 228.828125 85.117188 229.121094 85.476562 229.046875 85.734375 C 228.578125 87.433594 228.261719 89.222656 226.824219 90.46875 C 226.652344 90.617188 226.507812 90.863281 226.3125 90.90625 C 224.472656 91.351562 224.316406 93.066406 224.042969 94.375 C 223.636719 96.3125 223.730469 98.351562 223.617188 100.347656 C 223.605469 100.601562 223.644531 100.855469 223.667969 101.21875 C 224.78125 100.6875 225.488281 100.117188 225.285156 98.808594 C 225.191406 98.210938 225.328125 97.523438 225.542969 96.945312 C 226.1875 95.203125 226.953125 93.53125 228.273438 92.140625 C 228.703125 91.691406 228.816406 90.925781 229.03125 90.289062 C 229.949219 87.578125 230.859375 84.867188 231.761719 82.152344 C 232.179688 80.890625 233.199219 80.191406 234.226562 79.527344 C 234.917969 79.082031 235.5625 79.300781 235.894531 80.078125 C 236.121094 80.605469 236.230469 81.21875 236.234375 81.796875 C 236.238281 82.917969 236.125 84.039062 236.058594 85.257812 C 236.472656 85.117188 236.875 84.929688 237.296875 84.847656 C 237.867188 84.738281 238.46875 84.589844 239.027344 84.667969 C 240.832031 84.929688 241.445312 86.101562 240.839844 87.832031 C 240.160156 89.773438 238.707031 91.105469 237.214844 92.351562 C 235.296875 93.949219 233.246094 95.382812 231.203125 96.925781 C 231.65625 96.992188 232.128906 97.058594 232.613281 97.125 C 232.226562 98.914062 229.230469 100.617188 226.9375 100.523438 C 226.058594 101.277344 225.300781 101.992188 224.472656 102.617188 C 223.5 103.34375 222.9375 104.253906 222.832031 105.472656 C 222.796875 105.917969 222.632812 106.351562 222.527344 106.792969 C 222.230469 108.027344 221.957031 109.265625 221.636719 110.492188 C 221.011719 112.910156 220.398438 115.335938 219.699219 117.734375 C 219.140625 119.640625 218.46875 121.511719 217.839844 123.414062 C 219.390625 123.304688 220.875 123.078125 222.351562 123.121094 C 224.019531 123.171875 225.691406 123.421875 227.351562 123.664062 C 228.476562 123.824219 229.359375 124.5 230.105469 125.320312 C 231.164062 126.484375 231.222656 128.019531 230.109375 129.109375 C 229.410156 129.789062 228.542969 130.371094 227.644531 130.765625 C 224.679688 132.078125 221.570312 132.890625 218.324219 133.152344 C 217.105469 133.25 215.886719 133.386719 214.523438 133.515625 C 213.105469 138.671875 211.394531 143.785156 209.050781 148.664062 C 209.117188 148.734375 209.183594 148.800781 209.25 148.867188 C 209.570312 148.621094 209.929688 148.410156 210.210938 148.121094 C 212.691406 145.632812 215.691406 143.902344 218.824219 142.441406 C 220.976562 141.441406 223.332031 141.023438 225.734375 141.136719 C 227 141.195312 227.597656 141.753906 227.554688 143.019531 C 227.527344 143.75 227.339844 144.605469 226.914062 145.167969 C 226.183594 146.132812 225.21875 146.925781 224.332031 147.769531 C 224.042969 148.042969 223.6875 148.25 223.28125 148.542969 C 223.492188 148.785156 223.652344 148.980469 223.828125 149.164062 C 225.011719 150.40625 225.113281 151.449219 223.996094 152.785156 C 222.179688 154.964844 220.121094 156.894531 217.621094 158.285156 C 214.128906 160.230469 210.589844 162.101562 207.109375 164.070312 C 205.933594 164.734375 204.789062 165.507812 203.785156 166.40625 C 203.167969 166.953125 202.695312 167.777344 202.417969 168.570312 C 200.867188 172.980469 199.386719 177.414062 197.898438 181.847656 C 197.121094 184.175781 196.320312 186.496094 195.621094 188.847656 C 194.5625 192.410156 193.675781 196.03125 192.546875 199.574219 C 191.039062 204.316406 190.359375 209.222656 189.359375 214.070312 C 189.15625 215.042969 189.132812 216.050781 188.988281 217.039062 C 188.628906 219.507812 188.234375 221.96875 187.878906 224.4375 C 187.816406 224.863281 187.871094 225.308594 187.871094 225.960938 C 189.726562 224.632812 191.398438 223.324219 193.179688 222.199219 C 194.941406 221.085938 196.816406 220.152344 198.753906 219.078125 C 199.007812 217.082031 199.359375 214.976562 199.523438 212.851562 C 199.910156 207.8125 201.066406 202.980469 203.136719 198.371094 C 203.742188 197.023438 204.554688 195.832031 205.886719 195.085938 C 207.222656 194.335938 208.160156 194.714844 208.589844 196.171875 C 209.015625 197.625 208.84375 199.054688 208.40625 200.46875 C 207.234375 204.257812 205.679688 207.890625 204.011719 211.480469 C 203.152344 213.328125 202.351562 215.203125 201.710938 217.191406 C 201.910156 216.960938 202.132812 216.746094 202.308594 216.496094 C 204.023438 214.035156 205.671875 211.519531 207.464844 209.113281 C 209.042969 206.996094 210.800781 205.027344 213.191406 203.738281 C 214.601562 202.980469 214.582031 202.953125 216.203125 203.289062 C 216.875 202.363281 217.5625 201.40625 218.253906 200.453125 C 219.398438 198.886719 220.789062 197.589844 222.554688 196.753906 C 223.628906 196.246094 224.734375 195.863281 225.972656 196.214844 C 227.007812 196.511719 227.605469 197.144531 227.757812 198.203125 C 227.96875 199.640625 227.675781 201.007812 227.144531 202.332031 C 225.605469 206.167969 222.996094 209.113281 219.6875 211.53125 C 217.101562 213.421875 214.265625 214.890625 211.382812 216.195312 C 209.851562 216.890625 208.644531 218.019531 207.132812 218.675781 C 204.96875 219.613281 202.808594 220.570312 200.621094 221.449219 C 200.179688 221.625 199.601562 221.878906 199.101562 221.355469 C 198.992188 221.246094 198.589844 221.324219 198.371094 221.425781 C 196.023438 222.523438 193.726562 223.71875 191.757812 225.445312 C 190.695312 226.375 189.652344 227.324219 188.59375 228.257812 C 187.695312 229.050781 187.230469 230.046875 187.117188 231.234375 C 186.84375 234.082031 186.535156 236.925781 186.28125 239.777344 C 186.21875 240.449219 186.359375 241.140625 186.351562 241.820312 C 186.320312 244.5 186.378906 247.171875 186.859375 249.824219 C 187.089844 251.121094 187.109375 252.453125 187.21875 253.765625 C 187.5 257.175781 188.042969 260.53125 189.078125 263.796875 C 189.296875 264.484375 189.328125 265.230469 189.527344 265.925781 C 190.347656 268.839844 191.199219 271.75 192.0625 274.726562 C 191.640625 274.773438 191.515625 274.460938 191.390625 274.117188 C 189.710938 269.402344 188.464844 264.5625 187.460938 259.667969 C 186.925781 257.042969 186.433594 254.414062 186.40625 251.703125 C 186.386719 250.03125 185.925781 248.371094 185.851562 246.699219 C 185.734375 243.976562 185.667969 241.246094 185.773438 238.523438 C 185.867188 236.125 186.277344 233.742188 186.441406 231.34375 C 186.527344 230.082031 186.976562 229.046875 187.835938 228.183594 C 190.785156 225.242188 194.035156 222.707031 197.855469 220.96875 C 198.1875 220.820312 198.542969 220.722656 198.863281 220.558594 C 199.714844 220.113281 200.417969 219.664062 200.472656 218.460938 C 200.515625 217.5625 201.054688 216.667969 201.4375 215.804688 C 202.890625 212.523438 204.480469 209.296875 205.804688 205.964844 C 206.738281 203.613281 207.867188 201.292969 208.164062 198.730469 C 208.253906 197.9375 208.191406 197.09375 208.019531 196.316406 C 207.808594 195.367188 207.125 195.113281 206.25 195.550781 C 204.960938 196.199219 204.199219 197.339844 203.632812 198.601562 C 201.789062 202.742188 200.589844 207.042969 200.292969 211.59375 C 200.144531 213.949219 199.800781 216.296875 199.550781 218.644531 C 199.464844 219.429688 199.144531 219.894531 198.328125 220.21875 C 195.699219 221.261719 193.265625 222.683594 191.035156 224.4375 C 189.867188 225.355469 188.671875 226.246094 187.460938 227.171875 C 186.9375 226.550781 187.007812 225.894531 187.101562 225.21875 C 187.625 221.53125 188.089844 217.832031 188.671875 214.152344 C 189.035156 211.867188 189.570312 209.609375 190.023438 207.339844 C 190.167969 206.628906 190.246094 205.898438 190.4375 205.199219 C 191.253906 202.175781 192.085938 199.15625 192.945312 196.148438 C 193.960938 192.613281 194.933594 189.066406 196.0625 185.566406 C 197.921875 179.8125 199.90625 174.097656 201.808594 168.359375 C 202.527344 166.183594 204.273438 165.027344 206.089844 164.003906 C 209.570312 162.035156 213.121094 160.1875 216.632812 158.277344 C 219.140625 156.914062 221.257812 155.070312 223.136719 152.933594 C 223.804688 152.167969 224.496094 151.375 223.96875 150.261719 C 223.421875 149.101562 221.644531 148.054688 220.667969 148.183594 C 218.652344 148.453125 216.757812 149.027344 215.09375 150.222656 C 212.507812 152.082031 210.488281 154.484375 208.75 157.121094 C 207.527344 158.980469 206.398438 160.902344 205.257812 162.816406 C 204.527344 164.046875 204.292969 164.25 203.183594 164.285156 C 202.949219 163.449219 202.980469 162.628906 203.296875 161.796875 C 204.238281 159.335938 205.125 156.851562 206.121094 154.414062 C 206.558594 153.335938 207.371094 152.765625 208.625 152.429688 C 210.734375 151.859375 212.914062 151.394531 214.714844 149.871094 C 216.324219 148.511719 218.34375 147.8125 220.480469 147.632812 C 220.878906 147.597656 221.328125 147.582031 221.6875 147.722656 C 222.457031 148.023438 223.15625 147.886719 223.730469 147.410156 C 224.667969 146.632812 225.542969 145.777344 226.402344 144.914062 C 226.644531 144.667969 226.820312 144.289062 226.871094 143.945312 C 227.171875 142.050781 226.855469 141.714844 225.179688 141.699219 C 222.777344 141.679688 220.496094 142.273438 218.324219 143.285156 C 214.355469 145.136719 210.988281 147.800781 208.058594 151.039062 C 207.890625 151.222656 207.664062 151.359375 207.441406 151.535156 C 207 150.921875 207.394531 150.527344 207.589844 150.097656 C 208.714844 147.617188 209.957031 145.179688 210.925781 142.636719 C 211.910156 140.050781 212.632812 137.363281 213.457031 134.714844 C 213.570312 134.351562 213.601562 133.960938 213.714844 133.351562 C 212.980469 133.796875 212.871094 134.339844 212.695312 134.820312 C 211.515625 138.015625 210.351562 141.21875 209.164062 144.410156 C 209.003906 144.84375 208.730469 145.234375 208.4375 145.78125 C 207.414062 144.460938 207.113281 143.078125 206.597656 141.796875 C 205.988281 140.28125 205.402344 138.753906 204.816406 137.230469 C 204.621094 136.722656 204.429688 136.207031 204.285156 135.683594 C 204.015625 134.71875 204.410156 133.929688 205.402344 133.734375 C 206.824219 133.457031 208.269531 133.265625 209.710938 133.144531 C 213.109375 132.863281 216.515625 132.699219 219.914062 132.394531 C 222.613281 132.148438 225.144531 131.222656 227.601562 130.125 C 228.371094 129.78125 229.089844 129.234375 229.703125 128.644531 C 230.664062 127.722656 230.621094 126.789062 229.730469 125.757812 C 228.957031 124.859375 227.96875 124.367188 226.820312 124.113281 C 221.90625 123.03125 217.277344 123.917969 212.757812 125.960938 C 209.558594 127.410156 206.980469 129.515625 205.039062 132.425781 C 204.710938 132.914062 204.363281 133.390625 203.988281 133.84375 C 203.644531 134.257812 203.183594 134.242188 203.019531 133.777344 C 202.503906 132.324219 202.050781 130.847656 201.585938 129.375 C 201.554688 129.269531 201.648438 129.121094 201.679688 128.992188 C 201.675781 128.988281 201.644531 128.964844 201.644531 128.964844 " fill-opacity="1" fill-rule="nonzero"/></g><path fill="#d9d9d9" d="M 158.730469 66.410156 C 158.695312 65.710938 158.664062 65.011719 158.628906 64.316406 C 158.664062 64.3125 158.695312 64.3125 158.730469 64.3125 C 158.730469 65.007812 158.730469 65.707031 158.730469 66.40625 C 158.730469 66.40625 158.730469 66.410156 158.730469 66.410156 " fill-opacity="1" fill-rule="nonzero"/><path fill="#d9d9d9" d="M 143.375 73.875 C 142.378906 73.605469 142.523438 72.777344 142.464844 72.046875 C 142.769531 72.65625 143.070312 73.265625 143.375 73.875 " fill-opacity="1" fill-rule="nonzero"/><path fill="#d9d9d9" d="M 226.214844 67.957031 C 225.515625 67.074219 225.4375 65.875 225.652344 63.007812 C 225.832031 64.589844 226.023438 66.273438 226.214844 67.957031 " fill-opacity="1" fill-rule="nonzero"/><path fill="#d9d9d9" d="M 228.851562 70.566406 C 228.726562 70.867188 228.605469 71.164062 228.484375 71.464844 C 228.421875 71.445312 228.359375 71.421875 228.300781 71.402344 C 228.402344 71.085938 228.5 70.765625 228.601562 70.449219 C 228.683594 70.488281 228.765625 70.527344 228.851562 70.566406 " fill-opacity="1" fill-rule="nonzero"/><g fill="#d9d9d9" fill-opacity="1"><g transform="translate(99.3719, 327.147723)"><g><path d="M 16.53125 -10.765625 C 16.53125 -8.878906 16.328125 -7.242188 15.921875 -5.859375 C 15.515625 -4.484375 14.960938 -3.34375 14.265625 -2.4375 C 13.566406 -1.539062 12.75 -0.867188 11.8125 -0.421875 C 10.875 0.015625 9.875 0.234375 8.8125 0.234375 C 7.738281 0.234375 6.734375 0.015625 5.796875 -0.421875 C 4.867188 -0.867188 4.054688 -1.539062 3.359375 -2.4375 C 2.660156 -3.34375 2.109375 -4.484375 1.703125 -5.859375 C 1.304688 -7.242188 1.109375 -8.878906 1.109375 -10.765625 C 1.109375 -12.648438 1.304688 -14.28125 1.703125 -15.65625 C 2.109375 -17.039062 2.660156 -18.179688 3.359375 -19.078125 C 4.054688 -19.984375 4.867188 -20.65625 5.796875 -21.09375 C 6.734375 -21.539062 7.738281 -21.765625 8.8125 -21.765625 C 9.875 -21.765625 10.875 -21.539062 11.8125 -21.09375 C 12.75 -20.65625 13.566406 -19.984375 14.265625 -19.078125 C 14.960938 -18.179688 15.515625 -17.039062 15.921875 -15.65625 C 16.328125 -14.28125 16.53125 -12.648438 16.53125 -10.765625 Z M 15.015625 -10.765625 C 15.015625 -12.515625 14.847656 -14.003906 14.515625 -15.234375 C 14.179688 -16.472656 13.734375 -17.484375 13.171875 -18.265625 C 12.609375 -19.054688 11.945312 -19.632812 11.1875 -20 C 10.425781 -20.363281 9.632812 -20.546875 8.8125 -20.546875 C 7.976562 -20.546875 7.1875 -20.363281 6.4375 -20 C 5.6875 -19.632812 5.023438 -19.054688 4.453125 -18.265625 C 3.890625 -17.484375 3.4375 -16.472656 3.09375 -15.234375 C 2.757812 -14.003906 2.59375 -12.515625 2.59375 -10.765625 C 2.59375 -9.015625 2.757812 -7.519531 3.09375 -6.28125 C 3.4375 -5.050781 3.890625 -4.039062 4.453125 -3.25 C 5.023438 -2.46875 5.6875 -1.894531 6.4375 -1.53125 C 7.1875 -1.175781 7.976562 -1 8.8125 -1 C 9.632812 -1 10.425781 -1.175781 11.1875 -1.53125 C 11.945312 -1.894531 12.609375 -2.46875 13.171875 -3.25 C 13.734375 -4.039062 14.179688 -5.050781 14.515625 -6.28125 C 14.847656 -7.519531 15.015625 -9.015625 15.015625 -10.765625 Z M 15.015625 -10.765625 "/></g></g></g><g fill="#d9d9d9" fill-opacity="1"><g transform="translate(125.041288, 327.147723)"><g><path d="M 11.453125 -7.328125 L 11.453125 -18.609375 C 11.453125 -18.773438 11.457031 -18.957031 11.46875 -19.15625 C 11.488281 -19.363281 11.507812 -19.578125 11.53125 -19.796875 L 2.21875 -7.328125 Z M 16.671875 -7.328125 L 16.671875 -6.546875 C 16.671875 -6.429688 16.632812 -6.335938 16.5625 -6.265625 C 16.5 -6.203125 16.398438 -6.171875 16.265625 -6.171875 L 12.734375 -6.171875 L 12.734375 0 L 11.453125 0 L 11.453125 -6.171875 L 1.28125 -6.171875 C 1.125 -6.171875 1.003906 -6.203125 0.921875 -6.265625 C 0.847656 -6.335938 0.796875 -6.429688 0.765625 -6.546875 L 0.625 -7.25 L 11.4375 -21.546875 L 12.734375 -21.546875 L 12.734375 -7.328125 Z M 16.671875 -7.328125 "/></g></g></g><g fill="#d9d9d9" fill-opacity="1"><g transform="translate(150.710676, 327.147723)"><g><path d="M 2.140625 -1.171875 C 2.140625 -1.359375 2.175781 -1.539062 2.25 -1.71875 C 2.320312 -1.894531 2.421875 -2.046875 2.546875 -2.171875 C 2.671875 -2.296875 2.816406 -2.394531 2.984375 -2.46875 C 3.148438 -2.539062 3.335938 -2.578125 3.546875 -2.578125 C 3.734375 -2.578125 3.910156 -2.539062 4.078125 -2.46875 C 4.253906 -2.394531 4.40625 -2.296875 4.53125 -2.171875 C 4.664062 -2.046875 4.769531 -1.894531 4.84375 -1.71875 C 4.914062 -1.539062 4.953125 -1.359375 4.953125 -1.171875 C 4.953125 -0.960938 4.914062 -0.773438 4.84375 -0.609375 C 4.769531 -0.441406 4.664062 -0.296875 4.53125 -0.171875 C 4.40625 -0.046875 4.253906 0.0507812 4.078125 0.125 C 3.910156 0.195312 3.734375 0.234375 3.546875 0.234375 C 3.148438 0.234375 2.816406 0.0976562 2.546875 -0.171875 C 2.273438 -0.441406 2.140625 -0.773438 2.140625 -1.171875 Z M 2.140625 -1.171875 "/></g></g></g><g fill="#d9d9d9" fill-opacity="1"><g transform="translate(165.842939, 327.147723)"><g><path d="M 16.53125 -10.765625 C 16.53125 -8.878906 16.328125 -7.242188 15.921875 -5.859375 C 15.515625 -4.484375 14.960938 -3.34375 14.265625 -2.4375 C 13.566406 -1.539062 12.75 -0.867188 11.8125 -0.421875 C 10.875 0.015625 9.875 0.234375 8.8125 0.234375 C 7.738281 0.234375 6.734375 0.015625 5.796875 -0.421875 C 4.867188 -0.867188 4.054688 -1.539062 3.359375 -2.4375 C 2.660156 -3.34375 2.109375 -4.484375 1.703125 -5.859375 C 1.304688 -7.242188 1.109375 -8.878906 1.109375 -10.765625 C 1.109375 -12.648438 1.304688 -14.28125 1.703125 -15.65625 C 2.109375 -17.039062 2.660156 -18.179688 3.359375 -19.078125 C 4.054688 -19.984375 4.867188 -20.65625 5.796875 -21.09375 C 6.734375 -21.539062 7.738281 -21.765625 8.8125 -21.765625 C 9.875 -21.765625 10.875 -21.539062 11.8125 -21.09375 C 12.75 -20.65625 13.566406 -19.984375 14.265625 -19.078125 C 14.960938 -18.179688 15.515625 -17.039062 15.921875 -15.65625 C 16.328125 -14.28125 16.53125 -12.648438 16.53125 -10.765625 Z M 15.015625 -10.765625 C 15.015625 -12.515625 14.847656 -14.003906 14.515625 -15.234375 C 14.179688 -16.472656 13.734375 -17.484375 13.171875 -18.265625 C 12.609375 -19.054688 11.945312 -19.632812 11.1875 -20 C 10.425781 -20.363281 9.632812 -20.546875 8.8125 -20.546875 C 7.976562 -20.546875 7.1875 -20.363281 6.4375 -20 C 5.6875 -19.632812 5.023438 -19.054688 4.453125 -18.265625 C 3.890625 -17.484375 3.4375 -16.472656 3.09375 -15.234375 C 2.757812 -14.003906 2.59375 -12.515625 2.59375 -10.765625 C 2.59375 -9.015625 2.757812 -7.519531 3.09375 -6.28125 C 3.4375 -5.050781 3.890625 -4.039062 4.453125 -3.25 C 5.023438 -2.46875 5.6875 -1.894531 6.4375 -1.53125 C 7.1875 -1.175781 7.976562 -1 8.8125 -1 C 9.632812 -1 10.425781 -1.175781 11.1875 -1.53125 C 11.945312 -1.894531 12.609375 -2.46875 13.171875 -3.25 C 13.734375 -4.039062 14.179688 -5.050781 14.515625 -6.28125 C 14.847656 -7.519531 15.015625 -9.015625 15.015625 -10.765625 Z M 15.015625 -10.765625 "/></g></g></g><g fill="#d9d9d9" fill-opacity="1"><g transform="translate(191.512328, 327.147723)"><g><path d="M 15.171875 -1.125 L 15.171875 0 L 4.0625 0 L 4.0625 -1.125 L 9 -1.125 L 9 -18.59375 C 9 -18.9375 9.015625 -19.300781 9.046875 -19.6875 L 4.296875 -15.46875 C 4.160156 -15.34375 4.019531 -15.296875 3.875 -15.328125 C 3.738281 -15.359375 3.628906 -15.421875 3.546875 -15.515625 L 3.109375 -16.125 L 9.328125 -21.609375 L 10.46875 -21.609375 L 10.46875 -1.125 Z M 15.171875 -1.125 "/></g></g></g><g fill="#d9d9d9" fill-opacity="1"><g transform="translate(217.181722, 327.147723)"><g><path d="M 2.140625 -1.171875 C 2.140625 -1.359375 2.175781 -1.539062 2.25 -1.71875 C 2.320312 -1.894531 2.421875 -2.046875 2.546875 -2.171875 C 2.671875 -2.296875 2.816406 -2.394531 2.984375 -2.46875 C 3.148438 -2.539062 3.335938 -2.578125 3.546875 -2.578125 C 3.734375 -2.578125 3.910156 -2.539062 4.078125 -2.46875 C 4.253906 -2.394531 4.40625 -2.296875 4.53125 -2.171875 C 4.664062 -2.046875 4.769531 -1.894531 4.84375 -1.71875 C 4.914062 -1.539062 4.953125 -1.359375 4.953125 -1.171875 C 4.953125 -0.960938 4.914062 -0.773438 4.84375 -0.609375 C 4.769531 -0.441406 4.664062 -0.296875 4.53125 -0.171875 C 4.40625 -0.046875 4.253906 0.0507812 4.078125 0.125 C 3.910156 0.195312 3.734375 0.234375 3.546875 0.234375 C 3.148438 0.234375 2.816406 0.0976562 2.546875 -0.171875 C 2.273438 -0.441406 2.140625 -0.773438 2.140625 -1.171875 Z M 2.140625 -1.171875 "/></g></g></g><g fill="#d9d9d9" fill-opacity="1"><g transform="translate(232.313991, 327.147723)"><g><path d="M 15.125 -1.375 C 15.28125 -1.375 15.40625 -1.320312 15.5 -1.21875 C 15.59375 -1.125 15.640625 -1.003906 15.640625 -0.859375 L 15.640625 0 L 1.75 0 L 1.75 -0.515625 C 1.75 -0.628906 1.773438 -0.742188 1.828125 -0.859375 C 1.890625 -0.972656 1.960938 -1.070312 2.046875 -1.15625 L 9.40625 -8.59375 C 10.007812 -9.207031 10.566406 -9.800781 11.078125 -10.375 C 11.597656 -10.957031 12.046875 -11.539062 12.421875 -12.125 C 12.804688 -12.71875 13.101562 -13.320312 13.3125 -13.9375 C 13.53125 -14.5625 13.640625 -15.222656 13.640625 -15.921875 C 13.640625 -16.710938 13.507812 -17.398438 13.25 -17.984375 C 12.988281 -18.566406 12.640625 -19.046875 12.203125 -19.421875 C 11.765625 -19.796875 11.253906 -20.070312 10.671875 -20.25 C 10.097656 -20.4375 9.503906 -20.53125 8.890625 -20.53125 C 8.203125 -20.53125 7.570312 -20.425781 7 -20.21875 C 6.425781 -20.007812 5.921875 -19.71875 5.484375 -19.34375 C 5.046875 -18.976562 4.679688 -18.539062 4.390625 -18.03125 C 4.097656 -17.519531 3.894531 -16.960938 3.78125 -16.359375 C 3.71875 -16.128906 3.625 -15.976562 3.5 -15.90625 C 3.382812 -15.832031 3.226562 -15.804688 3.03125 -15.828125 L 2.28125 -15.953125 C 2.414062 -16.878906 2.671875 -17.703125 3.046875 -18.421875 C 3.421875 -19.140625 3.894531 -19.742188 4.46875 -20.234375 C 5.050781 -20.734375 5.722656 -21.113281 6.484375 -21.375 C 7.242188 -21.632812 8.0625 -21.765625 8.9375 -21.765625 C 9.757812 -21.765625 10.539062 -21.644531 11.28125 -21.40625 C 12.03125 -21.164062 12.691406 -20.804688 13.265625 -20.328125 C 13.835938 -19.847656 14.289062 -19.242188 14.625 -18.515625 C 14.96875 -17.796875 15.140625 -16.945312 15.140625 -15.96875 C 15.140625 -15.15625 15.015625 -14.398438 14.765625 -13.703125 C 14.515625 -13.015625 14.175781 -12.347656 13.75 -11.703125 C 13.320312 -11.066406 12.828125 -10.445312 12.265625 -9.84375 C 11.703125 -9.238281 11.113281 -8.625 10.5 -8 L 3.75 -1.125 C 4.082031 -1.207031 4.421875 -1.269531 4.765625 -1.3125 C 5.117188 -1.351562 5.472656 -1.375 5.828125 -1.375 Z M 15.125 -1.375 "/></g></g></g><g fill="#d9d9d9" fill-opacity="1"><g transform="translate(257.983385, 327.147723)"><g><path d="M 2.375 -15.953125 C 2.507812 -16.878906 2.765625 -17.703125 3.140625 -18.421875 C 3.515625 -19.140625 3.988281 -19.742188 4.5625 -20.234375 C 5.144531 -20.734375 5.816406 -21.113281 6.578125 -21.375 C 7.335938 -21.632812 8.15625 -21.765625 9.03125 -21.765625 C 9.851562 -21.765625 10.628906 -21.648438 11.359375 -21.421875 C 12.085938 -21.191406 12.726562 -20.847656 13.28125 -20.390625 C 13.832031 -19.941406 14.269531 -19.375 14.59375 -18.6875 C 14.914062 -18.007812 15.078125 -17.226562 15.078125 -16.34375 C 15.078125 -15.632812 14.96875 -15 14.75 -14.4375 C 14.539062 -13.875 14.242188 -13.378906 13.859375 -12.953125 C 13.484375 -12.535156 13.035156 -12.179688 12.515625 -11.890625 C 12.003906 -11.597656 11.441406 -11.375 10.828125 -11.21875 C 12.410156 -10.925781 13.601562 -10.316406 14.40625 -9.390625 C 15.21875 -8.460938 15.625 -7.304688 15.625 -5.921875 C 15.625 -5.035156 15.445312 -4.210938 15.09375 -3.453125 C 14.738281 -2.703125 14.25 -2.050781 13.625 -1.5 C 13.007812 -0.957031 12.28125 -0.53125 11.4375 -0.21875 C 10.59375 0.09375 9.679688 0.25 8.703125 0.25 C 7.472656 0.25 6.445312 0.0820312 5.625 -0.25 C 4.8125 -0.582031 4.140625 -1.007812 3.609375 -1.53125 C 3.085938 -2.0625 2.679688 -2.65625 2.390625 -3.3125 C 2.097656 -3.96875 1.859375 -4.617188 1.671875 -5.265625 L 2.25 -5.5 C 2.414062 -5.570312 2.585938 -5.59375 2.765625 -5.5625 C 2.941406 -5.53125 3.070312 -5.414062 3.15625 -5.21875 C 3.195312 -5.09375 3.257812 -4.898438 3.34375 -4.640625 C 3.4375 -4.390625 3.5625 -4.101562 3.71875 -3.78125 C 3.882812 -3.46875 4.097656 -3.144531 4.359375 -2.8125 C 4.617188 -2.488281 4.941406 -2.1875 5.328125 -1.90625 C 5.722656 -1.632812 6.191406 -1.410156 6.734375 -1.234375 C 7.285156 -1.066406 7.9375 -0.984375 8.6875 -0.984375 C 9.59375 -0.984375 10.390625 -1.132812 11.078125 -1.4375 C 11.765625 -1.75 12.335938 -2.140625 12.796875 -2.609375 C 13.253906 -3.078125 13.597656 -3.601562 13.828125 -4.1875 C 14.054688 -4.769531 14.171875 -5.335938 14.171875 -5.890625 C 14.171875 -6.546875 14.066406 -7.15625 13.859375 -7.71875 C 13.648438 -8.289062 13.300781 -8.78125 12.8125 -9.1875 C 12.332031 -9.601562 11.691406 -9.929688 10.890625 -10.171875 C 10.097656 -10.410156 9.117188 -10.53125 7.953125 -10.53125 L 7.953125 -11.578125 C 8.890625 -11.597656 9.710938 -11.722656 10.421875 -11.953125 C 11.128906 -12.179688 11.71875 -12.492188 12.1875 -12.890625 C 12.664062 -13.285156 13.023438 -13.753906 13.265625 -14.296875 C 13.515625 -14.847656 13.640625 -15.453125 13.640625 -16.109375 C 13.640625 -16.867188 13.515625 -17.523438 13.265625 -18.078125 C 13.015625 -18.640625 12.675781 -19.101562 12.25 -19.46875 C 11.820312 -19.832031 11.320312 -20.097656 10.75 -20.265625 C 10.1875 -20.441406 9.59375 -20.53125 8.96875 -20.53125 C 8.289062 -20.53125 7.660156 -20.425781 7.078125 -20.21875 C 6.503906 -20.007812 5.992188 -19.71875 5.546875 -19.34375 C 5.109375 -18.976562 4.742188 -18.539062 4.453125 -18.03125 C 4.160156 -17.519531 3.957031 -16.960938 3.84375 -16.359375 C 3.78125 -16.128906 3.691406 -15.976562 3.578125 -15.90625 C 3.472656 -15.832031 3.320312 -15.804688 3.125 -15.828125 Z M 2.375 -15.953125 "/></g></g></g></svg>