<svg xmlns="http://www.w3.org/2000/svg" xmlns:xlink="http://www.w3.org/1999/xlink" width="500" zoomAndPan="magnify" viewBox="0 0 375 374.999991" height="500" preserveAspectRatio="xMidYMid meet" version="1.0"><defs><g/><clipPath id="9704a29e04"><path d="M 107.527344 127.421875 L 231.277344 127.421875 L 231.277344 181.421875 L 107.527344 181.421875 Z M 107.527344 127.421875 " clip-rule="nonzero"/></clipPath></defs><g clip-path="url(#9704a29e04)"><path fill="#d9d9d9" d="M 231.015625 164.160156 C 230.929688 164.148438 230.792969 164.164062 230.75 164.222656 C 230.15625 164.945312 229.578125 165.675781 228.980469 166.394531 C 228.058594 167.511719 227.089844 168.589844 226.019531 169.578125 C 223.253906 172.136719 220.125 174.152344 216.722656 175.742188 C 214.835938 176.621094 212.882812 177.3125 210.886719 177.890625 C 207.945312 178.730469 204.96875 179.417969 201.929688 179.835938 C 200.6875 180.011719 199.449219 180.074219 198.207031 180.191406 C 194.988281 180.488281 191.769531 180.359375 188.574219 179.953125 C 184.910156 179.496094 181.34375 178.59375 177.863281 177.335938 C 173.113281 175.628906 168.609375 173.398438 164.332031 170.730469 C 163.765625 170.382812 163.132812 169.980469 162.527344 169.523438 L 164.480469 167.910156 C 169.296875 164.003906 173.632812 159.636719 177.332031 154.65625 C 178.875 152.570312 180.277344 150.394531 181.480469 148.097656 C 182.324219 146.488281 183.074219 144.839844 183.570312 143.085938 C 184.222656 140.773438 184.570312 138.441406 184.085938 136.035156 C 183.429688 132.71875 181.65625 130.25 178.644531 128.691406 C 176.953125 127.8125 175.136719 127.476562 173.230469 127.523438 C 170.980469 127.570312 168.957031 128.25 167.152344 129.601562 C 165.34375 130.957031 163.871094 132.601562 162.757812 134.566406 C 162.632812 134.792969 162.496094 135.007812 162.339844 135.210938 C 162.304688 135.253906 162.109375 135.253906 162.074219 135.207031 C 161.347656 134.328125 160.617188 133.453125 159.714844 132.742188 C 158.402344 131.714844 157.007812 130.824219 155.5 130.109375 C 154.183594 129.476562 152.789062 129.0625 151.335938 128.894531 C 148.988281 128.628906 146.785156 129.066406 144.839844 130.480469 C 143.734375 131.277344 142.808594 132.25 142.097656 133.410156 C 140.675781 135.707031 139.925781 138.21875 139.882812 140.914062 C 139.839844 143.59375 140.429688 146.15625 141.511719 148.597656 C 142.761719 151.402344 144.304688 154.039062 146.222656 156.4375 C 148.851562 159.734375 151.824219 162.691406 155.035156 165.414062 C 156.542969 166.691406 158.09375 167.902344 159.691406 169.054688 C 159.902344 169.207031 160.101562 169.375 160.300781 169.535156 C 160.457031 169.660156 160.652344 169.800781 160.652344 169.800781 C 157.9375 171.558594 155.3125 173.273438 152.367188 174.628906 C 151.1875 175.167969 150 175.6875 148.777344 176.121094 C 144.863281 177.515625 140.855469 178.5625 136.71875 179.078125 C 133.203125 179.511719 129.6875 179.570312 126.167969 179.082031 C 125.34375 178.964844 124.53125 178.804688 123.714844 178.664062 C 121.824219 178.332031 119.925781 178.054688 118.042969 177.660156 C 116.214844 177.277344 114.367188 177.042969 112.320312 176.707031 C 111.097656 176.589844 109.707031 176.488281 108.304688 176.515625 C 108.113281 176.632812 107.894531 176.714844 107.640625 176.753906 C 107.628906 176.917969 107.589844 177.085938 107.523438 177.253906 C 107.621094 177.347656 107.707031 177.445312 107.792969 177.554688 C 107.601562 177.304688 107.699219 177.414062 107.832031 177.554688 C 107.96875 177.5625 108.109375 177.570312 108.265625 177.574219 C 108.460938 177.574219 108.644531 177.613281 108.824219 177.667969 C 109.078125 177.660156 109.332031 177.65625 109.589844 177.65625 C 111.511719 177.671875 113.425781 177.894531 115.320312 178.195312 C 115.988281 178.300781 116.644531 178.464844 117.308594 178.582031 C 119.042969 178.882812 120.785156 179.148438 122.515625 179.496094 C 124.402344 179.875 126.304688 180.085938 128.214844 180.265625 C 131.28125 180.554688 134.339844 180.4375 137.371094 179.984375 C 145.875 178.730469 153.664062 175.636719 160.769531 170.816406 C 161.039062 170.636719 161.285156 170.445312 161.539062 170.246094 C 165.082031 172.503906 169.609375 175.058594 173.464844 176.707031 C 178.894531 179.011719 184.496094 180.632812 190.40625 181.097656 C 193.835938 181.371094 197.257812 181.261719 200.664062 180.875 C 203.707031 180.535156 206.699219 179.878906 209.648438 179.050781 C 212.960938 178.128906 216.148438 176.917969 219.191406 175.300781 C 223.855469 172.820312 227.722656 169.4375 230.835938 165.191406 C 230.992188 164.988281 231.097656 164.746094 231.214844 164.519531 C 231.269531 164.394531 231.179688 164.160156 231.015625 164.160156 Z M 161.683594 168.972656 C 156.816406 165.484375 151.796875 161.054688 148.042969 156.371094 C 146.359375 154.265625 144.917969 151.996094 143.710938 149.578125 C 142.871094 147.898438 142.226562 146.164062 141.875 144.320312 C 141.4375 142.054688 141.390625 139.796875 142.035156 137.554688 C 142.351562 136.460938 142.792969 135.414062 143.386719 134.433594 C 143.785156 133.765625 144.269531 133.15625 144.8125 132.59375 C 146.253906 131.101562 148.015625 130.355469 150.085938 130.292969 C 151.402344 130.25 152.667969 130.429688 153.914062 130.847656 C 156.050781 131.574219 157.96875 132.6875 159.679688 134.148438 C 160.351562 134.714844 160.957031 135.359375 161.40625 136.132812 C 161.601562 136.472656 161.652344 136.796875 161.488281 137.160156 C 161.433594 137.289062 161.421875 137.476562 161.464844 137.59375 C 161.515625 137.71875 161.660156 137.824219 161.789062 137.882812 C 161.851562 137.914062 162 137.859375 162.0625 137.796875 C 162.203125 137.65625 162.347656 137.496094 162.445312 137.320312 C 163.386719 135.640625 164.609375 134.167969 165.765625 132.632812 C 166.390625 131.800781 167.148438 131.089844 167.984375 130.472656 C 170.265625 128.785156 172.804688 128.152344 175.617188 128.660156 C 177.027344 128.914062 178.324219 129.382812 179.488281 130.199219 C 181.355469 131.5 182.527344 133.28125 183.109375 135.460938 C 183.378906 136.460938 183.527344 137.488281 183.476562 138.347656 C 183.476562 140.476562 183.019531 142.332031 182.375 144.140625 C 181.84375 145.605469 181.164062 146.996094 180.417969 148.363281 C 178.683594 151.5625 176.585938 154.515625 174.261719 157.304688 C 170.832031 161.417969 166.941406 165.058594 162.6875 168.316406 C 162.4375 168.507812 161.992188 168.847656 161.726562 168.996094 Z M 161.683594 168.972656 " fill-opacity="1" fill-rule="nonzero"/></g><g fill="#ffffff" fill-opacity="1"><g transform="translate(18.808597, 191.75404)"><g><path d="M 62.082031 20.820312 C 49.410156 21.839844 77.238281 -59.535156 44.890625 -60.746094 C 32.664062 -61.191406 21.140625 -48.394531 20.3125 -24.515625 C 4.585938 -31.265625 -4.585938 -18.339844 1.972656 -7.640625 L 3.628906 -7.640625 C -3.375 -16.492188 3.628906 -30.246094 20.183594 -23.625 C 20.441406 -9.105469 25.980469 -2.992188 30.820312 -3.628906 C 35.402344 -4.265625 38.839844 -15.34375 21.585938 -24.195312 C 21.523438 -45.589844 31.644531 -58.644531 44 -59.789062 C 71.378906 -62.273438 44 21.140625 61.890625 21.839844 C 76.15625 22.414062 79.402344 -56.351562 99.332031 -60.109375 C 99.269531 -60.300781 99.460938 -61.128906 99.078125 -61.0625 C 78 -56.480469 75.007812 19.804688 62.082031 20.820312 Z M 31.199219 -4.519531 C 27.570312 -3.691406 22.285156 -6.875 21.394531 -23.113281 C 36.742188 -14.898438 34.128906 -5.222656 31.199219 -4.519531 Z M 31.199219 -4.519531 "/></g></g></g><g fill="#ffffff" fill-opacity="1"><g transform="translate(230.126137, 189.64966)"><g><path d="M 77.683594 -8.914062 C 68.132812 -5.09375 81.632812 -42.40625 78.320312 -51.640625 C 77.429688 -54.125 75.519531 -55.269531 73.164062 -53.804688 C 65.710938 -49.15625 54.886719 -22.988281 47.691406 -2.417969 C 52.722656 -26.933594 59.21875 -59.789062 42.472656 -60.9375 C 30.4375 -61.765625 20.375 -47.183594 20.441406 -31.835938 C 4.710938 -38.585938 -4.457031 -25.660156 2.101562 -14.964844 L 3.757812 -14.964844 C -3.246094 -23.8125 3.757812 -37.566406 20.3125 -30.945312 C 20.566406 -16.429688 26.105469 -10.316406 30.945312 -10.953125 C 35.53125 -11.589844 38.96875 -22.667969 21.714844 -31.519531 C 21.265625 -45.144531 30.753906 -61.253906 42.472656 -59.917969 C 63.929688 -57.5 35.46875 11.460938 40.179688 22.285156 C 41.199219 24.640625 44.316406 24.453125 44 21.585938 C 43.679688 18.71875 44.828125 14.453125 46.417969 8.023438 C 53.933594 -21.839844 68.769531 -51.320312 73.863281 -52.914062 C 79.273438 -54.632812 62.210938 -11.84375 75.519531 -7.324219 C 81.886719 -5.15625 96.339844 -33.429688 104.871094 -48.011719 C 103.726562 -26.488281 87.554688 17.574219 100.414062 21.96875 C 107.738281 24.453125 125.566406 -3.949219 132.953125 -14.898438 C 132.953125 -15.21875 132.125 -15.34375 131.871094 -15.027344 C 128.816406 -11.523438 112.386719 16.746094 102.324219 20.757812 C 92.011719 24.832031 112.960938 -40.496094 108.4375 -49.222656 C 107.867188 -50.304688 105.699219 -51.195312 103.40625 -47.820312 C 97.996094 -38.777344 84.179688 -11.523438 77.683594 -8.914062 Z M 31.328125 -11.84375 C 27.699219 -11.015625 22.414062 -14.199219 21.523438 -30.4375 C 36.867188 -22.222656 34.257812 -12.542969 31.328125 -11.84375 Z M 31.328125 -11.84375 "/></g></g></g><g fill="#d9d9d9" fill-opacity="1"><g transform="translate(125.468904, 252.639226)"><g><path d="M 7.140625 0.25 C 5.898438 0.25 4.851562 -0.132812 4 -0.90625 C 3.144531 -1.675781 2.503906 -2.722656 2.078125 -4.046875 C 1.660156 -5.367188 1.453125 -6.859375 1.453125 -8.515625 C 1.453125 -10.160156 1.660156 -11.644531 2.078125 -12.96875 C 2.503906 -14.289062 3.144531 -15.335938 4 -16.109375 C 4.851562 -16.878906 5.898438 -17.265625 7.140625 -17.265625 C 8.390625 -17.265625 9.441406 -16.878906 10.296875 -16.109375 C 11.148438 -15.335938 11.785156 -14.289062 12.203125 -12.96875 C 12.628906 -11.644531 12.84375 -10.160156 12.84375 -8.515625 C 12.84375 -6.859375 12.628906 -5.367188 12.203125 -4.046875 C 11.785156 -2.722656 11.148438 -1.675781 10.296875 -0.90625 C 9.441406 -0.132812 8.390625 0.25 7.140625 0.25 Z M 7.140625 -0.78125 C 8.648438 -0.78125 9.804688 -1.484375 10.609375 -2.890625 C 11.410156 -4.304688 11.8125 -6.179688 11.8125 -8.515625 C 11.8125 -10.847656 11.410156 -12.71875 10.609375 -14.125 C 9.804688 -15.53125 8.648438 -16.234375 7.140625 -16.234375 C 5.640625 -16.234375 4.488281 -15.53125 3.6875 -14.125 C 2.882812 -12.71875 2.484375 -10.847656 2.484375 -8.515625 C 2.484375 -6.179688 2.882812 -4.304688 3.6875 -2.890625 C 4.488281 -1.484375 5.640625 -0.78125 7.140625 -0.78125 Z M 7.140625 -0.78125 "/></g></g></g><g fill="#d9d9d9" fill-opacity="1"><g transform="translate(145.620835, 252.639226)"><g><path d="M 11.09375 -6.390625 C 11.21875 -6.390625 11.328125 -6.34375 11.421875 -6.25 C 11.523438 -6.164062 11.578125 -6.0625 11.578125 -5.9375 C 11.578125 -5.800781 11.523438 -5.6875 11.421875 -5.59375 C 11.328125 -5.507812 11.21875 -5.46875 11.09375 -5.46875 L 9.234375 -5.46875 L 9.234375 -0.484375 C 9.234375 -0.359375 9.1875 -0.242188 9.09375 -0.140625 C 9 -0.046875 8.882812 0 8.75 0 C 8.601562 0 8.484375 -0.046875 8.390625 -0.140625 C 8.304688 -0.242188 8.265625 -0.359375 8.265625 -0.484375 L 8.265625 -5.46875 L 0.84375 -5.46875 C 0.695312 -5.46875 0.578125 -5.519531 0.484375 -5.625 C 0.398438 -5.726562 0.359375 -5.847656 0.359375 -5.984375 C 0.359375 -6.109375 0.398438 -6.210938 0.484375 -6.296875 L 8.34375 -16.828125 C 8.4375 -16.953125 8.570312 -17.015625 8.75 -17.015625 C 8.894531 -17.015625 9.007812 -16.96875 9.09375 -16.875 C 9.1875 -16.78125 9.234375 -16.664062 9.234375 -16.53125 L 9.234375 -6.390625 Z M 1.78125 -6.390625 L 8.265625 -6.390625 L 8.265625 -15.125 Z M 1.78125 -6.390625 "/></g></g></g><g fill="#d9d9d9" fill-opacity="1"><g transform="translate(163.755482, 252.639226)"><g><path d="M 1.875 0 C 1.664062 0 1.503906 -0.0664062 1.390625 -0.203125 C 1.273438 -0.335938 1.21875 -0.519531 1.21875 -0.75 L 1.21875 -1.3125 C 1.21875 -1.539062 1.273438 -1.722656 1.390625 -1.859375 C 1.503906 -1.992188 1.664062 -2.0625 1.875 -2.0625 L 1.96875 -2.0625 C 2.175781 -2.0625 2.335938 -1.992188 2.453125 -1.859375 C 2.566406 -1.722656 2.625 -1.539062 2.625 -1.3125 L 2.625 -0.75 C 2.625 -0.519531 2.566406 -0.335938 2.453125 -0.203125 C 2.335938 -0.0664062 2.175781 0 1.96875 0 Z M 1.875 0 "/></g></g></g><g fill="#d9d9d9" fill-opacity="1"><g transform="translate(173.456372, 252.639226)"><g><path d="M 7.140625 0.25 C 5.898438 0.25 4.851562 -0.132812 4 -0.90625 C 3.144531 -1.675781 2.503906 -2.722656 2.078125 -4.046875 C 1.660156 -5.367188 1.453125 -6.859375 1.453125 -8.515625 C 1.453125 -10.160156 1.660156 -11.644531 2.078125 -12.96875 C 2.503906 -14.289062 3.144531 -15.335938 4 -16.109375 C 4.851562 -16.878906 5.898438 -17.265625 7.140625 -17.265625 C 8.390625 -17.265625 9.441406 -16.878906 10.296875 -16.109375 C 11.148438 -15.335938 11.785156 -14.289062 12.203125 -12.96875 C 12.628906 -11.644531 12.84375 -10.160156 12.84375 -8.515625 C 12.84375 -6.859375 12.628906 -5.367188 12.203125 -4.046875 C 11.785156 -2.722656 11.148438 -1.675781 10.296875 -0.90625 C 9.441406 -0.132812 8.390625 0.25 7.140625 0.25 Z M 7.140625 -0.78125 C 8.648438 -0.78125 9.804688 -1.484375 10.609375 -2.890625 C 11.410156 -4.304688 11.8125 -6.179688 11.8125 -8.515625 C 11.8125 -10.847656 11.410156 -12.71875 10.609375 -14.125 C 9.804688 -15.53125 8.648438 -16.234375 7.140625 -16.234375 C 5.640625 -16.234375 4.488281 -15.53125 3.6875 -14.125 C 2.882812 -12.71875 2.484375 -10.847656 2.484375 -8.515625 C 2.484375 -6.179688 2.882812 -4.304688 3.6875 -2.890625 C 4.488281 -1.484375 5.640625 -0.78125 7.140625 -0.78125 Z M 7.140625 -0.78125 "/></g></g></g><g fill="#d9d9d9" fill-opacity="1"><g transform="translate(193.608304, 252.639226)"><g><path d="M 4.9375 -17.046875 C 5.082031 -17.046875 5.195312 -16.992188 5.28125 -16.890625 C 5.375 -16.796875 5.421875 -16.675781 5.421875 -16.53125 L 5.421875 -0.484375 C 5.421875 -0.359375 5.367188 -0.242188 5.265625 -0.140625 C 5.171875 -0.046875 5.050781 0 4.90625 0 C 4.757812 0 4.640625 -0.046875 4.546875 -0.140625 C 4.453125 -0.242188 4.40625 -0.359375 4.40625 -0.484375 L 4.40625 -15.609375 L 0.84375 -13.5 C 0.800781 -13.457031 0.738281 -13.4375 0.65625 -13.4375 C 0.507812 -13.4375 0.382812 -13.5 0.28125 -13.625 C 0.175781 -13.75 0.125 -13.867188 0.125 -13.984375 C 0.125 -14.128906 0.210938 -14.265625 0.390625 -14.390625 L 4.640625 -16.953125 C 4.722656 -17.015625 4.820312 -17.046875 4.9375 -17.046875 Z M 4.9375 -17.046875 "/></g></g></g><g fill="#d9d9d9" fill-opacity="1"><g transform="translate(207.319481, 252.639226)"><g><path d="M 1.875 0 C 1.664062 0 1.503906 -0.0664062 1.390625 -0.203125 C 1.273438 -0.335938 1.21875 -0.519531 1.21875 -0.75 L 1.21875 -1.3125 C 1.21875 -1.539062 1.273438 -1.722656 1.390625 -1.859375 C 1.503906 -1.992188 1.664062 -2.0625 1.875 -2.0625 L 1.96875 -2.0625 C 2.175781 -2.0625 2.335938 -1.992188 2.453125 -1.859375 C 2.566406 -1.722656 2.625 -1.539062 2.625 -1.3125 L 2.625 -0.75 C 2.625 -0.519531 2.566406 -0.335938 2.453125 -0.203125 C 2.335938 -0.0664062 2.175781 0 1.96875 0 Z M 1.875 0 "/></g></g></g><g fill="#d9d9d9" fill-opacity="1"><g transform="translate(217.020373, 252.639226)"><g><path d="M 12.328125 -0.96875 C 12.453125 -0.96875 12.5625 -0.921875 12.65625 -0.828125 C 12.757812 -0.734375 12.8125 -0.617188 12.8125 -0.484375 C 12.8125 -0.335938 12.757812 -0.21875 12.65625 -0.125 C 12.5625 -0.0390625 12.453125 0 12.328125 0 L 2.9375 0 C 2.78125 0 2.640625 -0.0390625 2.515625 -0.125 C 2.390625 -0.207031 2.328125 -0.335938 2.328125 -0.515625 C 2.328125 -0.609375 2.367188 -0.710938 2.453125 -0.828125 L 8.171875 -7.203125 C 9.191406 -8.285156 9.9375 -9.234375 10.40625 -10.046875 C 10.875 -10.867188 11.109375 -11.675781 11.109375 -12.46875 C 11.109375 -13.6875 10.75 -14.628906 10.03125 -15.296875 C 9.3125 -15.960938 8.273438 -16.296875 6.921875 -16.296875 C 6.035156 -16.296875 5.253906 -16.09375 4.578125 -15.6875 C 3.910156 -15.289062 3.429688 -14.664062 3.140625 -13.8125 C 3.109375 -13.707031 3.054688 -13.613281 2.984375 -13.53125 C 2.910156 -13.457031 2.804688 -13.421875 2.671875 -13.421875 C 2.554688 -13.421875 2.4375 -13.457031 2.3125 -13.53125 C 2.195312 -13.613281 2.140625 -13.707031 2.140625 -13.8125 C 2.140625 -13.894531 2.179688 -14.039062 2.265625 -14.25 C 2.628906 -15.21875 3.238281 -15.960938 4.09375 -16.484375 C 4.945312 -17.003906 5.914062 -17.265625 7 -17.265625 C 8.632812 -17.265625 9.90625 -16.832031 10.8125 -15.96875 C 11.726562 -15.113281 12.1875 -13.976562 12.1875 -12.5625 C 12.1875 -11.707031 11.945312 -10.828125 11.46875 -9.921875 C 11 -9.015625 10.164062 -7.910156 8.96875 -6.609375 L 4.015625 -0.96875 Z M 12.328125 -0.96875 "/></g></g></g><g fill="#d9d9d9" fill-opacity="1"><g transform="translate(236.904962, 252.639226)"><g><path d="M 5.890625 -10.75 C 6.796875 -10.75 7.648438 -10.546875 8.453125 -10.140625 C 9.265625 -9.734375 9.925781 -9.125 10.4375 -8.3125 C 10.945312 -7.5 11.203125 -6.519531 11.203125 -5.375 C 11.203125 -4.289062 10.9375 -3.320312 10.40625 -2.46875 C 9.882812 -1.613281 9.175781 -0.945312 8.28125 -0.46875 C 7.394531 0.0078125 6.429688 0.25 5.390625 0.25 C 4.660156 0.25 3.96875 0.117188 3.3125 -0.140625 C 2.65625 -0.398438 2.085938 -0.789062 1.609375 -1.3125 C 1.503906 -1.40625 1.453125 -1.519531 1.453125 -1.65625 C 1.453125 -1.78125 1.5 -1.898438 1.59375 -2.015625 C 1.695312 -2.128906 1.820312 -2.1875 1.96875 -2.1875 C 2.113281 -2.1875 2.257812 -2.101562 2.40625 -1.9375 C 3.125 -1.164062 4.117188 -0.78125 5.390625 -0.78125 C 6.285156 -0.78125 7.097656 -0.972656 7.828125 -1.359375 C 8.554688 -1.742188 9.128906 -2.289062 9.546875 -3 C 9.972656 -3.707031 10.1875 -4.5 10.1875 -5.375 C 10.1875 -6.363281 9.960938 -7.1875 9.515625 -7.84375 C 9.066406 -8.5 8.484375 -8.976562 7.765625 -9.28125 C 7.054688 -9.59375 6.304688 -9.75 5.515625 -9.75 C 5.359375 -9.75 5.160156 -9.734375 4.921875 -9.703125 C 4.691406 -9.679688 4.554688 -9.671875 4.515625 -9.671875 C 4.367188 -9.671875 4.25 -9.71875 4.15625 -9.8125 C 4.070312 -9.914062 4.03125 -10.050781 4.03125 -10.21875 C 4.03125 -10.363281 4.070312 -10.472656 4.15625 -10.546875 L 9.0625 -16.046875 L 1.703125 -16.046875 C 1.566406 -16.046875 1.453125 -16.09375 1.359375 -16.1875 C 1.265625 -16.289062 1.21875 -16.40625 1.21875 -16.53125 C 1.21875 -16.675781 1.265625 -16.789062 1.359375 -16.875 C 1.453125 -16.96875 1.566406 -17.015625 1.703125 -17.015625 L 10.109375 -17.015625 C 10.285156 -17.015625 10.414062 -16.953125 10.5 -16.828125 C 10.582031 -16.710938 10.625 -16.609375 10.625 -16.515625 C 10.625 -16.378906 10.578125 -16.265625 10.484375 -16.171875 L 5.640625 -10.71875 C 5.703125 -10.738281 5.785156 -10.75 5.890625 -10.75 Z M 5.890625 -10.75 "/></g></g></g></svg>