<svg xmlns="http://www.w3.org/2000/svg" xmlns:xlink="http://www.w3.org/1999/xlink" width="500" zoomAndPan="magnify" viewBox="0 0 375 374.999991" height="500" preserveAspectRatio="xMidYMid meet" version="1.0"><defs><g/><clipPath id="7646c20d08"><path d="M 100.277344 113.566406 L 235.277344 113.566406 L 235.277344 172.816406 L 100.277344 172.816406 Z M 100.277344 113.566406 " clip-rule="nonzero"/></clipPath></defs><g clip-path="url(#7646c20d08)"><path fill="#d9d9d9" d="M 234.996094 153.875 C 234.898438 153.859375 234.753906 153.882812 234.703125 153.941406 C 234.054688 154.738281 233.425781 155.539062 232.773438 156.328125 C 231.765625 157.554688 230.710938 158.734375 229.542969 159.820312 C 226.523438 162.625 223.113281 164.839844 219.398438 166.582031 C 217.34375 167.546875 215.210938 168.308594 213.03125 168.9375 C 209.824219 169.863281 206.578125 170.617188 203.261719 171.078125 C 201.910156 171.265625 200.558594 171.335938 199.203125 171.464844 C 195.691406 171.789062 192.179688 171.648438 188.695312 171.207031 C 184.695312 170.703125 180.804688 169.710938 177.007812 168.332031 C 171.828125 166.460938 166.914062 164.011719 162.246094 161.082031 C 161.632812 160.703125 160.941406 160.261719 160.277344 159.761719 L 162.410156 157.988281 C 167.664062 153.707031 172.394531 148.914062 176.429688 143.449219 C 178.113281 141.160156 179.640625 138.769531 180.957031 136.253906 C 181.875 134.488281 182.695312 132.675781 183.234375 130.753906 C 183.945312 128.214844 184.324219 125.65625 183.796875 123.015625 C 183.082031 119.375 181.144531 116.667969 177.863281 114.957031 C 176.015625 113.992188 174.03125 113.625 171.957031 113.675781 C 169.5 113.730469 167.292969 114.476562 165.324219 115.957031 C 163.351562 117.441406 161.746094 119.25 160.527344 121.40625 C 160.394531 121.652344 160.246094 121.886719 160.074219 122.113281 C 160.035156 122.160156 159.824219 122.160156 159.785156 122.105469 C 158.992188 121.140625 158.195312 120.183594 157.210938 119.402344 C 155.777344 118.277344 154.253906 117.300781 152.613281 116.511719 C 151.179688 115.820312 149.65625 115.363281 148.070312 115.179688 C 145.507812 114.890625 143.105469 115.371094 140.980469 116.921875 C 139.777344 117.792969 138.769531 118.859375 137.988281 120.136719 C 136.441406 122.65625 135.621094 125.410156 135.578125 128.371094 C 135.527344 131.308594 136.171875 134.121094 137.355469 136.800781 C 138.714844 139.878906 140.398438 142.769531 142.492188 145.402344 C 145.359375 149.019531 148.601562 152.265625 152.105469 155.253906 C 153.75 156.652344 155.441406 157.980469 157.1875 159.246094 C 157.414062 159.414062 157.632812 159.597656 157.851562 159.773438 C 158.019531 159.910156 158.234375 160.066406 158.234375 160.066406 C 155.269531 161.996094 152.410156 163.875 149.195312 165.359375 C 147.910156 165.953125 146.609375 166.523438 145.277344 166.996094 C 141.007812 168.53125 136.636719 169.679688 132.125 170.242188 C 128.289062 170.71875 124.453125 170.785156 120.617188 170.25 C 119.714844 170.121094 118.832031 169.941406 117.9375 169.789062 C 115.875 169.425781 113.800781 169.121094 111.753906 168.6875 C 109.757812 168.265625 107.742188 168.007812 105.507812 167.640625 C 104.171875 167.511719 102.65625 167.402344 101.128906 167.433594 C 100.917969 167.558594 100.679688 167.648438 100.402344 167.695312 C 100.390625 167.871094 100.34375 168.054688 100.277344 168.242188 C 100.378906 168.34375 100.476562 168.453125 100.566406 168.570312 C 100.566406 168.570312 100.570312 168.570312 100.570312 168.570312 C 100.359375 168.296875 100.46875 168.417969 100.609375 168.574219 C 100.761719 168.582031 100.914062 168.589844 101.085938 168.59375 C 101.296875 168.59375 101.496094 168.636719 101.691406 168.699219 C 101.96875 168.6875 102.25 168.683594 102.53125 168.6875 C 104.628906 168.699219 106.710938 168.945312 108.78125 169.277344 C 109.507812 169.394531 110.222656 169.570312 110.949219 169.699219 C 112.839844 170.03125 114.742188 170.324219 116.628906 170.703125 C 118.6875 171.117188 120.765625 171.347656 122.847656 171.546875 C 126.191406 171.863281 129.527344 171.734375 132.835938 171.238281 C 142.113281 169.859375 150.609375 166.464844 158.363281 161.179688 C 158.65625 160.984375 158.925781 160.773438 159.203125 160.554688 C 163.066406 163.03125 168.003906 165.835938 172.210938 167.640625 C 178.132812 170.171875 184.242188 171.953125 190.691406 172.460938 C 194.433594 172.761719 198.167969 172.636719 201.882812 172.214844 C 205.203125 171.84375 208.464844 171.125 211.683594 170.214844 C 215.300781 169.203125 218.777344 167.871094 222.09375 166.101562 C 227.179688 163.378906 231.402344 159.664062 234.796875 155.007812 C 234.96875 154.785156 235.082031 154.519531 235.210938 154.269531 C 235.273438 154.132812 235.171875 153.875 234.996094 153.875 Z M 159.359375 159.15625 C 154.046875 155.328125 148.574219 150.46875 144.480469 145.328125 C 142.640625 143.019531 141.070312 140.527344 139.75 137.875 C 138.835938 136.035156 138.132812 134.128906 137.746094 132.105469 C 137.273438 129.621094 137.21875 127.140625 137.921875 124.683594 C 138.269531 123.484375 138.75 122.335938 139.398438 121.257812 C 139.832031 120.523438 140.359375 119.859375 140.953125 119.242188 C 142.523438 117.605469 144.445312 116.785156 146.707031 116.714844 C 148.140625 116.667969 149.519531 116.863281 150.878906 117.328125 C 153.214844 118.121094 155.304688 119.34375 157.171875 120.945312 C 157.902344 121.570312 158.566406 122.277344 159.054688 123.125 C 159.269531 123.496094 159.324219 123.851562 159.148438 124.25 C 159.085938 124.394531 159.074219 124.597656 159.121094 124.726562 C 159.175781 124.863281 159.332031 124.976562 159.472656 125.046875 C 159.539062 125.078125 159.703125 125.015625 159.769531 124.949219 C 159.925781 124.792969 160.082031 124.617188 160.1875 124.429688 C 161.21875 122.582031 162.550781 120.964844 163.808594 119.28125 C 164.492188 118.371094 165.320312 117.589844 166.230469 116.914062 C 168.722656 115.058594 171.488281 114.367188 174.5625 114.921875 C 176.097656 115.203125 177.511719 115.71875 178.78125 116.613281 C 180.820312 118.039062 182.097656 119.992188 182.734375 122.386719 C 183.023438 123.484375 183.1875 124.613281 183.132812 125.554688 C 183.132812 127.890625 182.632812 129.925781 181.929688 131.910156 C 181.351562 133.519531 180.609375 135.042969 179.796875 136.542969 C 177.902344 140.054688 175.617188 143.292969 173.078125 146.351562 C 169.335938 150.867188 165.09375 154.859375 160.453125 158.4375 C 160.183594 158.648438 159.695312 159.019531 159.40625 159.183594 Z M 159.359375 159.15625 " fill-opacity="1" fill-rule="nonzero"/></g><g fill="#ffffff" fill-opacity="1"><g transform="translate(8.953129, 223.120673)"><g><path d="M 61.242188 1.828125 C 62.15625 2.132812 62.917969 2.132812 63.527344 2.132812 L 64.136719 2.132812 C 64.746094 2.132812 65.660156 1.523438 66.878906 0.457031 C 68.402344 -0.761719 70.078125 -3.960938 72.058594 -8.835938 C 73.886719 -13.710938 76.476562 -21.480469 79.523438 -32.144531 C 85.160156 -52.101562 90.796875 -69.316406 96.433594 -83.636719 C 101.917969 -97.957031 108.164062 -111.058594 114.867188 -122.789062 C 116.542969 -125.683594 117.609375 -127.816406 118.21875 -129.035156 C 118.371094 -129.644531 118.523438 -130.101562 118.523438 -130.710938 C 118.523438 -131.015625 118.371094 -131.167969 118.371094 -131.472656 C 117.761719 -132.082031 116.085938 -132.996094 113.648438 -134.519531 C 111.210938 -135.738281 109.6875 -136.347656 109.078125 -136.347656 L 108.925781 -136.347656 C 108.46875 -136.195312 107.554688 -134.976562 106.03125 -132.539062 C 104.507812 -129.949219 102.679688 -126.902344 100.851562 -123.398438 C 99.785156 -121.417969 98.71875 -119.4375 97.652344 -117.609375 C 96.585938 -115.476562 95.671875 -113.496094 94.757812 -111.667969 C 90.492188 -103.136719 86.074219 -92.167969 81.351562 -78.761719 C 76.476562 -65.355469 72.210938 -51.949219 68.554688 -38.542969 C 66.726562 -32.144531 64.746094 -26.203125 62.917969 -20.414062 C 60.9375 -14.625 59.566406 -10.96875 58.804688 -9.445312 C 58.195312 -8.683594 57.890625 -8.378906 57.890625 -8.53125 C 57.585938 -8.53125 57.28125 -9.292969 56.976562 -10.664062 C 56.0625 -13.253906 55.453125 -17.824219 54.996094 -24.222656 C 54.386719 -30.621094 54.082031 -38.238281 54.082031 -46.769531 C 53.929688 -51.339844 53.929688 -56.0625 54.082031 -61.242188 C 54.082031 -66.117188 54.234375 -71.296875 54.539062 -76.476562 C 54.691406 -84.398438 54.539062 -91.710938 54.082031 -98.71875 C 53.472656 -105.574219 52.558594 -110.296875 51.492188 -113.039062 C 50.121094 -115.933594 47.835938 -118.675781 44.789062 -121.417969 C 41.589844 -123.855469 38.238281 -125.683594 34.886719 -126.75 C 31.078125 -127.664062 27.421875 -127.207031 23.765625 -125.378906 C 20.109375 -123.398438 16.300781 -120.046875 12.644531 -115.171875 C 5.789062 -106.335938 1.980469 -96.738281 1.066406 -86.378906 C 0.761719 -84.703125 0.761719 -83.027344 0.761719 -81.351562 C 0.761719 -72.820312 2.894531 -65.203125 7.160156 -58.195312 C 8.226562 -56.367188 9.292969 -54.996094 10.207031 -54.082031 C 10.96875 -53.167969 12.1875 -52.40625 13.710938 -51.644531 C 16.757812 -49.96875 18.585938 -49.359375 19.042969 -49.96875 C 19.347656 -50.425781 18.738281 -52.253906 16.910156 -55.453125 C 16.910156 -55.453125 16.148438 -56.976562 14.929688 -59.71875 C 13.710938 -62.460938 12.644531 -65.8125 12.035156 -70.078125 C 11.425781 -73.125 11.425781 -76.171875 11.730469 -79.21875 C 11.882812 -82.265625 12.339844 -85.007812 13.101562 -87.75 C 14.320312 -92.625 16.148438 -96.890625 18.28125 -100.546875 C 20.261719 -104.050781 21.632812 -106.335938 22.394531 -107.402344 C 24.832031 -110.753906 27.117188 -113.34375 29.554688 -115.476562 C 31.839844 -117.609375 33.972656 -118.828125 36.105469 -119.4375 C 37.324219 -119.742188 38.238281 -119.894531 38.695312 -119.742188 C 39 -119.589844 39.457031 -119.132812 40.066406 -118.21875 C 40.371094 -117.609375 40.675781 -116.542969 41.285156 -115.019531 C 41.589844 -113.34375 42.046875 -111.667969 42.351562 -109.992188 C 42.960938 -106.640625 43.265625 -102.679688 43.417969 -98.109375 C 43.417969 -93.386719 43.265625 -85.464844 42.960938 -74.34375 C 42.351562 -55.757812 42.65625 -40.523438 43.875 -28.792969 C 45.09375 -16.910156 47.074219 -8.988281 50.121094 -5.332031 C 51.035156 -3.960938 52.710938 -2.589844 55.148438 -1.066406 C 57.433594 0.457031 59.414062 1.371094 61.242188 1.828125 Z M 61.242188 1.828125 "/></g></g></g><g fill="#ffffff" fill-opacity="1"><g transform="translate(197.47672, 208.681085)"><g><path d="M 137.339844 29.113281 C 138.101562 29.722656 138.863281 30.332031 139.78125 30.640625 C 140.542969 31.097656 141.152344 31.25 141.609375 31.25 C 142.21875 31.25 142.675781 31.097656 142.675781 30.792969 C 142.675781 30.484375 142.21875 29.722656 141.457031 28.199219 C 140.238281 25.761719 139.324219 23.320312 138.710938 20.730469 C 138.101562 18.140625 137.796875 15.242188 137.949219 12.042969 C 137.949219 6.25 139.476562 -1.371094 142.371094 -10.671875 C 145.113281 -19.816406 149.535156 -32.164062 155.632812 -47.863281 C 157.15625 -51.980469 158.679688 -55.636719 159.902344 -58.839844 L 163.101562 -67.375 C 164.625 -71.949219 165.691406 -75.605469 166.304688 -78.351562 C 166.914062 -81.09375 167.21875 -83.683594 167.371094 -86.429688 C 167.371094 -87.648438 167.523438 -88.867188 167.523438 -90.085938 C 167.523438 -92.832031 167.21875 -95.117188 166.761719 -96.945312 C 165.996094 -99.234375 164.472656 -101.519531 162.339844 -103.957031 C 158.679688 -107.3125 155.175781 -109.292969 151.667969 -110.207031 C 148.164062 -110.816406 144.503906 -110.359375 140.695312 -108.53125 C 136.425781 -106.398438 131.089844 -101.671875 124.6875 -94.203125 C 118.132812 -86.734375 111.886719 -78.046875 105.789062 -68.136719 C 104.414062 -66.003906 103.195312 -64.324219 102.28125 -62.800781 C 101.367188 -61.277344 100.757812 -60.667969 100.757812 -60.667969 C 100.757812 -60.667969 100.757812 -61.429688 100.910156 -62.648438 C 100.910156 -63.867188 101.0625 -65.242188 101.367188 -66.917969 C 101.976562 -71.1875 102.128906 -75.453125 101.824219 -79.722656 C 101.519531 -83.835938 100.757812 -86.734375 99.84375 -88.5625 C 98.929688 -90.085938 97.25 -91.765625 95.117188 -93.59375 C 92.984375 -95.421875 91 -96.640625 89.171875 -97.25 C 88.257812 -97.554688 87.496094 -97.554688 86.886719 -97.554688 C 86.125 -97.402344 85.210938 -97.097656 83.988281 -96.640625 C 81.550781 -95.421875 77.890625 -92.222656 73.320312 -87.039062 C 68.59375 -81.550781 64.480469 -76.0625 60.972656 -70.421875 C 60.210938 -69.203125 59.601562 -68.289062 59.144531 -67.679688 C 58.535156 -66.917969 58.230469 -66.613281 58.230469 -66.613281 C 58.230469 -66.613281 58.382812 -67.679688 58.6875 -69.660156 C 58.992188 -71.492188 59.296875 -73.929688 59.90625 -76.671875 C 60.667969 -80.484375 61.277344 -83.835938 61.582031 -86.734375 C 61.886719 -89.476562 62.039062 -93.289062 62.039062 -98.164062 C 62.039062 -103.652344 61.886719 -107.160156 61.734375 -108.835938 C 61.582031 -110.359375 61.125 -112.191406 60.363281 -114.019531 C 59.753906 -115.085938 59.144531 -116.304688 58.230469 -117.523438 C 57.3125 -118.746094 56.398438 -119.660156 55.789062 -120.421875 C 50.757812 -124.992188 46.035156 -127.28125 41.613281 -127.28125 C 41.003906 -127.28125 40.394531 -127.128906 39.9375 -127.128906 C 34.90625 -126.519531 29.113281 -122.859375 22.558594 -116.152344 C 15.546875 -109.140625 10.058594 -101.367188 6.097656 -92.832031 C 1.980469 -84.292969 -0.304688 -75.605469 -0.609375 -66.917969 C -0.761719 -64.9375 -0.761719 -63.257812 -0.761719 -61.734375 C -0.761719 -58.992188 -0.609375 -57.007812 -0.304688 -55.636719 C 0.152344 -53.503906 1.371094 -51.675781 3.507812 -49.996094 C 6.554688 -47.558594 8.230469 -46.644531 8.839844 -47.253906 C 9.296875 -47.863281 9.601562 -51.066406 9.90625 -57.160156 C 9.90625 -61.582031 10.058594 -64.785156 10.367188 -66.917969 C 10.671875 -68.898438 11.128906 -71.339844 12.042969 -74.234375 C 13.109375 -77.890625 14.480469 -81.398438 16.308594 -85.058594 C 17.835938 -88.714844 19.816406 -92.070312 21.949219 -95.421875 C 25.914062 -101.519531 30.179688 -106.703125 34.90625 -111.121094 C 39.480469 -115.390625 43.898438 -118.132812 48.015625 -119.050781 C 49.234375 -119.203125 49.996094 -119.203125 50.300781 -119.050781 C 50.453125 -118.746094 50.757812 -117.828125 51.371094 -116.304688 C 52.132812 -113.257812 52.285156 -108.074219 51.675781 -100.757812 C 51.066406 -93.441406 49.996094 -85.515625 48.320312 -77.28125 C 45.882812 -66.003906 43.898438 -56.550781 42.222656 -48.929688 C 40.394531 -41.308594 38.566406 -34.449219 36.886719 -28.503906 C 35.820312 -24.542969 35.058594 -21.796875 34.753906 -19.96875 C 34.449219 -18.140625 34.296875 -16.917969 34.601562 -16.613281 C 35.058594 -15.851562 36.429688 -14.632812 38.871094 -13.109375 C 41.308594 -11.28125 42.679688 -10.519531 43.289062 -10.519531 C 43.59375 -10.519531 43.898438 -10.976562 44.511719 -12.195312 C 45.121094 -13.109375 45.730469 -14.480469 46.339844 -16.003906 C 48.015625 -20.425781 50.148438 -25.152344 52.742188 -30.332031 C 55.179688 -35.210938 57.925781 -40.242188 60.820312 -45.425781 C 66.003906 -54.875 71.492188 -63.410156 76.976562 -71.339844 C 82.464844 -79.113281 86.734375 -84.140625 90.085938 -86.429688 C 90.695312 -86.886719 91.304688 -87.34375 91.765625 -87.648438 L 91.304688 -79.417969 C 91 -73.929688 90.085938 -67.527344 88.867188 -59.90625 C 87.496094 -52.132812 85.667969 -43.746094 83.53125 -34.753906 C 82.160156 -29.265625 81.246094 -25.457031 80.941406 -23.167969 C 80.484375 -20.730469 80.484375 -19.359375 80.789062 -18.902344 C 81.246094 -18.140625 82.617188 -16.917969 85.058594 -15.242188 C 87.496094 -13.566406 89.019531 -12.804688 89.628906 -12.804688 C 89.78125 -12.804688 90.695312 -14.175781 92.375 -17.074219 C 93.898438 -19.96875 95.726562 -23.472656 97.859375 -27.589844 C 103.652344 -39.480469 108.835938 -49.082031 113.410156 -56.550781 C 117.675781 -63.867188 122.707031 -71.339844 128.347656 -78.960938 C 133.226562 -85.515625 138.101562 -90.847656 142.828125 -95.117188 C 147.402344 -99.082031 151.363281 -101.519531 154.566406 -102.128906 L 157.308594 -102.585938 C 157.15625 -98.929688 157.003906 -96.183594 157.003906 -94.355469 C 156.699219 -91 156.394531 -87.953125 155.9375 -85.363281 C 155.328125 -82.617188 154.109375 -78.503906 152.125 -72.863281 L 148.925781 -64.324219 C 147.707031 -60.972656 146.183594 -57.160156 144.503906 -52.742188 C 141.914062 -46.1875 139.78125 -40.394531 137.949219 -35.515625 C 136.121094 -30.640625 134.597656 -26.371094 133.378906 -22.710938 C 130.9375 -15.699219 129.414062 -10.367188 128.804688 -6.402344 C 128.042969 -2.4375 127.738281 1.675781 127.738281 5.792969 C 127.738281 9.753906 127.890625 12.347656 128.195312 13.871094 C 128.347656 15.394531 128.957031 17.074219 129.871094 19.207031 C 130.9375 21.949219 132.003906 23.933594 132.921875 25 C 133.683594 26.21875 135.207031 27.589844 137.339844 29.113281 Z M 137.339844 29.113281 "/></g></g></g><g fill="#d9d9d9" fill-opacity="1"><g transform="translate(111.726399, 264.321633)"><g><path d="M 8.628906 -18.980469 C 7.960938 -19.644531 7.292969 -20.078125 6.628906 -20.234375 C 6.078125 -20.351562 5.570312 -20.429688 5.175781 -20.429688 L 4.941406 -20.429688 C 4.3125 -20.351562 3.648438 -19.84375 2.941406 -18.863281 C 2.195312 -17.882812 1.648438 -16.3125 1.292969 -14.195312 C 0.902344 -12.078125 0.746094 -10.273438 0.746094 -8.785156 L 0.746094 -8.351562 C 0.785156 -6.707031 0.980469 -5.488281 1.292969 -4.667969 C 1.53125 -4 2.039062 -3.292969 2.863281 -2.550781 C 3.648438 -1.765625 4.351562 -1.175781 4.980469 -0.863281 C 5.449219 -0.550781 5.960938 -0.429688 6.507812 -0.429688 C 6.667969 -0.429688 6.863281 -0.429688 7.058594 -0.46875 C 7.804688 -0.589844 8.390625 -0.902344 8.863281 -1.371094 C 9.648438 -2.234375 10.273438 -3.449219 10.746094 -5.058594 C 11.175781 -6.628906 11.410156 -8.429688 11.410156 -10.429688 C 11.410156 -12.351562 11.136719 -14.039062 10.667969 -15.449219 C 10.15625 -16.863281 9.488281 -18.039062 8.628906 -18.980469 Z M 3.882812 -9.527344 C 4.078125 -11.648438 4.46875 -13.488281 5.097656 -15.097656 C 5.6875 -16.664062 6.234375 -17.527344 6.707031 -17.605469 C 7.019531 -17.683594 7.410156 -17.371094 7.882812 -16.707031 C 8.3125 -16.039062 8.585938 -14.980469 8.667969 -13.488281 C 8.746094 -11.527344 8.585938 -9.726562 8.234375 -8.078125 C 7.84375 -6.390625 7.292969 -5.097656 6.589844 -4.234375 C 6.234375 -3.84375 5.882812 -3.570312 5.527344 -3.410156 C 5.136719 -3.175781 4.902344 -3.097656 4.785156 -3.097656 C 4.390625 -3.097656 4.078125 -3.726562 3.921875 -5.058594 C 3.726562 -6.351562 3.726562 -7.84375 3.882812 -9.527344 Z M 3.882812 -9.527344 "/></g></g></g><g fill="#d9d9d9" fill-opacity="1"><g transform="translate(133.44169, 264.321633)"><g><path d="M 7.566406 -0.589844 C 8.039062 -0.273438 8.351562 -0.078125 8.546875 -0.0390625 C 8.546875 0 8.585938 0 8.667969 0 C 8.746094 0 8.824219 -0.0390625 8.902344 -0.117188 C 8.902344 -0.15625 8.980469 -0.429688 9.058594 -0.941406 C 9.136719 -1.410156 9.214844 -2 9.292969 -2.667969 C 9.371094 -3.292969 9.527344 -4.429688 9.765625 -6 C 10 -7.566406 10.234375 -9.097656 10.46875 -10.628906 C 10.707031 -12.15625 10.902344 -13.527344 11.058594 -14.707031 C 11.214844 -15.882812 11.332031 -16.546875 11.332031 -16.707031 C 11.332031 -17.097656 10.941406 -17.605469 10.234375 -18.15625 C 9.527344 -18.703125 9.058594 -18.902344 8.824219 -18.664062 C 8.746094 -18.585938 8.667969 -18.234375 8.546875 -17.566406 C 8.390625 -16.863281 8.273438 -16.039062 8.15625 -15.136719 C 8 -14.195312 7.882812 -13.371094 7.765625 -12.585938 C 7.609375 -11.765625 7.527344 -11.253906 7.527344 -11.097656 C 7.449219 -10.785156 7.371094 -10.585938 7.371094 -10.429688 C 6.667969 -10.351562 6.117188 -10.273438 5.804688 -10.273438 C 5.332031 -10.195312 4.941406 -10.195312 4.628906 -10.195312 C 4.3125 -10.15625 4.117188 -10.15625 4.117188 -10.195312 C 4.039062 -10.234375 4.078125 -10.546875 4.234375 -11.097656 C 4.3125 -11.648438 4.46875 -12.273438 4.667969 -13.058594 C 4.980469 -14.390625 5.292969 -15.683594 5.570312 -17.019531 C 5.804688 -18.351562 5.960938 -19.214844 5.960938 -19.605469 C 5.960938 -19.921875 5.570312 -20.390625 4.824219 -20.980469 C 4.273438 -21.371094 3.882812 -21.605469 3.648438 -21.605469 C 3.570312 -21.605469 3.488281 -21.566406 3.449219 -21.527344 C 3.371094 -21.449219 3.332031 -21.253906 3.253906 -20.902344 C 3.136719 -20.507812 3.058594 -20.039062 2.980469 -19.566406 C 2.746094 -18.273438 2.46875 -16.941406 2.117188 -15.566406 C 1.765625 -14.15625 1.410156 -12.902344 1.019531 -11.726562 C 0.785156 -10.980469 0.628906 -10.429688 0.550781 -10.117188 C 0.511719 -9.921875 0.511719 -9.765625 0.511719 -9.6875 C 0.511719 -9.527344 0.511719 -9.449219 0.589844 -9.410156 C 0.707031 -9.136719 1.058594 -8.785156 1.609375 -8.3125 C 2.15625 -7.84375 2.550781 -7.609375 2.824219 -7.527344 C 2.902344 -7.488281 3.175781 -7.488281 3.609375 -7.527344 C 4 -7.566406 4.46875 -7.648438 4.941406 -7.726562 C 5.410156 -7.804688 5.804688 -7.84375 6.195312 -7.882812 C 6.507812 -7.882812 6.707031 -7.882812 6.785156 -7.84375 C 6.824219 -7.765625 6.824219 -7.449219 6.824219 -6.902344 C 6.785156 -6.3125 6.707031 -5.609375 6.628906 -4.785156 C 6.46875 -3.765625 6.390625 -2.980469 6.390625 -2.46875 C 6.351562 -1.921875 6.390625 -1.609375 6.46875 -1.53125 C 6.507812 -1.449219 6.628906 -1.292969 6.863281 -1.136719 C 7.058594 -0.941406 7.292969 -0.746094 7.566406 -0.589844 Z M 7.566406 -0.589844 "/></g></g></g><g fill="#d9d9d9" fill-opacity="1"><g transform="translate(154.843322, 264.321633)"><g><path d="M 1.804688 -0.589844 C 2.351562 -0.15625 2.746094 0.0390625 3.019531 0.0390625 C 3.097656 0.0390625 3.136719 0.0390625 3.214844 -0.0390625 C 3.449219 -0.195312 3.765625 -0.902344 4.234375 -2.195312 C 4.507812 -3.058594 4.707031 -3.6875 4.785156 -4.039062 C 4.785156 -4.195312 4.824219 -4.3125 4.824219 -4.46875 C 4.824219 -4.589844 4.785156 -4.707031 4.746094 -4.824219 C 4.628906 -5.058594 4.273438 -5.371094 3.6875 -5.804688 C 3.097656 -6.195312 2.707031 -6.429688 2.507812 -6.429688 C 2.351562 -6.429688 2.078125 -5.726562 1.609375 -4.3125 C 1.136719 -2.902344 0.902344 -2 0.902344 -1.648438 C 0.902344 -1.488281 0.980469 -1.332031 1.136719 -1.175781 C 1.292969 -0.980469 1.488281 -0.785156 1.804688 -0.589844 Z M 1.804688 -0.589844 "/></g></g></g><g fill="#d9d9d9" fill-opacity="1"><g transform="translate(170.167801, 264.321633)"><g><path d="M 8.628906 -18.980469 C 7.960938 -19.644531 7.292969 -20.078125 6.628906 -20.234375 C 6.078125 -20.351562 5.570312 -20.429688 5.175781 -20.429688 L 4.941406 -20.429688 C 4.3125 -20.351562 3.648438 -19.84375 2.941406 -18.863281 C 2.195312 -17.882812 1.648438 -16.3125 1.292969 -14.195312 C 0.902344 -12.078125 0.746094 -10.273438 0.746094 -8.785156 L 0.746094 -8.351562 C 0.785156 -6.707031 0.980469 -5.488281 1.292969 -4.667969 C 1.53125 -4 2.039062 -3.292969 2.863281 -2.550781 C 3.648438 -1.765625 4.351562 -1.175781 4.980469 -0.863281 C 5.449219 -0.550781 5.960938 -0.429688 6.507812 -0.429688 C 6.667969 -0.429688 6.863281 -0.429688 7.058594 -0.46875 C 7.804688 -0.589844 8.390625 -0.902344 8.863281 -1.371094 C 9.648438 -2.234375 10.273438 -3.449219 10.746094 -5.058594 C 11.175781 -6.628906 11.410156 -8.429688 11.410156 -10.429688 C 11.410156 -12.351562 11.136719 -14.039062 10.667969 -15.449219 C 10.15625 -16.863281 9.488281 -18.039062 8.628906 -18.980469 Z M 3.882812 -9.527344 C 4.078125 -11.648438 4.46875 -13.488281 5.097656 -15.097656 C 5.6875 -16.664062 6.234375 -17.527344 6.707031 -17.605469 C 7.019531 -17.683594 7.410156 -17.371094 7.882812 -16.707031 C 8.3125 -16.039062 8.585938 -14.980469 8.667969 -13.488281 C 8.746094 -11.527344 8.585938 -9.726562 8.234375 -8.078125 C 7.84375 -6.390625 7.292969 -5.097656 6.589844 -4.234375 C 6.234375 -3.84375 5.882812 -3.570312 5.527344 -3.410156 C 5.136719 -3.175781 4.902344 -3.097656 4.785156 -3.097656 C 4.390625 -3.097656 4.078125 -3.726562 3.921875 -5.058594 C 3.726562 -6.351562 3.726562 -7.84375 3.882812 -9.527344 Z M 3.882812 -9.527344 "/></g></g></g><g fill="#d9d9d9" fill-opacity="1"><g transform="translate(191.88309, 264.321633)"><g><path d="M 5.332031 -0.824219 C 5.804688 -0.511719 6.117188 -0.3125 6.3125 -0.3125 L 6.351562 -0.3125 C 6.507812 -0.3125 6.667969 -0.429688 6.785156 -0.707031 C 6.863281 -0.941406 7.058594 -1.921875 7.332031 -3.6875 C 7.566406 -5.449219 7.804688 -7.292969 8.039062 -9.214844 C 8.195312 -10.46875 8.3125 -11.648438 8.46875 -12.746094 C 8.546875 -13.804688 8.628906 -14.585938 8.667969 -15.097656 C 8.667969 -15.726562 8.707031 -16.273438 8.707031 -16.664062 C 8.707031 -16.902344 8.667969 -17.097656 8.667969 -17.253906 C 8.628906 -17.527344 8.507812 -17.84375 8.3125 -18.15625 C 8 -18.585938 7.527344 -19.019531 6.902344 -19.449219 C 6.273438 -19.84375 5.765625 -20.078125 5.410156 -20.078125 C 5.058594 -20.078125 4.507812 -19.722656 3.804688 -19.058594 C 3.097656 -18.351562 2.351562 -17.488281 1.648438 -16.46875 C 1.253906 -15.882812 0.980469 -15.488281 0.902344 -15.253906 C 0.824219 -15.097656 0.824219 -14.980469 0.824219 -14.902344 C 0.824219 -14.824219 0.824219 -14.746094 0.863281 -14.664062 C 0.980469 -14.429688 1.292969 -14.117188 1.84375 -13.726562 C 2.390625 -13.332031 2.746094 -13.175781 2.980469 -13.175781 C 3.058594 -13.175781 3.253906 -13.292969 3.527344 -13.566406 C 3.765625 -13.804688 4.078125 -14.15625 4.429688 -14.625 C 4.707031 -15.019531 4.980469 -15.332031 5.214844 -15.605469 C 5.449219 -15.882812 5.609375 -16.039062 5.648438 -16.039062 C 5.804688 -16.039062 5.84375 -15.566406 5.765625 -14.664062 C 5.6875 -13.765625 5.449219 -11.921875 5.058594 -9.175781 C 4.902344 -8.117188 4.746094 -7.214844 4.667969 -6.429688 C 4.546875 -5.648438 4.46875 -4.941406 4.429688 -4.390625 C 4.3125 -3.292969 4.3125 -2.507812 4.46875 -2.039062 C 4.589844 -1.570312 4.863281 -1.136719 5.332031 -0.824219 Z M 5.332031 -0.824219 "/></g></g></g><g fill="#d9d9d9" fill-opacity="1"><g transform="translate(211.206724, 264.321633)"><g><path d="M 1.804688 -0.589844 C 2.351562 -0.15625 2.746094 0.0390625 3.019531 0.0390625 C 3.097656 0.0390625 3.136719 0.0390625 3.214844 -0.0390625 C 3.449219 -0.195312 3.765625 -0.902344 4.234375 -2.195312 C 4.507812 -3.058594 4.707031 -3.6875 4.785156 -4.039062 C 4.785156 -4.195312 4.824219 -4.3125 4.824219 -4.46875 C 4.824219 -4.589844 4.785156 -4.707031 4.746094 -4.824219 C 4.628906 -5.058594 4.273438 -5.371094 3.6875 -5.804688 C 3.097656 -6.195312 2.707031 -6.429688 2.507812 -6.429688 C 2.351562 -6.429688 2.078125 -5.726562 1.609375 -4.3125 C 1.136719 -2.902344 0.902344 -2 0.902344 -1.648438 C 0.902344 -1.488281 0.980469 -1.332031 1.136719 -1.175781 C 1.292969 -0.980469 1.488281 -0.785156 1.804688 -0.589844 Z M 1.804688 -0.589844 "/></g></g></g><g fill="#d9d9d9" fill-opacity="1"><g transform="translate(226.531197, 264.321633)"><g><path d="M 2.3125 -0.3125 C 2.589844 -0.117188 2.824219 -0.0390625 3.058594 -0.0390625 C 3.253906 -0.0390625 3.921875 -0.195312 5.097656 -0.511719 C 5.960938 -0.746094 6.707031 -0.902344 7.292969 -0.980469 C 7.84375 -1.019531 8.902344 -1.058594 10.546875 -1.058594 C 11.488281 -1.019531 12.3125 -1.019531 13.019531 -1.097656 C 13.6875 -1.097656 14.039062 -1.136719 14.039062 -1.175781 C 14.039062 -1.332031 13.804688 -1.570312 13.410156 -1.921875 C 12.980469 -2.234375 12.546875 -2.507812 12.117188 -2.746094 C 11.804688 -2.863281 11.410156 -2.980469 10.941406 -3.058594 C 10.429688 -3.136719 9.6875 -3.175781 8.707031 -3.214844 C 8 -3.214844 7.410156 -3.253906 6.902344 -3.332031 C 6.351562 -3.332031 6.078125 -3.371094 6.078125 -3.449219 C 6.078125 -3.449219 6.15625 -3.648438 6.390625 -4.039062 C 6.589844 -4.429688 6.863281 -4.863281 7.175781 -5.371094 C 7.84375 -6.46875 8.507812 -7.6875 9.214844 -9.019531 C 9.84375 -10.351562 10.351562 -11.488281 10.707031 -12.46875 C 11.019531 -13.371094 11.214844 -14.429688 11.332031 -15.683594 C 11.410156 -16.863281 11.332031 -17.683594 11.097656 -18.15625 C 10.902344 -18.507812 10.628906 -18.902344 10.234375 -19.292969 C 9.84375 -19.683594 9.371094 -20.039062 8.863281 -20.351562 C 8.273438 -20.703125 7.6875 -20.902344 7.136719 -20.902344 C 6.507812 -20.902344 5.882812 -20.703125 5.253906 -20.351562 C 4 -19.605469 2.863281 -18.273438 1.921875 -16.351562 C 1.570312 -15.644531 1.371094 -15.175781 1.332031 -14.941406 C 1.253906 -14.707031 1.253906 -14.46875 1.332031 -14.273438 C 1.449219 -14.039062 1.804688 -13.6875 2.429688 -13.253906 C 3.019531 -12.824219 3.410156 -12.625 3.570312 -12.707031 C 3.609375 -12.707031 3.726562 -12.863281 3.921875 -13.175781 C 4.078125 -13.449219 4.273438 -13.804688 4.507812 -14.195312 C 4.667969 -14.546875 4.902344 -14.980469 5.214844 -15.449219 C 5.449219 -15.882812 5.6875 -16.234375 5.882812 -16.507812 C 6.234375 -16.980469 6.746094 -17.449219 7.371094 -17.921875 C 7.960938 -18.390625 8.351562 -18.546875 8.507812 -18.46875 C 8.667969 -18.390625 8.667969 -17.882812 8.585938 -17.019531 C 8.46875 -16.15625 8.273438 -15.292969 8 -14.46875 C 7.488281 -12.941406 6.628906 -11.097656 5.371094 -8.941406 C 4.117188 -6.746094 2.902344 -4.824219 1.648438 -3.253906 C 1.410156 -2.941406 1.214844 -2.667969 1.058594 -2.390625 C 0.863281 -2.117188 0.785156 -1.960938 0.785156 -1.882812 C 0.785156 -1.726562 0.941406 -1.53125 1.253906 -1.214844 C 1.570312 -0.902344 1.921875 -0.589844 2.3125 -0.3125 Z M 2.3125 -0.3125 "/></g></g></g><g fill="#d9d9d9" fill-opacity="1"><g transform="translate(250.677348, 264.321633)"><g><path d="M 4.667969 -0.0390625 C 5.136719 0.117188 5.6875 0.15625 6.351562 0.15625 C 6.546875 0.15625 6.746094 0.15625 6.980469 0.117188 C 7.882812 0.078125 8.628906 -0.0390625 9.253906 -0.273438 C 9.488281 -0.351562 9.804688 -0.46875 10.15625 -0.707031 C 10.46875 -0.902344 10.785156 -1.097656 11.019531 -1.332031 C 11.488281 -1.765625 11.804688 -2.46875 11.960938 -3.488281 C 12.039062 -4.039062 12.078125 -4.546875 12.078125 -4.980469 C 12.078125 -5.292969 12.039062 -5.570312 12.039062 -5.804688 C 11.921875 -6.3125 11.527344 -6.902344 10.824219 -7.609375 C 10.117188 -8.273438 9.332031 -8.824219 8.546875 -9.214844 C 8.195312 -9.371094 7.921875 -9.488281 7.6875 -9.648438 C 7.410156 -9.765625 7.292969 -9.84375 7.292969 -9.882812 C 7.292969 -9.882812 7.332031 -10 7.488281 -10.195312 C 7.566406 -10.351562 7.726562 -10.585938 7.882812 -10.824219 C 8.390625 -11.566406 8.824219 -12.351562 9.175781 -13.175781 C 9.488281 -14 9.6875 -14.746094 9.765625 -15.410156 C 9.804688 -16.15625 9.804688 -16.707031 9.726562 -17.058594 C 9.648438 -17.410156 9.410156 -17.804688 9.097656 -18.195312 C 8.46875 -18.941406 7.726562 -19.449219 6.902344 -19.722656 C 6.507812 -19.84375 6.15625 -19.921875 5.84375 -19.921875 C 5.410156 -19.921875 5.019531 -19.804688 4.667969 -19.644531 C 4.234375 -19.410156 3.726562 -18.980469 3.175781 -18.3125 C 2.550781 -17.605469 2.078125 -16.902344 1.6875 -16.195312 C 1.214844 -15.410156 1.058594 -14.863281 1.136719 -14.585938 C 1.175781 -14.273438 1.570312 -13.882812 2.3125 -13.410156 C 2.863281 -13.019531 3.253906 -12.863281 3.488281 -12.980469 C 3.6875 -13.058594 4 -13.527344 4.46875 -14.390625 C 4.863281 -15.136719 5.332031 -15.804688 5.882812 -16.429688 C 6.429688 -17.019531 6.746094 -17.253906 6.902344 -17.136719 C 7.136719 -16.863281 6.941406 -16.039062 6.273438 -14.707031 C 5.609375 -13.371094 4.785156 -12.078125 3.765625 -10.824219 C 3.449219 -10.429688 3.214844 -10.117188 3.019531 -9.84375 C 2.785156 -9.527344 2.707031 -9.371094 2.707031 -9.332031 C 2.707031 -9.253906 2.941406 -8.980469 3.488281 -8.507812 C 3.960938 -8.039062 4.351562 -7.765625 4.628906 -7.648438 C 4.785156 -7.566406 5.019531 -7.488281 5.410156 -7.488281 C 5.804688 -7.488281 6.3125 -7.488281 7.019531 -7.527344 C 7.84375 -7.609375 8.390625 -7.609375 8.667969 -7.609375 C 8.902344 -7.566406 9.097656 -7.488281 9.214844 -7.371094 C 9.371094 -7.136719 9.410156 -6.507812 9.332031 -5.527344 C 9.214844 -4.507812 8.863281 -3.765625 8.3125 -3.214844 C 7.488281 -2.550781 6.46875 -2.15625 5.253906 -2 C 4 -1.84375 2.863281 -2 1.84375 -2.46875 C 1.058594 -2.785156 0.628906 -2.824219 0.628906 -2.589844 C 0.628906 -2.507812 0.628906 -2.429688 0.707031 -2.351562 C 0.941406 -1.804688 1.609375 -1.292969 2.667969 -0.785156 C 2.941406 -0.628906 3.292969 -0.511719 3.6875 -0.351562 C 4.078125 -0.195312 4.390625 -0.117188 4.667969 -0.0390625 Z M 4.667969 -0.0390625 "/></g></g></g></svg>