<svg xmlns="http://www.w3.org/2000/svg" xmlns:xlink="http://www.w3.org/1999/xlink" width="500" zoomAndPan="magnify" viewBox="0 0 375 374.999991" height="500" preserveAspectRatio="xMidYMid meet" version="1.0"><defs><g/><clipPath id="e48ea23578"><path d="M 100.277344 113.566406 L 235.277344 113.566406 L 235.277344 172.816406 L 100.277344 172.816406 Z M 100.277344 113.566406 " clip-rule="nonzero"/></clipPath></defs><g clip-path="url(#e48ea23578)"><path fill="#d9d9d9" d="M 234.996094 153.875 C 234.898438 153.859375 234.753906 153.882812 234.703125 153.941406 C 234.054688 154.738281 233.425781 155.539062 232.773438 156.328125 C 231.765625 157.554688 230.710938 158.734375 229.542969 159.820312 C 226.523438 162.625 223.113281 164.839844 219.398438 166.582031 C 217.34375 167.546875 215.210938 168.308594 213.03125 168.9375 C 209.824219 169.863281 206.578125 170.617188 203.261719 171.078125 C 201.910156 171.265625 200.558594 171.335938 199.203125 171.464844 C 195.691406 171.789062 192.179688 171.648438 188.695312 171.207031 C 184.695312 170.703125 180.804688 169.710938 177.007812 168.332031 C 171.828125 166.460938 166.914062 164.011719 162.246094 161.082031 C 161.632812 160.703125 160.941406 160.261719 160.277344 159.761719 L 162.410156 157.988281 C 167.664062 153.707031 172.394531 148.914062 176.429688 143.449219 C 178.113281 141.160156 179.640625 138.769531 180.957031 136.253906 C 181.875 134.488281 182.695312 132.675781 183.234375 130.753906 C 183.945312 128.214844 184.324219 125.65625 183.796875 123.015625 C 183.082031 119.375 181.144531 116.667969 177.863281 114.957031 C 176.015625 113.992188 174.03125 113.625 171.957031 113.675781 C 169.5 113.730469 167.292969 114.476562 165.324219 115.957031 C 163.351562 117.441406 161.746094 119.25 160.527344 121.40625 C 160.394531 121.652344 160.246094 121.886719 160.074219 122.113281 C 160.035156 122.160156 159.824219 122.160156 159.785156 122.105469 C 158.992188 121.140625 158.195312 120.183594 157.210938 119.402344 C 155.777344 118.277344 154.253906 117.300781 152.613281 116.511719 C 151.179688 115.820312 149.65625 115.363281 148.070312 115.179688 C 145.507812 114.890625 143.105469 115.371094 140.980469 116.921875 C 139.777344 117.792969 138.769531 118.859375 137.988281 120.136719 C 136.441406 122.65625 135.621094 125.410156 135.578125 128.371094 C 135.527344 131.308594 136.171875 134.121094 137.355469 136.800781 C 138.714844 139.878906 140.398438 142.769531 142.492188 145.402344 C 145.359375 149.019531 148.601562 152.265625 152.105469 155.253906 C 153.75 156.652344 155.441406 157.980469 157.1875 159.246094 C 157.414062 159.414062 157.632812 159.597656 157.851562 159.773438 C 158.019531 159.910156 158.234375 160.066406 158.234375 160.066406 C 155.269531 161.996094 152.410156 163.875 149.195312 165.359375 C 147.910156 165.953125 146.609375 166.523438 145.277344 166.996094 C 141.007812 168.53125 136.636719 169.679688 132.125 170.242188 C 128.289062 170.71875 124.453125 170.785156 120.617188 170.25 C 119.714844 170.121094 118.832031 169.941406 117.9375 169.789062 C 115.875 169.425781 113.800781 169.121094 111.753906 168.6875 C 109.757812 168.265625 107.742188 168.007812 105.507812 167.640625 C 104.171875 167.511719 102.65625 167.402344 101.128906 167.433594 C 100.917969 167.558594 100.679688 167.648438 100.402344 167.695312 C 100.390625 167.871094 100.34375 168.054688 100.277344 168.242188 C 100.378906 168.34375 100.476562 168.453125 100.566406 168.570312 C 100.566406 168.570312 100.570312 168.570312 100.570312 168.570312 C 100.359375 168.296875 100.46875 168.417969 100.609375 168.574219 C 100.761719 168.582031 100.914062 168.589844 101.085938 168.59375 C 101.296875 168.59375 101.496094 168.636719 101.691406 168.699219 C 101.96875 168.6875 102.25 168.683594 102.53125 168.6875 C 104.628906 168.699219 106.710938 168.945312 108.78125 169.277344 C 109.507812 169.394531 110.222656 169.570312 110.949219 169.699219 C 112.839844 170.03125 114.742188 170.324219 116.628906 170.703125 C 118.6875 171.117188 120.765625 171.347656 122.847656 171.546875 C 126.191406 171.863281 129.527344 171.734375 132.835938 171.238281 C 142.113281 169.859375 150.609375 166.464844 158.363281 161.179688 C 158.65625 160.984375 158.925781 160.773438 159.203125 160.554688 C 163.066406 163.03125 168.003906 165.835938 172.210938 167.640625 C 178.132812 170.171875 184.242188 171.953125 190.691406 172.460938 C 194.433594 172.761719 198.167969 172.636719 201.882812 172.214844 C 205.203125 171.84375 208.464844 171.125 211.683594 170.214844 C 215.300781 169.203125 218.777344 167.871094 222.09375 166.101562 C 227.179688 163.378906 231.402344 159.664062 234.796875 155.007812 C 234.96875 154.785156 235.082031 154.519531 235.210938 154.269531 C 235.273438 154.132812 235.171875 153.875 234.996094 153.875 Z M 159.359375 159.15625 C 154.046875 155.328125 148.574219 150.46875 144.480469 145.328125 C 142.640625 143.019531 141.070312 140.527344 139.75 137.875 C 138.835938 136.035156 138.132812 134.128906 137.746094 132.105469 C 137.273438 129.621094 137.21875 127.140625 137.921875 124.683594 C 138.269531 123.484375 138.75 122.335938 139.398438 121.257812 C 139.832031 120.523438 140.359375 119.859375 140.953125 119.242188 C 142.523438 117.605469 144.445312 116.785156 146.707031 116.714844 C 148.140625 116.667969 149.519531 116.863281 150.878906 117.328125 C 153.214844 118.121094 155.304688 119.34375 157.171875 120.945312 C 157.902344 121.570312 158.566406 122.277344 159.054688 123.125 C 159.269531 123.496094 159.324219 123.851562 159.148438 124.25 C 159.085938 124.394531 159.074219 124.597656 159.121094 124.726562 C 159.175781 124.863281 159.332031 124.976562 159.472656 125.046875 C 159.539062 125.078125 159.703125 125.015625 159.769531 124.949219 C 159.925781 124.792969 160.082031 124.617188 160.1875 124.429688 C 161.21875 122.582031 162.550781 120.964844 163.808594 119.28125 C 164.492188 118.371094 165.320312 117.589844 166.230469 116.914062 C 168.722656 115.058594 171.488281 114.367188 174.5625 114.921875 C 176.097656 115.203125 177.511719 115.71875 178.78125 116.613281 C 180.820312 118.039062 182.097656 119.992188 182.734375 122.386719 C 183.023438 123.484375 183.1875 124.613281 183.132812 125.554688 C 183.132812 127.890625 182.632812 129.925781 181.929688 131.910156 C 181.351562 133.519531 180.609375 135.042969 179.796875 136.542969 C 177.902344 140.054688 175.617188 143.292969 173.078125 146.351562 C 169.335938 150.867188 165.09375 154.859375 160.453125 158.4375 C 160.183594 158.648438 159.695312 159.019531 159.40625 159.183594 Z M 159.359375 159.15625 " fill-opacity="1" fill-rule="nonzero"/></g><g fill="#ffffff" fill-opacity="1"><g transform="translate(8.953129, 223.120673)"><g><path d="M 61.242188 1.828125 C 62.15625 2.132812 62.917969 2.132812 63.527344 2.132812 L 64.136719 2.132812 C 64.746094 2.132812 65.660156 1.523438 66.878906 0.457031 C 68.402344 -0.761719 70.078125 -3.960938 72.058594 -8.835938 C 73.886719 -13.710938 76.476562 -21.480469 79.523438 -32.144531 C 85.160156 -52.101562 90.796875 -69.316406 96.433594 -83.636719 C 101.917969 -97.957031 108.164062 -111.058594 114.867188 -122.789062 C 116.542969 -125.683594 117.609375 -127.816406 118.21875 -129.035156 C 118.371094 -129.644531 118.523438 -130.101562 118.523438 -130.710938 C 118.523438 -131.015625 118.371094 -131.167969 118.371094 -131.472656 C 117.761719 -132.082031 116.085938 -132.996094 113.648438 -134.519531 C 111.210938 -135.738281 109.6875 -136.347656 109.078125 -136.347656 L 108.925781 -136.347656 C 108.46875 -136.195312 107.554688 -134.976562 106.03125 -132.539062 C 104.507812 -129.949219 102.679688 -126.902344 100.851562 -123.398438 C 99.785156 -121.417969 98.71875 -119.4375 97.652344 -117.609375 C 96.585938 -115.476562 95.671875 -113.496094 94.757812 -111.667969 C 90.492188 -103.136719 86.074219 -92.167969 81.351562 -78.761719 C 76.476562 -65.355469 72.210938 -51.949219 68.554688 -38.542969 C 66.726562 -32.144531 64.746094 -26.203125 62.917969 -20.414062 C 60.9375 -14.625 59.566406 -10.96875 58.804688 -9.445312 C 58.195312 -8.683594 57.890625 -8.378906 57.890625 -8.53125 C 57.585938 -8.53125 57.28125 -9.292969 56.976562 -10.664062 C 56.0625 -13.253906 55.453125 -17.824219 54.996094 -24.222656 C 54.386719 -30.621094 54.082031 -38.238281 54.082031 -46.769531 C 53.929688 -51.339844 53.929688 -56.0625 54.082031 -61.242188 C 54.082031 -66.117188 54.234375 -71.296875 54.539062 -76.476562 C 54.691406 -84.398438 54.539062 -91.710938 54.082031 -98.71875 C 53.472656 -105.574219 52.558594 -110.296875 51.492188 -113.039062 C 50.121094 -115.933594 47.835938 -118.675781 44.789062 -121.417969 C 41.589844 -123.855469 38.238281 -125.683594 34.886719 -126.75 C 31.078125 -127.664062 27.421875 -127.207031 23.765625 -125.378906 C 20.109375 -123.398438 16.300781 -120.046875 12.644531 -115.171875 C 5.789062 -106.335938 1.980469 -96.738281 1.066406 -86.378906 C 0.761719 -84.703125 0.761719 -83.027344 0.761719 -81.351562 C 0.761719 -72.820312 2.894531 -65.203125 7.160156 -58.195312 C 8.226562 -56.367188 9.292969 -54.996094 10.207031 -54.082031 C 10.96875 -53.167969 12.1875 -52.40625 13.710938 -51.644531 C 16.757812 -49.96875 18.585938 -49.359375 19.042969 -49.96875 C 19.347656 -50.425781 18.738281 -52.253906 16.910156 -55.453125 C 16.910156 -55.453125 16.148438 -56.976562 14.929688 -59.71875 C 13.710938 -62.460938 12.644531 -65.8125 12.035156 -70.078125 C 11.425781 -73.125 11.425781 -76.171875 11.730469 -79.21875 C 11.882812 -82.265625 12.339844 -85.007812 13.101562 -87.75 C 14.320312 -92.625 16.148438 -96.890625 18.28125 -100.546875 C 20.261719 -104.050781 21.632812 -106.335938 22.394531 -107.402344 C 24.832031 -110.753906 27.117188 -113.34375 29.554688 -115.476562 C 31.839844 -117.609375 33.972656 -118.828125 36.105469 -119.4375 C 37.324219 -119.742188 38.238281 -119.894531 38.695312 -119.742188 C 39 -119.589844 39.457031 -119.132812 40.066406 -118.21875 C 40.371094 -117.609375 40.675781 -116.542969 41.285156 -115.019531 C 41.589844 -113.34375 42.046875 -111.667969 42.351562 -109.992188 C 42.960938 -106.640625 43.265625 -102.679688 43.417969 -98.109375 C 43.417969 -93.386719 43.265625 -85.464844 42.960938 -74.34375 C 42.351562 -55.757812 42.65625 -40.523438 43.875 -28.792969 C 45.09375 -16.910156 47.074219 -8.988281 50.121094 -5.332031 C 51.035156 -3.960938 52.710938 -2.589844 55.148438 -1.066406 C 57.433594 0.457031 59.414062 1.371094 61.242188 1.828125 Z M 61.242188 1.828125 "/></g></g></g><g fill="#ffffff" fill-opacity="1"><g transform="translate(197.47672, 208.681085)"><g><path d="M 137.339844 29.113281 C 138.101562 29.722656 138.863281 30.332031 139.78125 30.640625 C 140.542969 31.097656 141.152344 31.25 141.609375 31.25 C 142.21875 31.25 142.675781 31.097656 142.675781 30.792969 C 142.675781 30.484375 142.21875 29.722656 141.457031 28.199219 C 140.238281 25.761719 139.324219 23.320312 138.710938 20.730469 C 138.101562 18.140625 137.796875 15.242188 137.949219 12.042969 C 137.949219 6.25 139.476562 -1.371094 142.371094 -10.671875 C 145.113281 -19.816406 149.535156 -32.164062 155.632812 -47.863281 C 157.15625 -51.980469 158.679688 -55.636719 159.902344 -58.839844 L 163.101562 -67.375 C 164.625 -71.949219 165.691406 -75.605469 166.304688 -78.351562 C 166.914062 -81.09375 167.21875 -83.683594 167.371094 -86.429688 C 167.371094 -87.648438 167.523438 -88.867188 167.523438 -90.085938 C 167.523438 -92.832031 167.21875 -95.117188 166.761719 -96.945312 C 165.996094 -99.234375 164.472656 -101.519531 162.339844 -103.957031 C 158.679688 -107.3125 155.175781 -109.292969 151.667969 -110.207031 C 148.164062 -110.816406 144.503906 -110.359375 140.695312 -108.53125 C 136.425781 -106.398438 131.089844 -101.671875 124.6875 -94.203125 C 118.132812 -86.734375 111.886719 -78.046875 105.789062 -68.136719 C 104.414062 -66.003906 103.195312 -64.324219 102.28125 -62.800781 C 101.367188 -61.277344 100.757812 -60.667969 100.757812 -60.667969 C 100.757812 -60.667969 100.757812 -61.429688 100.910156 -62.648438 C 100.910156 -63.867188 101.0625 -65.242188 101.367188 -66.917969 C 101.976562 -71.1875 102.128906 -75.453125 101.824219 -79.722656 C 101.519531 -83.835938 100.757812 -86.734375 99.84375 -88.5625 C 98.929688 -90.085938 97.25 -91.765625 95.117188 -93.59375 C 92.984375 -95.421875 91 -96.640625 89.171875 -97.25 C 88.257812 -97.554688 87.496094 -97.554688 86.886719 -97.554688 C 86.125 -97.402344 85.210938 -97.097656 83.988281 -96.640625 C 81.550781 -95.421875 77.890625 -92.222656 73.320312 -87.039062 C 68.59375 -81.550781 64.480469 -76.0625 60.972656 -70.421875 C 60.210938 -69.203125 59.601562 -68.289062 59.144531 -67.679688 C 58.535156 -66.917969 58.230469 -66.613281 58.230469 -66.613281 C 58.230469 -66.613281 58.382812 -67.679688 58.6875 -69.660156 C 58.992188 -71.492188 59.296875 -73.929688 59.90625 -76.671875 C 60.667969 -80.484375 61.277344 -83.835938 61.582031 -86.734375 C 61.886719 -89.476562 62.039062 -93.289062 62.039062 -98.164062 C 62.039062 -103.652344 61.886719 -107.160156 61.734375 -108.835938 C 61.582031 -110.359375 61.125 -112.191406 60.363281 -114.019531 C 59.753906 -115.085938 59.144531 -116.304688 58.230469 -117.523438 C 57.3125 -118.746094 56.398438 -119.660156 55.789062 -120.421875 C 50.757812 -124.992188 46.035156 -127.28125 41.613281 -127.28125 C 41.003906 -127.28125 40.394531 -127.128906 39.9375 -127.128906 C 34.90625 -126.519531 29.113281 -122.859375 22.558594 -116.152344 C 15.546875 -109.140625 10.058594 -101.367188 6.097656 -92.832031 C 1.980469 -84.292969 -0.304688 -75.605469 -0.609375 -66.917969 C -0.761719 -64.9375 -0.761719 -63.257812 -0.761719 -61.734375 C -0.761719 -58.992188 -0.609375 -57.007812 -0.304688 -55.636719 C 0.152344 -53.503906 1.371094 -51.675781 3.507812 -49.996094 C 6.554688 -47.558594 8.230469 -46.644531 8.839844 -47.253906 C 9.296875 -47.863281 9.601562 -51.066406 9.90625 -57.160156 C 9.90625 -61.582031 10.058594 -64.785156 10.367188 -66.917969 C 10.671875 -68.898438 11.128906 -71.339844 12.042969 -74.234375 C 13.109375 -77.890625 14.480469 -81.398438 16.308594 -85.058594 C 17.835938 -88.714844 19.816406 -92.070312 21.949219 -95.421875 C 25.914062 -101.519531 30.179688 -106.703125 34.90625 -111.121094 C 39.480469 -115.390625 43.898438 -118.132812 48.015625 -119.050781 C 49.234375 -119.203125 49.996094 -119.203125 50.300781 -119.050781 C 50.453125 -118.746094 50.757812 -117.828125 51.371094 -116.304688 C 52.132812 -113.257812 52.285156 -108.074219 51.675781 -100.757812 C 51.066406 -93.441406 49.996094 -85.515625 48.320312 -77.28125 C 45.882812 -66.003906 43.898438 -56.550781 42.222656 -48.929688 C 40.394531 -41.308594 38.566406 -34.449219 36.886719 -28.503906 C 35.820312 -24.542969 35.058594 -21.796875 34.753906 -19.96875 C 34.449219 -18.140625 34.296875 -16.917969 34.601562 -16.613281 C 35.058594 -15.851562 36.429688 -14.632812 38.871094 -13.109375 C 41.308594 -11.28125 42.679688 -10.519531 43.289062 -10.519531 C 43.59375 -10.519531 43.898438 -10.976562 44.511719 -12.195312 C 45.121094 -13.109375 45.730469 -14.480469 46.339844 -16.003906 C 48.015625 -20.425781 50.148438 -25.152344 52.742188 -30.332031 C 55.179688 -35.210938 57.925781 -40.242188 60.820312 -45.425781 C 66.003906 -54.875 71.492188 -63.410156 76.976562 -71.339844 C 82.464844 -79.113281 86.734375 -84.140625 90.085938 -86.429688 C 90.695312 -86.886719 91.304688 -87.34375 91.765625 -87.648438 L 91.304688 -79.417969 C 91 -73.929688 90.085938 -67.527344 88.867188 -59.90625 C 87.496094 -52.132812 85.667969 -43.746094 83.53125 -34.753906 C 82.160156 -29.265625 81.246094 -25.457031 80.941406 -23.167969 C 80.484375 -20.730469 80.484375 -19.359375 80.789062 -18.902344 C 81.246094 -18.140625 82.617188 -16.917969 85.058594 -15.242188 C 87.496094 -13.566406 89.019531 -12.804688 89.628906 -12.804688 C 89.78125 -12.804688 90.695312 -14.175781 92.375 -17.074219 C 93.898438 -19.96875 95.726562 -23.472656 97.859375 -27.589844 C 103.652344 -39.480469 108.835938 -49.082031 113.410156 -56.550781 C 117.675781 -63.867188 122.707031 -71.339844 128.347656 -78.960938 C 133.226562 -85.515625 138.101562 -90.847656 142.828125 -95.117188 C 147.402344 -99.082031 151.363281 -101.519531 154.566406 -102.128906 L 157.308594 -102.585938 C 157.15625 -98.929688 157.003906 -96.183594 157.003906 -94.355469 C 156.699219 -91 156.394531 -87.953125 155.9375 -85.363281 C 155.328125 -82.617188 154.109375 -78.503906 152.125 -72.863281 L 148.925781 -64.324219 C 147.707031 -60.972656 146.183594 -57.160156 144.503906 -52.742188 C 141.914062 -46.1875 139.78125 -40.394531 137.949219 -35.515625 C 136.121094 -30.640625 134.597656 -26.371094 133.378906 -22.710938 C 130.9375 -15.699219 129.414062 -10.367188 128.804688 -6.402344 C 128.042969 -2.4375 127.738281 1.675781 127.738281 5.792969 C 127.738281 9.753906 127.890625 12.347656 128.195312 13.871094 C 128.347656 15.394531 128.957031 17.074219 129.871094 19.207031 C 130.9375 21.949219 132.003906 23.933594 132.921875 25 C 133.683594 26.21875 135.207031 27.589844 137.339844 29.113281 Z M 137.339844 29.113281 "/></g></g></g><g fill="#d9d9d9" fill-opacity="1"><g transform="translate(81.75427, 269.364874)"><g><path d="M 12.039062 -26.488281 C 11.109375 -27.417969 10.179688 -28.019531 9.25 -28.238281 C 8.480469 -28.402344 7.769531 -28.511719 7.222656 -28.511719 L 6.894531 -28.511719 C 6.019531 -28.402344 5.089844 -27.691406 4.105469 -26.324219 C 3.066406 -24.953125 2.296875 -22.765625 1.804688 -19.808594 C 1.257812 -16.855469 1.039062 -14.339844 1.039062 -12.257812 L 1.039062 -11.65625 C 1.09375 -9.359375 1.367188 -7.660156 1.804688 -6.511719 C 2.132812 -5.582031 2.84375 -4.597656 3.996094 -3.558594 C 5.089844 -2.460938 6.074219 -1.640625 6.949219 -1.203125 C 7.605469 -0.765625 8.316406 -0.601562 9.085938 -0.601562 C 9.304688 -0.601562 9.578125 -0.601562 9.851562 -0.65625 C 10.890625 -0.820312 11.710938 -1.257812 12.367188 -1.914062 C 13.460938 -3.121094 14.339844 -4.816406 14.996094 -7.058594 C 15.597656 -9.25 15.925781 -11.765625 15.925781 -14.558594 C 15.925781 -17.238281 15.542969 -19.589844 14.886719 -21.5625 C 14.171875 -23.53125 13.242188 -25.171875 12.039062 -26.488281 Z M 5.417969 -13.296875 C 5.691406 -16.253906 6.238281 -18.824219 7.113281 -21.070312 C 7.933594 -23.257812 8.703125 -24.460938 9.359375 -24.570312 C 9.796875 -24.679688 10.34375 -24.242188 11 -23.3125 C 11.601562 -22.382812 11.984375 -20.90625 12.09375 -18.824219 C 12.203125 -16.089844 11.984375 -13.570312 11.492188 -11.273438 C 10.945312 -8.921875 10.179688 -7.113281 9.195312 -5.910156 C 8.703125 -5.363281 8.207031 -4.980469 7.714844 -4.761719 C 7.167969 -4.433594 6.839844 -4.324219 6.675781 -4.324219 C 6.128906 -4.324219 5.691406 -5.199219 5.472656 -7.058594 C 5.199219 -8.867188 5.199219 -10.945312 5.417969 -13.296875 Z M 5.417969 -13.296875 "/></g></g></g><g fill="#d9d9d9" fill-opacity="1"><g transform="translate(112.05901, 269.364874)"><g><path d="M 10.5625 -0.820312 C 11.21875 -0.382812 11.65625 -0.109375 11.929688 -0.0546875 C 11.929688 0 11.984375 0 12.09375 0 C 12.203125 0 12.3125 -0.0546875 12.421875 -0.164062 C 12.421875 -0.21875 12.53125 -0.601562 12.640625 -1.3125 C 12.75 -1.96875 12.859375 -2.789062 12.96875 -3.722656 C 13.078125 -4.597656 13.296875 -6.183594 13.625 -8.371094 C 13.953125 -10.5625 14.28125 -12.695312 14.613281 -14.832031 C 14.941406 -16.964844 15.214844 -18.878906 15.433594 -20.523438 C 15.652344 -22.164062 15.816406 -23.09375 15.816406 -23.3125 C 15.816406 -23.859375 15.269531 -24.570312 14.28125 -25.335938 C 13.296875 -26.105469 12.640625 -26.378906 12.3125 -26.050781 C 12.203125 -25.941406 12.09375 -25.445312 11.929688 -24.515625 C 11.710938 -23.53125 11.546875 -22.382812 11.382812 -21.125 C 11.164062 -19.808594 11 -18.660156 10.835938 -17.566406 C 10.617188 -16.417969 10.507812 -15.707031 10.507812 -15.488281 C 10.398438 -15.050781 10.289062 -14.777344 10.289062 -14.558594 C 9.304688 -14.449219 8.535156 -14.339844 8.097656 -14.339844 C 7.441406 -14.226562 6.894531 -14.226562 6.457031 -14.226562 C 6.019531 -14.171875 5.746094 -14.171875 5.746094 -14.226562 C 5.636719 -14.28125 5.691406 -14.722656 5.910156 -15.488281 C 6.019531 -16.253906 6.238281 -17.128906 6.511719 -18.222656 C 6.949219 -20.085938 7.386719 -21.890625 7.769531 -23.75 C 8.097656 -25.609375 8.316406 -26.816406 8.316406 -27.363281 C 8.316406 -27.800781 7.769531 -28.457031 6.730469 -29.277344 C 5.964844 -29.824219 5.417969 -30.152344 5.089844 -30.152344 C 4.980469 -30.152344 4.871094 -30.097656 4.816406 -30.042969 C 4.707031 -29.933594 4.652344 -29.660156 4.542969 -29.167969 C 4.378906 -28.621094 4.269531 -27.964844 4.160156 -27.308594 C 3.832031 -25.5 3.449219 -23.640625 2.957031 -21.726562 C 2.460938 -19.753906 1.96875 -18.003906 1.421875 -16.363281 C 1.09375 -15.324219 0.875 -14.558594 0.765625 -14.117188 C 0.710938 -13.84375 0.710938 -13.625 0.710938 -13.515625 C 0.710938 -13.296875 0.710938 -13.1875 0.820312 -13.132812 C 0.984375 -12.75 1.476562 -12.257812 2.242188 -11.601562 C 3.011719 -10.945312 3.558594 -10.617188 3.941406 -10.507812 C 4.050781 -10.453125 4.433594 -10.453125 5.035156 -10.507812 C 5.582031 -10.5625 6.238281 -10.671875 6.894531 -10.78125 C 7.550781 -10.890625 8.097656 -10.945312 8.648438 -11 C 9.085938 -11 9.359375 -11 9.46875 -10.945312 C 9.523438 -10.835938 9.523438 -10.398438 9.523438 -9.632812 C 9.46875 -8.8125 9.359375 -7.824219 9.25 -6.675781 C 9.03125 -5.253906 8.921875 -4.160156 8.921875 -3.449219 C 8.867188 -2.679688 8.921875 -2.242188 9.03125 -2.132812 C 9.085938 -2.023438 9.25 -1.804688 9.578125 -1.585938 C 9.851562 -1.3125 10.179688 -1.039062 10.5625 -0.820312 Z M 10.5625 -0.820312 "/></g></g></g><g fill="#d9d9d9" fill-opacity="1"><g transform="translate(141.926024, 269.364874)"><g><path d="M 2.515625 -0.820312 C 3.285156 -0.21875 3.832031 0.0546875 4.214844 0.0546875 C 4.324219 0.0546875 4.378906 0.0546875 4.488281 -0.0546875 C 4.816406 -0.273438 5.253906 -1.257812 5.910156 -3.066406 C 6.292969 -4.269531 6.566406 -5.144531 6.675781 -5.636719 C 6.675781 -5.855469 6.730469 -6.019531 6.730469 -6.238281 C 6.730469 -6.402344 6.675781 -6.566406 6.621094 -6.730469 C 6.457031 -7.058594 5.964844 -7.496094 5.144531 -8.097656 C 4.324219 -8.648438 3.777344 -8.976562 3.503906 -8.976562 C 3.285156 -8.976562 2.902344 -7.988281 2.242188 -6.019531 C 1.585938 -4.050781 1.257812 -2.789062 1.257812 -2.296875 C 1.257812 -2.078125 1.367188 -1.859375 1.585938 -1.640625 C 1.804688 -1.367188 2.078125 -1.09375 2.515625 -0.820312 Z M 2.515625 -0.820312 "/></g></g></g><g fill="#d9d9d9" fill-opacity="1"><g transform="translate(163.312076, 269.364874)"><g><path d="M 12.039062 -26.488281 C 11.109375 -27.417969 10.179688 -28.019531 9.25 -28.238281 C 8.480469 -28.402344 7.769531 -28.511719 7.222656 -28.511719 L 6.894531 -28.511719 C 6.019531 -28.402344 5.089844 -27.691406 4.105469 -26.324219 C 3.066406 -24.953125 2.296875 -22.765625 1.804688 -19.808594 C 1.257812 -16.855469 1.039062 -14.339844 1.039062 -12.257812 L 1.039062 -11.65625 C 1.09375 -9.359375 1.367188 -7.660156 1.804688 -6.511719 C 2.132812 -5.582031 2.84375 -4.597656 3.996094 -3.558594 C 5.089844 -2.460938 6.074219 -1.640625 6.949219 -1.203125 C 7.605469 -0.765625 8.316406 -0.601562 9.085938 -0.601562 C 9.304688 -0.601562 9.578125 -0.601562 9.851562 -0.65625 C 10.890625 -0.820312 11.710938 -1.257812 12.367188 -1.914062 C 13.460938 -3.121094 14.339844 -4.816406 14.996094 -7.058594 C 15.597656 -9.25 15.925781 -11.765625 15.925781 -14.558594 C 15.925781 -17.238281 15.542969 -19.589844 14.886719 -21.5625 C 14.171875 -23.53125 13.242188 -25.171875 12.039062 -26.488281 Z M 5.417969 -13.296875 C 5.691406 -16.253906 6.238281 -18.824219 7.113281 -21.070312 C 7.933594 -23.257812 8.703125 -24.460938 9.359375 -24.570312 C 9.796875 -24.679688 10.34375 -24.242188 11 -23.3125 C 11.601562 -22.382812 11.984375 -20.90625 12.09375 -18.824219 C 12.203125 -16.089844 11.984375 -13.570312 11.492188 -11.273438 C 10.945312 -8.921875 10.179688 -7.113281 9.195312 -5.910156 C 8.703125 -5.363281 8.207031 -4.980469 7.714844 -4.761719 C 7.167969 -4.433594 6.839844 -4.324219 6.675781 -4.324219 C 6.128906 -4.324219 5.691406 -5.199219 5.472656 -7.058594 C 5.199219 -8.867188 5.199219 -10.945312 5.417969 -13.296875 Z M 5.417969 -13.296875 "/></g></g></g><g fill="#d9d9d9" fill-opacity="1"><g transform="translate(193.616813, 269.364874)"><g><path d="M 7.441406 -1.148438 C 8.097656 -0.710938 8.535156 -0.4375 8.8125 -0.4375 L 8.867188 -0.4375 C 9.085938 -0.4375 9.304688 -0.601562 9.46875 -0.984375 C 9.578125 -1.3125 9.851562 -2.679688 10.234375 -5.144531 C 10.5625 -7.605469 10.890625 -10.179688 11.21875 -12.859375 C 11.4375 -14.613281 11.601562 -16.253906 11.820312 -17.785156 C 11.929688 -19.261719 12.039062 -20.359375 12.09375 -21.070312 C 12.09375 -21.945312 12.148438 -22.710938 12.148438 -23.257812 C 12.148438 -23.585938 12.09375 -23.859375 12.09375 -24.078125 C 12.039062 -24.460938 11.875 -24.898438 11.601562 -25.335938 C 11.164062 -25.941406 10.507812 -26.542969 9.632812 -27.144531 C 8.757812 -27.691406 8.042969 -28.019531 7.550781 -28.019531 C 7.058594 -28.019531 6.292969 -27.527344 5.308594 -26.597656 C 4.324219 -25.609375 3.285156 -24.40625 2.296875 -22.984375 C 1.75 -22.164062 1.367188 -21.617188 1.257812 -21.289062 C 1.148438 -21.070312 1.148438 -20.90625 1.148438 -20.796875 C 1.148438 -20.6875 1.148438 -20.578125 1.203125 -20.46875 C 1.367188 -20.140625 1.804688 -19.699219 2.570312 -19.152344 C 3.339844 -18.605469 3.832031 -18.386719 4.160156 -18.386719 C 4.269531 -18.386719 4.542969 -18.550781 4.925781 -18.933594 C 5.253906 -19.261719 5.691406 -19.753906 6.183594 -20.414062 C 6.566406 -20.960938 6.949219 -21.398438 7.277344 -21.78125 C 7.605469 -22.164062 7.824219 -22.382812 7.878906 -22.382812 C 8.097656 -22.382812 8.152344 -21.726562 8.042969 -20.46875 C 7.933594 -19.207031 7.605469 -16.636719 7.058594 -12.804688 C 6.839844 -11.328125 6.621094 -10.070312 6.511719 -8.976562 C 6.347656 -7.878906 6.238281 -6.894531 6.183594 -6.128906 C 6.019531 -4.597656 6.019531 -3.503906 6.238281 -2.84375 C 6.402344 -2.1875 6.785156 -1.585938 7.441406 -1.148438 Z M 7.441406 -1.148438 "/></g></g></g><g fill="#d9d9d9" fill-opacity="1"><g transform="translate(220.58388, 269.364874)"><g><path d="M 2.515625 -0.820312 C 3.285156 -0.21875 3.832031 0.0546875 4.214844 0.0546875 C 4.324219 0.0546875 4.378906 0.0546875 4.488281 -0.0546875 C 4.816406 -0.273438 5.253906 -1.257812 5.910156 -3.066406 C 6.292969 -4.269531 6.566406 -5.144531 6.675781 -5.636719 C 6.675781 -5.855469 6.730469 -6.019531 6.730469 -6.238281 C 6.730469 -6.402344 6.675781 -6.566406 6.621094 -6.730469 C 6.457031 -7.058594 5.964844 -7.496094 5.144531 -8.097656 C 4.324219 -8.648438 3.777344 -8.976562 3.503906 -8.976562 C 3.285156 -8.976562 2.902344 -7.988281 2.242188 -6.019531 C 1.585938 -4.050781 1.257812 -2.789062 1.257812 -2.296875 C 1.257812 -2.078125 1.367188 -1.859375 1.585938 -1.640625 C 1.804688 -1.367188 2.078125 -1.09375 2.515625 -0.820312 Z M 2.515625 -0.820312 "/></g></g></g><g fill="#d9d9d9" fill-opacity="1"><g transform="translate(241.969924, 269.364874)"><g><path d="M 3.230469 -0.4375 C 3.613281 -0.164062 3.941406 -0.0546875 4.269531 -0.0546875 C 4.542969 -0.0546875 5.472656 -0.273438 7.113281 -0.710938 C 8.316406 -1.039062 9.359375 -1.257812 10.179688 -1.367188 C 10.945312 -1.421875 12.421875 -1.476562 14.722656 -1.476562 C 16.035156 -1.421875 17.183594 -1.421875 18.167969 -1.53125 C 19.097656 -1.53125 19.589844 -1.585938 19.589844 -1.640625 C 19.589844 -1.859375 19.261719 -2.1875 18.714844 -2.679688 C 18.113281 -3.121094 17.511719 -3.503906 16.910156 -3.832031 C 16.472656 -3.996094 15.925781 -4.160156 15.269531 -4.269531 C 14.558594 -4.378906 13.515625 -4.433594 12.148438 -4.488281 C 11.164062 -4.488281 10.34375 -4.542969 9.632812 -4.652344 C 8.867188 -4.652344 8.480469 -4.707031 8.480469 -4.816406 C 8.480469 -4.816406 8.59375 -5.089844 8.921875 -5.636719 C 9.195312 -6.183594 9.578125 -6.785156 10.015625 -7.496094 C 10.945312 -9.03125 11.875 -10.726562 12.859375 -12.585938 C 13.734375 -14.449219 14.449219 -16.035156 14.941406 -17.402344 C 15.378906 -18.660156 15.652344 -20.140625 15.816406 -21.890625 C 15.925781 -23.53125 15.816406 -24.679688 15.488281 -25.335938 C 15.214844 -25.832031 14.832031 -26.378906 14.28125 -26.925781 C 13.734375 -27.472656 13.078125 -27.964844 12.367188 -28.402344 C 11.546875 -28.894531 10.726562 -29.167969 9.960938 -29.167969 C 9.085938 -29.167969 8.207031 -28.894531 7.332031 -28.402344 C 5.582031 -27.363281 3.996094 -25.5 2.679688 -22.820312 C 2.1875 -21.835938 1.914062 -21.179688 1.859375 -20.851562 C 1.75 -20.523438 1.75 -20.195312 1.859375 -19.917969 C 2.023438 -19.589844 2.515625 -19.097656 3.394531 -18.496094 C 4.214844 -17.894531 4.761719 -17.621094 4.980469 -17.730469 C 5.035156 -17.730469 5.199219 -17.949219 5.472656 -18.386719 C 5.691406 -18.769531 5.964844 -19.261719 6.292969 -19.808594 C 6.511719 -20.304688 6.839844 -20.90625 7.277344 -21.5625 C 7.605469 -22.164062 7.933594 -22.65625 8.207031 -23.039062 C 8.703125 -23.695312 9.414062 -24.351562 10.289062 -25.007812 C 11.109375 -25.664062 11.65625 -25.886719 11.875 -25.777344 C 12.09375 -25.664062 12.09375 -24.953125 11.984375 -23.75 C 11.820312 -22.546875 11.546875 -21.34375 11.164062 -20.195312 C 10.453125 -18.058594 9.25 -15.488281 7.496094 -12.476562 C 5.746094 -9.414062 4.050781 -6.730469 2.296875 -4.542969 C 1.96875 -4.105469 1.695312 -3.722656 1.476562 -3.339844 C 1.203125 -2.957031 1.09375 -2.734375 1.09375 -2.625 C 1.09375 -2.40625 1.3125 -2.132812 1.75 -1.695312 C 2.1875 -1.257812 2.679688 -0.820312 3.230469 -0.4375 Z M 3.230469 -0.4375 "/></g></g></g><g fill="#d9d9d9" fill-opacity="1"><g transform="translate(275.667046, 269.364874)"><g><path d="M 6.511719 -0.0546875 C 7.167969 0.164062 7.933594 0.21875 8.867188 0.21875 C 9.140625 0.21875 9.414062 0.21875 9.742188 0.164062 C 11 0.109375 12.039062 -0.0546875 12.914062 -0.382812 C 13.242188 -0.492188 13.679688 -0.65625 14.171875 -0.984375 C 14.613281 -1.257812 15.050781 -1.53125 15.378906 -1.859375 C 16.035156 -2.460938 16.472656 -3.449219 16.691406 -4.871094 C 16.800781 -5.636719 16.855469 -6.347656 16.855469 -6.949219 C 16.855469 -7.386719 16.800781 -7.769531 16.800781 -8.097656 C 16.636719 -8.8125 16.089844 -9.632812 15.105469 -10.617188 C 14.117188 -11.546875 13.023438 -12.3125 11.929688 -12.859375 C 11.4375 -13.078125 11.054688 -13.242188 10.726562 -13.460938 C 10.34375 -13.625 10.179688 -13.734375 10.179688 -13.789062 C 10.179688 -13.789062 10.234375 -13.953125 10.453125 -14.226562 C 10.5625 -14.449219 10.78125 -14.777344 11 -15.105469 C 11.710938 -16.144531 12.3125 -17.238281 12.804688 -18.386719 C 13.242188 -19.535156 13.515625 -20.578125 13.625 -21.507812 C 13.679688 -22.546875 13.679688 -23.3125 13.570312 -23.804688 C 13.460938 -24.296875 13.132812 -24.84375 12.695312 -25.390625 C 11.820312 -26.433594 10.78125 -27.144531 9.632812 -27.527344 C 9.085938 -27.691406 8.59375 -27.800781 8.152344 -27.800781 C 7.550781 -27.800781 7.003906 -27.636719 6.511719 -27.417969 C 5.910156 -27.089844 5.199219 -26.488281 4.433594 -25.554688 C 3.558594 -24.570312 2.902344 -23.585938 2.351562 -22.601562 C 1.695312 -21.507812 1.476562 -20.742188 1.585938 -20.359375 C 1.640625 -19.917969 2.1875 -19.371094 3.230469 -18.714844 C 3.996094 -18.167969 4.542969 -17.949219 4.871094 -18.113281 C 5.144531 -18.222656 5.582031 -18.878906 6.238281 -20.085938 C 6.785156 -21.125 7.441406 -22.054688 8.207031 -22.929688 C 8.976562 -23.75 9.414062 -24.078125 9.632812 -23.914062 C 9.960938 -23.53125 9.6875 -22.382812 8.757812 -20.523438 C 7.824219 -18.660156 6.675781 -16.855469 5.253906 -15.105469 C 4.816406 -14.558594 4.488281 -14.117188 4.214844 -13.734375 C 3.886719 -13.296875 3.777344 -13.078125 3.777344 -13.023438 C 3.777344 -12.914062 4.105469 -12.53125 4.871094 -11.875 C 5.527344 -11.21875 6.074219 -10.835938 6.457031 -10.671875 C 6.675781 -10.5625 7.003906 -10.453125 7.550781 -10.453125 C 8.097656 -10.453125 8.8125 -10.453125 9.796875 -10.507812 C 10.945312 -10.617188 11.710938 -10.617188 12.09375 -10.617188 C 12.421875 -10.5625 12.695312 -10.453125 12.859375 -10.289062 C 13.078125 -9.960938 13.132812 -9.085938 13.023438 -7.714844 C 12.859375 -6.292969 12.367188 -5.253906 11.601562 -4.488281 C 10.453125 -3.558594 9.03125 -3.011719 7.332031 -2.789062 C 5.582031 -2.570312 3.996094 -2.789062 2.570312 -3.449219 C 1.476562 -3.886719 0.875 -3.941406 0.875 -3.613281 C 0.875 -3.503906 0.875 -3.394531 0.984375 -3.285156 C 1.3125 -2.515625 2.242188 -1.804688 3.722656 -1.09375 C 4.105469 -0.875 4.597656 -0.710938 5.144531 -0.492188 C 5.691406 -0.273438 6.128906 -0.164062 6.511719 -0.0546875 Z M 6.511719 -0.0546875 "/></g></g></g></svg>